SplineFontDB: 3.0
FontName: BoonTook-Mon-Ultra
FullName: BoonTook Mon Ultra
FamilyName: BoonTook Mon Ultra
Weight: Ultra
Copyright: Copyright (c) 2014, Sungsit Sawaiwan (sungsit.com | https://twitter.com/gzix), with Reserved Font Names "BoonTook".
Version: 1.0-beta1
ItalicAngle: 0
UnderlinePosition: -60
UnderlineWidth: 60
Ascent: 960
Descent: 240
woffMajor: 1
woffMinor: 0
LayerCount: 2
Layer: 0 0 "Back"  1
Layer: 1 0 "Fore"  0
FSType: 8
OS2Version: 0
OS2_WeightWidthSlopeOnly: 0
OS2_UseTypoMetrics: 0
CreationTime: 1394017292
ModificationTime: 1414542914
PfmFamily: 33
TTFWeight: 950
TTFWidth: 5
LineGap: 0
VLineGap: 0
Panose: 2 1 1 5 5 0 0 0 0 0
OS2TypoAscent: 1240
OS2TypoAOffset: 0
OS2TypoDescent: -480
OS2TypoDOffset: 0
OS2TypoLinegap: 0
OS2WinAscent: 1240
OS2WinAOffset: 0
OS2WinDescent: 480
OS2WinDOffset: 0
HheadAscent: 1240
HheadAOffset: 0
HheadDescent: -480
HheadDOffset: 0
OS2FamilyClass: 2048
OS2Vendor: 'BUni'
Lookup: 1 0 0 "'aalt' Latin Access All Alternates"  {"'aalt' Latin Access All Alternates" ("alt" ) } ['aalt' ('DFLT' <'dflt' > 'latn' <'dflt' > ) ]
Lookup: 1 0 0 "'ss18' Latin g alt"  {"'ss18' Latin g alt"  } ['ss18' ('DFLT' <'dflt' > 'latn' <'dflt' > 'thai' <'PAL ' 'SAN ' 'THA ' 'dflt' > ) ]
Lookup: 1 0 0 "'ss19' Latin a alt"  {"'ss19' Latin a alt"  } ['ss19' ('DFLT' <'dflt' > 'latn' <'dflt' > 'thai' <'PAL ' 'SAN ' 'THA ' 'dflt' > ) ]
Lookup: 1 0 0 "'ss20' Latin a & g alt"  {"'ss20' Latin a & g alt" ("alt" ) } ['ss20' ('DFLT' <'dflt' > 'latn' <'dflt' > 'thai' <'PAL ' 'SAN ' 'THA ' 'dflt' > ) ]
Lookup: 1 0 0 "'locl' Localized Thai-Sanskrit"  {"'locl' Localized Thai-Sanskrit" ("descless" ) } ['ccmp' ('latn' <' SAN' 'PAL ' > 'thai' <'PAL ' 'SAN ' > ) 'locl' ('latn' <' SAN' 'PAL ' > 'thai' <'PAL ' 'SAN ' > ) 'salt' ('DFLT' <'dflt' > 'latn' <'dflt' > 'thai' <'PAL ' 'SAN ' 'THA ' 'dflt' > ) 'ss01' ('DFLT' <'dflt' > 'latn' <'dflt' > 'thai' <'PAL ' 'SAN ' 'THA ' 'dflt' > ) ]

StartChar: uni0E2D
Encoding: 3629 3629 0
Width: 730
VWidth: 0
Flags: W
HStem: -20 180<290.608 401.968> 230 110<275 319.749> 440 180<152.254 379.095>
VStem: 430 270<186.975 388.825>
LayerCount: 2
Fore
SplineSet
30 260 m 0
 30 305 52 340 90 340 c 2
 290 340 l 2
 306 340 320 326 320 310 c 2
 320 260 l 2
 320 244 306 230 290 230 c 2
 275 230 l 1
 275 182 310 160 350 160 c 0
 408 160 430 210 430 300 c 0
 430 400 370 440 280 440 c 0
 220 440 182 427 160 420 c 0
 147 416 124 405 111 405 c 0
 96 405 91 423 86 435 c 2
 55 510 l 1
 55 510 50 522 50 535 c 0
 50 550 55 558 70 565 c 0
 82 570 184 620 360 620 c 0
 574 620 700 497 700 300 c 0
 700 123 564 -20 350 -20 c 0
 168 -20 30 70 30 260 c 0
EndSplineSet
Colour: ffff00
EndChar

StartChar: uni0E01
Encoding: 3585 3585 1
Width: 770
VWidth: 0
Flags: W
HStem: 0 21G<119 331 489 701> 440 180<325.623 448.219>
VStem: 90 270<2.43744 397.41> 460 270<2.43744 428.402>
LayerCount: 2
Fore
SplineSet
20 505 m 0
 20 517 27 527 40 535 c 1
 40 535 192 620 380 620 c 0
 594 620 730 536 730 370 c 2
 730 40 l 2
 730 18 712 0 690 0 c 2
 500 0 l 2
 478 0 460 18 460 40 c 2
 460 370 l 2
 460 418 438 440 380 440 c 0
 365 440 345 439 322 437 c 1
 343 420 360 394 360 360 c 2
 360 40 l 2
 360 18 342 0 320 0 c 2
 130 0 l 2
 108 0 90 18 90 40 c 2
 90 370 l 2
 90 387 87 395 82 398 c 1
 76 397 68 395 65 395 c 0
 54 395 49 403 45 415 c 2
 25 480 l 1
 25 480 20 497 20 505 c 0
EndSplineSet
Colour: ffff00
EndChar

StartChar: uni0E17
Encoding: 3607 3607 2
Width: 775
VWidth: 0
Flags: W
HStem: 0 21G<79 301 479 701> 400 210<382.5 574.5> 580 20G<79 281>
VStem: 50 280<2.43744 380.77> 450 280<2.43744 393.505>
LayerCount: 2
Fore
SplineSet
50 40 m 2xd8
 50 560 l 2
 50 582 68 600 90 600 c 2
 270 600 l 2xb8
 292 600 310 582 310 560 c 2
 310 498 l 1
 338 544 397 610 510 610 c 0
 639 610 730 526 730 380 c 2
 730 40 l 2
 730 18 712 0 690 0 c 2
 490 0 l 2
 468 0 450 18 450 40 c 2
 450 320 l 2
 450 381 434 400 400 400 c 0
 365 400 343 374 330 333 c 1
 330 40 l 2
 330 18 312 0 290 0 c 2
 90 0 l 2
 68 0 50 18 50 40 c 2xd8
EndSplineSet
Colour: ffff00
EndChar

StartChar: uni0E19
Encoding: 3609 3609 3
Width: 775
VWidth: 0
Flags: W
HStem: -10 210<200.5 392.5> 0 21G<494 696> 580 20G<74 296 474 696>
VStem: 45 280<206.495 597.563> 445 280<219.23 597.563>
LayerCount: 2
Fore
SplineSet
45 220 m 2xb8
 45 560 l 2
 45 582 63 600 85 600 c 2
 285 600 l 2
 307 600 325 582 325 560 c 2
 325 280 l 2
 325 219 341 200 375 200 c 0xb8
 410 200 432 226 445 267 c 1
 445 560 l 2
 445 582 463 600 485 600 c 2
 685 600 l 2
 707 600 725 582 725 560 c 2
 725 40 l 2
 725 18 707 0 685 0 c 2
 505 0 l 2x78
 483 0 465 18 465 40 c 2
 465 102 l 1
 437 56 378 -10 265 -10 c 0
 136 -10 45 74 45 220 c 2xb8
EndSplineSet
Colour: ffff00
EndChar

StartChar: uni0E21
Encoding: 3617 3617 4
Width: 775
VWidth: 0
Flags: W
HStem: -10 210<382.5 574.5> 0 21G<79 281> 580 20G<79 301 479 701>
VStem: 50 280<219.23 597.563> 450 280<206.495 597.563>
LayerCount: 2
Fore
SplineSet
50 40 m 2x78
 50 560 l 2
 50 582 68 600 90 600 c 2
 290 600 l 2
 312 600 330 582 330 560 c 2
 330 267 l 1
 343 226 365 200 400 200 c 0
 434 200 450 219 450 280 c 2
 450 560 l 2
 450 582 468 600 490 600 c 2
 690 600 l 2
 712 600 730 582 730 560 c 2
 730 220 l 2
 730 74 639 -10 510 -10 c 0xb8
 397 -10 338 56 310 102 c 1
 310 40 l 2
 310 18 292 0 270 0 c 2
 90 0 l 2
 68 0 50 18 50 40 c 2x78
EndSplineSet
Colour: ffff00
EndChar

StartChar: uni0E1A
Encoding: 3610 3610 5
Width: 790
VWidth: 0
Flags: W
HStem: -20 190<336.671 453.329> 580 20G<74 296 494 716>
VStem: 45 280<185.476 597.563> 465 280<185.476 597.563>
LayerCount: 2
Fore
SplineSet
45 230 m 2
 45 560 l 2
 45 582 63 600 85 600 c 2
 285 600 l 2
 307 600 325 582 325 560 c 2
 325 240 l 2
 325 192 351 170 395 170 c 0
 439 170 465 192 465 240 c 2
 465 560 l 2
 465 582 483 600 505 600 c 2
 705 600 l 2
 727 600 745 582 745 560 c 2
 745 230 l 2
 745 64 609 -20 395 -20 c 0
 181 -20 45 64 45 230 c 2
EndSplineSet
Colour: ffff00
EndChar

StartChar: uni0E1B
Encoding: 3611 3611 6
Width: 820
VWidth: 0
Flags: W
HStem: -20 190<341.965 468.035> 580 20G<74 296> 820 20G<514 736>
VStem: 45 280<185.476 597.563> 485 280<185.476 837.563>
AnchorPoint: "th-vow-above" 480 660 basechar 0
LayerCount: 2
Fore
SplineSet
45 230 m 2
 45 560 l 2
 45 582 63 600 85 600 c 2
 285 600 l 2
 307 600 325 582 325 560 c 2
 325 240 l 2
 325 192 356 170 405 170 c 0
 454 170 485 192 485 240 c 2
 485 800 l 2
 485 822 503 840 525 840 c 2
 725 840 l 2
 747 840 765 822 765 800 c 2
 765 230 l 2
 765 64 624 -20 405 -20 c 0
 186 -20 45 64 45 230 c 2
EndSplineSet
Colour: ffff00
EndChar

StartChar: uni0E04
Encoding: 3588 3588 7
Width: 780
VWidth: 0
Flags: W
HStem: 0 21G<69 281 499 711> 165 175<329.025 404.718> 430 190<328.364 451.636>
VStem: 40 270<2.43744 151.462 290 414.524> 470 270<2.43744 414.524>
LayerCount: 2
Fore
SplineSet
40 40 m 2
 40 370 l 2
 40 536 176 620 390 620 c 0
 604 620 740 536 740 370 c 2
 740 40 l 2
 740 18 722 0 700 0 c 2
 510 0 l 2
 488 0 470 18 470 40 c 2
 470 360 l 2
 470 408 434 430 390 430 c 0
 346 430 310 408 310 360 c 2
 310 290 l 1
 328 317 351 340 380 340 c 0
 391 340 399 338 405 335 c 0
 415 330 420 319 420 310 c 2
 420 175 l 2
 420 167 412 162 405 163 c 0
 399 164 393 165 380 165 c 0
 349 165 323 146 310 125 c 1
 310 40 l 2
 310 18 292 0 270 0 c 2
 80 0 l 2
 58 0 40 18 40 40 c 2
EndSplineSet
Colour: ffff00
EndChar

StartChar: uni0E05
Encoding: 3589 3589 8
Width: 780
VWidth: 0
Flags: W
HStem: 0 21G<69 281 499 711> 165 175<329.025 404.718> 600 20G<197.5 268.5 511.5 582.5>
VStem: 40 270<2.43744 151.462 290 416.643> 470 270<2.43744 416.643>
LayerCount: 2
Fore
SplineSet
40 40 m 2
 40 390 l 2
 40 536 155 620 240 620 c 0
 297 620 390 530 390 530 c 1
 390 530 483 620 540 620 c 0
 625 620 740 536 740 390 c 2
 740 40 l 2
 740 18 722 0 700 0 c 2
 510 0 l 2
 488 0 470 18 470 40 c 2
 470 370 l 2
 470 406 450 420 450 420 c 1
 415 395 l 1
 415 395 400 385 390 385 c 0
 380 385 365 395 365 395 c 1
 330 420 l 1
 330 420 310 406 310 370 c 2
 310 290 l 1
 328 317 351 340 380 340 c 0
 391 340 399 338 405 335 c 0
 415 330 420 319 420 310 c 2
 420 175 l 2
 420 167 412 162 405 163 c 0
 399 164 393 165 380 165 c 0
 349 165 323 146 310 125 c 1
 310 40 l 2
 310 18 292 0 270 0 c 2
 80 0 l 2
 58 0 40 18 40 40 c 2
EndSplineSet
Colour: ffff00
EndChar

StartChar: uni0E02
Encoding: 3586 3586 9
Width: 755
VWidth: 0
Flags: W
HStem: -20 180<330.999 429.001> 580 20G<72 304 469 681>
VStem: 50 330<421.878 565.391> 50 270<169.141 335.164> 440 270<168.809 597.563>
LayerCount: 2
Fore
SplineSet
50 220 m 0xd8
 50 338 130 420 130 420 c 1
 80 420 l 2
 64 420 50 434 50 450 c 2xe8
 50 570 l 2xd8
 50 586 64 599 80 600 c 1
 260 600 l 2
 348 600 380 553 380 480 c 0xe8
 380 397 320 317 320 220 c 0xd8
 320 178 346 160 380 160 c 0
 414 160 440 177 440 220 c 2
 440 560 l 2
 440 582 458 600 480 600 c 2
 670 600 l 2
 692 600 710 582 710 560 c 2
 710 220 l 2
 710 54 581 -20 380 -20 c 0xe8
 179 -20 50 60 50 220 c 0xd8
EndSplineSet
Colour: ffff00
EndChar

StartChar: uni0E03
Encoding: 3587 3587 10
Width: 765
VWidth: 0
Flags: W
HStem: -20 180<340.999 439.001> 450 160<159 313.5> 580 20G<479 691>
VStem: 60 270<168.228 298.742> 190 220<386.035 516.5> 450 270<168.809 597.563>
LayerCount: 2
Fore
SplineSet
20 460 m 2xcc
 20 590 l 2
 20 598 25 607 33 607 c 0
 38 607 41 606 50 600 c 2xac
 130 550 l 1
 150 570 196 610 270 610 c 0
 357 610 410 553 410 480 c 0xcc
 410 397 330 317 330 220 c 0
 330 177 356 160 390 160 c 0
 424 160 450 177 450 220 c 2
 450 560 l 2
 450 582 468 600 490 600 c 2
 680 600 l 2
 702 600 720 582 720 560 c 2
 720 220 l 2
 720 54 591 -20 390 -20 c 0
 189 -20 60 54 60 220 c 0xb4
 60 333 190 369 190 425 c 0
 190 438 185 450 170 450 c 0
 148 450 131 430 120 415 c 0
 116 409 112 400 100 400 c 0
 94 400 80 410 80 410 c 1
 35 435 l 2
 27 440 20 448 20 460 c 2xcc
EndSplineSet
Colour: ffff00
EndChar

StartChar: uni0E06
Encoding: 3590 3590 11
Width: 775
VWidth: -360
Flags: W
HStem: -10 210<399.254 574.5> 0 21G<89 281> 450 160<159 313.5> 580 20G<489 701>
VStem: 190 220<385.397 516.5> 460 270<213.202 597.563>
LayerCount: 2
Fore
SplineSet
20 460 m 2x6c
 20 590 l 2
 20 598 25 607 33 607 c 0
 38 607 41 606 50 600 c 2x1c
 130 550 l 1
 150 570 196 610 270 610 c 0x2c
 357 610 410 553 410 480 c 0
 410 408 349 338 334 257 c 1
 347 222 368 200 400 200 c 0
 434 200 460 219 460 280 c 2
 460 560 l 2
 460 582 478 600 500 600 c 2
 690 600 l 2
 712 600 730 582 730 560 c 2
 730 220 l 2
 730 74 639 -10 510 -10 c 0x9c
 397 -10 338 56 310 102 c 1
 310 40 l 2
 310 18 292 0 270 0 c 2
 100 0 l 2
 78 0 60 18 60 40 c 2
 60 220 l 2
 60 333 190 369 190 425 c 0
 190 438 185 450 170 450 c 0
 148 450 131 430 120 415 c 0
 116 409 112 400 100 400 c 0
 94 400 80 410 80 410 c 1
 35 435 l 2
 27 440 20 448 20 460 c 2x6c
EndSplineSet
Colour: ffff00
EndChar

StartChar: uni0E07
Encoding: 3591 3591 12
Width: 770
VWidth: 0
Flags: W
HStem: 420 190<364.196 453.321> 580 20G<42.5 244.5>
VStem: 480 260<199.968 391.976>
AnchorPoint: "th-vow-below" 600 0 basechar 0
LayerCount: 2
Fore
SplineSet
15 575 m 0xa0
 15 590 30 600 55 600 c 2
 230 600 l 2x60
 259 600 273 587 280 560 c 2
 385 160 l 1
 440 160 480 212 480 300 c 0
 480 380 443 420 400 420 c 0
 384 420 368 425 364 440 c 2
 338 545 l 1
 338 545 335 556 335 562 c 0
 335 576 341 585 350 590 c 0
 363 598 406 610 460 610 c 0
 638 610 740 471 740 300 c 0
 740 129 614 -10 380 -10 c 0
 299 -10 281 -7 232 -3 c 0
 207 -1 190 27 187 40 c 1
 20 555 l 2
 18 560 15 571 15 575 c 0xa0
EndSplineSet
Colour: ffff00
EndChar

StartChar: uni0E16
Encoding: 3606 3606 13
Width: 770
VWidth: 0
Flags: W
HStem: 0 21G<160 388 489 701> 440 180<319.463 448.219>
VStem: 90 260<150 396.062> 460 270<2.43744 428.402>
LayerCount: 2
Fore
SplineSet
20 505 m 0
 20 517 27 527 40 535 c 1
 40 535 192 620 380 620 c 0
 594 620 730 536 730 370 c 2
 730 40 l 2
 730 18 712 0 690 0 c 2
 500 0 l 2
 478 0 460 18 460 40 c 2
 460 370 l 2
 460 418 438 440 380 440 c 0
 364 440 343 439 318 436 c 1
 336 420 350 394 350 360 c 2
 350 150 l 1
 380 150 l 2
 396 150 410 136 410 120 c 2
 410 30 l 2
 410 14 396 0 380 0 c 2
 200 0 l 2
 120 0 90 42 90 90 c 2
 90 370 l 2
 90 390 86 397 79 397 c 1
 73 396 67 395 65 395 c 0
 54 395 49 403 45 415 c 2
 25 480 l 1
 25 480 20 497 20 505 c 0
EndSplineSet
Colour: ffff00
EndChar

StartChar: uni0E2E
Encoding: 3630 3630 14
Width: 750
VWidth: 0
Flags: W
HStem: -20 180<290.608 401.968> 230 110<275 319.749> 440 180<152.254 378.728>
VStem: 430 270<186.975 390> 548 197<582.547 679.749>
LayerCount: 2
Fore
SplineSet
30 260 m 0xf0
 30 305 52 340 90 340 c 2
 290 340 l 2
 306 340 320 326 320 310 c 2
 320 260 l 2
 320 244 306 230 290 230 c 2
 275 230 l 1
 275 182 310 160 350 160 c 0
 408 160 430 210 430 300 c 0xf0
 430 400 370 440 280 440 c 0
 220 440 182 427 160 420 c 0
 147 416 124 405 111 405 c 0
 96 405 91 423 86 435 c 2
 55 510 l 1
 55 510 50 522 50 535 c 0
 50 550 55 558 70 565 c 0
 82 570 184 620 360 620 c 0
 444 620 494 596 519 579 c 1
 539 604 548 634 548 650 c 0
 548 666 562 680 578 680 c 2
 715 680 l 2
 731 680 745 666 745 650 c 0xe8
 745 589 706 528 640 486 c 1
 671 453 700 396 700 300 c 0
 700 123 564 -20 350 -20 c 0
 168 -20 30 70 30 260 c 0xf0
EndSplineSet
Substitution2: "TH Tail Swap" uni0E2E.swap
Substitution2: "'ss02' TH Tail swap" uni0E2E.swap
Colour: ffff00
EndChar

StartChar: uni0E20
Encoding: 3616 3616 15
Width: 770
VWidth: 0
Flags: W
HStem: 0 21G<62 290 489 701> 440 180<328.076 448.219>
VStem: 100 260<150 397.839> 460 270<2.43744 428.402>
LayerCount: 2
Fore
SplineSet
20 505 m 0
 20 517 27 527 40 535 c 1
 40 535 192 620 380 620 c 0
 594 620 730 536 730 370 c 2
 730 40 l 2
 730 18 712 0 690 0 c 2
 500 0 l 2
 478 0 460 18 460 40 c 2
 460 370 l 2
 460 418 438 440 380 440 c 0
 366 440 348 439 327 437 c 1
 346 420 360 395 360 360 c 2
 360 90 l 2
 360 42 330 0 250 0 c 2
 70 0 l 2
 54 0 40 14 40 30 c 2
 40 120 l 2
 40 136 54 150 70 150 c 2
 100 150 l 1
 100 370 l 2
 100 391 95 399 87 399 c 1
 81 398 69 395 65 395 c 0
 54 395 49 403 45 415 c 2
 25 480 l 1
 25 480 20 497 20 505 c 0
EndSplineSet
Colour: ffff00
EndChar

StartChar: uni0E14
Encoding: 3604 3604 16
Width: 790
VWidth: 0
Flags: W
HStem: -10 190<340.284 417.858> 0 21G<509 721> 420 200<341.897 463.683>
VStem: 30 280<212.95 386.837> 480 270<2.43744 401.229>
LayerCount: 2
Fore
SplineSet
30 300 m 0xb8
 30 471 162 620 410 620 c 0
 630 620 750 505 750 370 c 2
 750 40 l 2
 750 18 732 0 710 0 c 2
 520 0 l 2x78
 498 0 480 18 480 40 c 2
 480 360 l 2
 480 386 457 420 410 420 c 0
 349 420 310 380 310 300 c 0
 310 212 360 180 390 180 c 0
 407 180 416 185 420 185 c 0
 426 185 430 182 430 170 c 2
 430 40 l 2
 430 25 415 11 400 5 c 0
 386 -0 360 -10 320 -10 c 0
 142 -10 30 129 30 300 c 0xb8
EndSplineSet
Colour: ffff00
EndChar

StartChar: uni0E15
Encoding: 3605 3605 17
Width: 810
VWidth: 0
Flags: W
HStem: -10 190<340.284 417.858> 0 21G<519 731> 420 190<223.5 398.059> 580 20G<529 731>
VStem: 30 280<212.95 393.734> 490 270<2.43744 368.889>
LayerCount: 2
Fore
SplineSet
30 300 m 0xac
 30 471 137 610 310 610 c 0xac
 386 610 453 553 500 485 c 1
 500 560 l 2
 500 582 518 600 540 600 c 2
 720 600 l 2
 742 600 760 582 760 560 c 2
 760 40 l 2
 760 18 742 0 720 0 c 2
 530 0 l 2x5c
 508 0 490 18 490 40 c 2
 490 334 l 1
 468 376 413 420 380 420 c 0
 344 420 310 380 310 300 c 0
 310 212 360 180 390 180 c 0
 407 180 416 185 420 185 c 0
 426 185 430 182 430 170 c 2
 430 40 l 2
 430 25 415 11 400 5 c 0
 386 -0 360 -10 320 -10 c 0
 142 -10 30 129 30 300 c 0xac
EndSplineSet
Colour: ffff00
EndChar

StartChar: uni0E33
Encoding: 3635 3635 18
Width: 540
VWidth: 0
Flags: W
HStem: 0 21G<239 461> 410 200<85.5606 333> 670 90<-251.354 -178.646> 850 90<-251.354 -178.646>
VStem: -390 135<762.68 847.32> -175 135<762.68 847.32> 210 280<2.43744 400.887>
LayerCount: 2
Fore
SplineSet
-390 805 m 0
 -390 884 -329 940 -215 940 c 0
 -101 940 -40 884 -40 805 c 0
 -40 726 -101 670 -215 670 c 0
 -329 670 -390 726 -390 805 c 0
-255 805 m 0
 -255 775 -237 760 -215 760 c 0
 -193 760 -175 775 -175 805 c 0
 -175 835 -193 850 -215 850 c 0
 -237 850 -255 835 -255 805 c 0
5 530 m 0
 5 542 12 549 30 560 c 1
 30 560 115 610 250 610 c 0
 416 610 490 532 490 380 c 2
 490 40 l 2
 490 18 472 0 450 0 c 2
 250 0 l 2
 228 0 210 18 210 40 c 2
 210 360 l 2
 210 398 196 410 160 410 c 0
 134 410 111 404 90 395 c 0
 81 391 71 385 60 385 c 0
 49 385 44 393 40 405 c 2
 10 505 l 1
 10 505 5 522 5 530 c 0
EndSplineSet
Substitution2: "TH Sara Am Alter" uni0E33.alt
Colour: ffff00
EndChar

StartChar: uni0E08
Encoding: 3592 3592 19
Width: 710
VWidth: -360
Flags: W
HStem: -10 350<186.623 298.12> 440 180<132.254 362.061>
VStem: 410 270<201.162 394.651>
AnchorPoint: "th-vow-below" 520 0 basechar 0
LayerCount: 2
Fore
SplineSet
30 535 m 0
 30 550 35 558 50 565 c 0
 62 570 164 620 340 620 c 0
 554 620 680 504 680 320 c 0
 680 149 555 -10 370 -10 c 0
 289 -10 267 -7 218 -3 c 0
 193 -1 178 27 173 40 c 2
 110 190 l 1
 80 190 l 2
 64 190 50 204 50 220 c 2
 50 310 l 2
 50 326 64 340 80 340 c 2
 240 340 l 2
 282 340 299 320 310 290 c 2
 353 168 l 1
 386 186 410 233 410 310 c 0
 410 395 360 440 270 440 c 0
 214 440 162 427 140 420 c 0
 127 416 104 405 91 405 c 0
 76 405 71 423 66 435 c 2
 35 510 l 1
 35 510 30 522 30 535 c 0
EndSplineSet
Colour: ffff00
EndChar

StartChar: uni0E09
Encoding: 3593 3593 20
Width: 750
VWidth: 0
Flags: W
HStem: -10 170<205.5 383> 0 21G<489 681> 440 180<152.236 399.255>
VStem: 50 280<190.332 333.873> 440 270<176.514 400.164>
LayerCount: 2
Fore
SplineSet
40 535 m 0xb8
 40 550 45 558 60 565 c 0
 72 570 194 620 370 620 c 0
 584 620 710 536 710 370 c 2
 710 40 l 2
 710 18 692 0 670 0 c 2
 500 0 l 2x78
 478 0 460 18 460 40 c 2
 460 92 l 1
 432 51 358 -10 240 -10 c 0
 171 -10 90 26 90 130 c 2
 90 190 l 1
 80 190 l 2
 64 190 50 204 50 220 c 2
 50 310 l 2
 50 326 64 340 80 340 c 2
 260 340 l 2
 326 340 330 317 330 280 c 2
 330 210 l 2
 330 173 345 160 370 160 c 0
 396 160 420 177 440 204 c 1
 440 340 l 2
 440 411 374 440 290 440 c 0
 234 440 177 427 155 420 c 0
 142 416 114 405 101 405 c 0
 86 405 81 423 76 435 c 2
 45 510 l 1
 45 510 40 522 40 535 c 0xb8
EndSplineSet
Colour: ffff00
EndChar

StartChar: uni0E0A
Encoding: 3594 3594 21
Width: 770
VWidth: -360
Flags: W
HStem: -20 180<330.999 429.001> 430 100<400 436.599> 580 20G<72 304>
VStem: 50 330<421.878 565.391> 50 270<169.141 335.164> 440 270<168.809 400.485>
LayerCount: 2
Fore
SplineSet
50 220 m 0xec
 50 338 130 420 130 420 c 1
 80 420 l 2
 64 420 50 434 50 450 c 2xf4
 50 570 l 2xec
 50 586 64 599 80 600 c 1
 260 600 l 2
 348 600 380 553 380 480 c 0xf4
 380 397 320 317 320 220 c 0xec
 320 178 346 160 380 160 c 0
 414 160 440 177 440 220 c 2
 440 370 l 2
 440 410 434 426 420 430 c 0
 410 433 400 439 400 450 c 2
 400 510 l 2
 400 521 409 530 420 530 c 0
 512 530 548 618 548 650 c 0
 548 666 562 680 578 680 c 2
 715 680 l 2
 731 680 745 666 745 650 c 0
 745 576 688 503 595 462 c 1
 659 442 710 386 710 330 c 2
 710 220 l 2
 710 54 581 -20 380 -20 c 0xf4
 179 -20 50 60 50 220 c 0xec
EndSplineSet
Substitution2: "TH Tail Swap" uni0E0A.swap
Substitution2: "'ss02' TH Tail swap" uni0E0A.swap
Colour: ffff00
EndChar

StartChar: uni0E0B
Encoding: 3595 3595 22
Width: 780
VWidth: -360
Flags: W
HStem: -20 180<340.999 439.001> 450 160<159 313.5>
VStem: 60 270<168.228 298.742> 190 220<386.035 516.5> 450 270<168.809 400.485>
LayerCount: 2
Fore
SplineSet
20 460 m 2xd8
 20 590 l 2
 20 598 25 607 33 607 c 0
 38 607 41 606 50 600 c 2
 130 550 l 1
 150 570 196 610 270 610 c 0
 357 610 410 553 410 480 c 0xd8
 410 397 330 317 330 220 c 0
 330 177 356 160 390 160 c 0
 424 160 450 177 450 220 c 2
 450 370 l 2
 450 410 444 426 430 430 c 0
 420 433 415 439 415 450 c 2
 415 510 l 2
 415 521 419 530 430 530 c 0
 522 530 558 618 558 650 c 0
 558 666 572 680 588 680 c 2
 725 680 l 2
 741 680 755 666 755 650 c 0
 755 576 698 503 605 462 c 1
 669 442 720 386 720 330 c 2
 720 220 l 2
 720 54 591 -20 390 -20 c 0
 189 -20 60 54 60 220 c 0xe8
 60 333 190 369 190 425 c 0
 190 438 185 450 170 450 c 0
 148 450 131 430 120 415 c 0
 116 409 112 400 100 400 c 0
 94 400 80 410 80 410 c 1
 35 435 l 2
 27 440 20 448 20 460 c 2xd8
EndSplineSet
Substitution2: "TH Tail Swap" uni0E0B.swap
Substitution2: "'ss02' TH Tail swap" uni0E0B.swap
Colour: ffff00
EndChar

StartChar: uni0E0C
Encoding: 3596 3596 23
Width: 1150
VWidth: 0
Flags: W
HStem: -10 200<778 959> 0 21G<160 388 489 681> 440 180<319.463 448.219> 580 20G<859 1071>
VStem: 90 260<150 396.062> 460 270<201.951 428.402> 830 270<196.523 597.563>
LayerCount: 2
Fore
SplineSet
20 505 m 0x6e
 20 517 27 527 40 535 c 1
 40 535 192 620 380 620 c 0x6e
 594 620 730 536 730 370 c 2
 730 230 l 1
 747 205 766 190 790 190 c 0
 816 190 830 209 830 270 c 2
 830 560 l 2
 830 582 848 600 870 600 c 2
 1060 600 l 2
 1082 600 1100 582 1100 560 c 2
 1100 210 l 2
 1100 64 1018 -10 900 -10 c 0x9e
 796 -10 738 48 710 92 c 1
 710 40 l 2
 710 18 692 0 670 0 c 2
 500 0 l 2
 478 0 460 18 460 40 c 2
 460 370 l 2
 460 418 438 440 380 440 c 0
 364 440 343 439 318 436 c 1
 336 420 350 394 350 360 c 2
 350 150 l 1
 380 150 l 2
 396 150 410 136 410 120 c 2
 410 30 l 2
 410 14 396 0 380 0 c 2
 200 0 l 2
 120 0 90 42 90 90 c 2
 90 370 l 2
 90 390 86 397 79 397 c 1
 73 396 67 395 65 395 c 0
 54 395 49 403 45 415 c 2
 25 480 l 1
 25 480 20 497 20 505 c 0x6e
EndSplineSet
Colour: ffff00
EndChar

StartChar: uni0E0D
Encoding: 3597 3597 24
Width: 1150
VWidth: 0
Flags: W
HStem: -250 150<629.827 930.173> -196 141<545.078 594.264 965.736 1014.92> -20 180<736.847 823.153> 0 21G<160 388> 440 180<319.463 448.219> 580 20G<859 1071>
VStem: 90 260<150 396.062> 460 270<169.293 428.402> 830 270<169.293 597.563>
LayerCount: 2
Fore
SplineSet
20 505 m 0x1b80
 20 517 27 527 40 535 c 1
 40 535 192 620 380 620 c 0x1b80
 594 620 730 536 730 370 c 2
 730 220 l 2
 730 179 745 160 780 160 c 0
 815 160 830 179 830 220 c 2
 830 560 l 2
 830 582 848 600 870 600 c 2
 1060 600 l 2
 1082 600 1100 582 1100 560 c 2
 1100 210 l 2
 1100 83 1012 -20 780 -20 c 0x2780
 548 -20 460 83 460 210 c 2
 460 370 l 2
 460 418 438 440 380 440 c 0
 364 440 343 439 318 436 c 1
 336 420 350 394 350 360 c 2
 350 150 l 1
 380 150 l 2
 396 150 410 136 410 120 c 2
 410 30 l 2
 410 14 396 0 380 0 c 2
 200 0 l 2
 120 0 90 42 90 90 c 2
 90 370 l 2
 90 390 86 397 78 397 c 1
 73 396 67 395 65 395 c 0
 54 395 49 403 45 415 c 2
 25 480 l 1
 25 480 20 497 20 505 c 0x1b80
510 -170 m 0
 510 -163 513 -154 515 -150 c 2
 550 -70 l 2
 554 -59 565 -55 575 -55 c 0x4380
 582 -55 590 -58 595 -60 c 0
 601 -63 677 -100 780 -100 c 0x8380
 883 -100 959 -63 965 -60 c 0
 970 -58 978 -55 985 -55 c 0
 995 -55 1006 -59 1010 -70 c 2
 1045 -150 l 2
 1047 -154 1050 -163 1050 -170 c 0
 1050 -180 1040 -192 1030 -196 c 0x4380
 989 -214 917 -250 780 -250 c 0x8380
 643 -250 571 -214 530 -196 c 0x4380
 520 -192 510 -180 510 -170 c 0
EndSplineSet
Substitution2: "TH Descless" uni0E0D.descless
Substitution2: "'locl' Localized Thai-Sanskrit" uni0E0D.descless
Colour: ffff00
EndChar

StartChar: uni0E13
Encoding: 3603 3603 25
Width: 1150
VWidth: -360
Flags: W
HStem: -10 200<601 782> 0 21G<160 388 879 1071> 440 180<319.463 448.219> 580 20G<859 1071>
VStem: 90 260<150 396.062> 460 270<196.523 428.402> 830 270<201.951 597.563>
LayerCount: 2
Fore
SplineSet
20 505 m 0x6e
 20 517 27 527 40 535 c 1
 40 535 192 620 380 620 c 0
 594 620 730 536 730 370 c 2
 730 270 l 2
 730 209 744 190 770 190 c 0xae
 794 190 813 205 830 230 c 1
 830 560 l 2
 830 582 848 600 870 600 c 2
 1060 600 l 2
 1082 600 1100 582 1100 560 c 2
 1100 40 l 2
 1100 18 1082 0 1060 0 c 2
 890 0 l 2x5e
 868 0 850 18 850 40 c 2
 850 92 l 1
 822 48 764 -10 660 -10 c 0x8e
 542 -10 460 64 460 210 c 2
 460 370 l 2
 460 418 438 440 380 440 c 0
 364 440 343 439 318 436 c 1
 336 420 350 394 350 360 c 2
 350 150 l 1
 380 150 l 2
 396 150 410 136 410 120 c 2
 410 30 l 2
 410 14 396 0 380 0 c 2
 200 0 l 2
 120 0 90 42 90 90 c 2
 90 370 l 2
 90 390 86 397 79 397 c 1
 73 396 67 395 65 395 c 0
 54 395 49 403 45 415 c 2
 25 480 l 1
 25 480 20 497 20 505 c 0x6e
EndSplineSet
Colour: ffff00
EndChar

StartChar: uni0E12
Encoding: 3602 3602 26
Width: 1180
VWidth: -360
Flags: W
HStem: -10 200<808 989> -10 190<340.284 417.858> 0 21G<519 711> 420 190<223.5 398.059> 580 20G<529 731 889 1101>
VStem: 30 280<212.95 393.734> 490 270<201.951 368.889> 490 250<2.43744 92> 860 270<196.523 597.563>
LayerCount: 2
Fore
SplineSet
30 300 m 0x5680
 30 471 137 610 310 610 c 0x5680
 386 610 453 553 500 485 c 1
 500 560 l 2
 500 582 518 600 540 600 c 2
 720 600 l 2
 742 600 760 582 760 560 c 2
 760 230 l 1
 777 205 796 190 820 190 c 0
 846 190 860 209 860 270 c 2
 860 560 l 2
 860 582 878 600 900 600 c 2
 1090 600 l 2
 1112 600 1130 582 1130 560 c 2
 1130 210 l 2
 1130 64 1048 -10 930 -10 c 0x8e80
 826 -10 768 48 740 92 c 1
 740 40 l 2
 740 18 722 0 700 0 c 2
 530 0 l 2
 508 0 490 18 490 40 c 2x2580
 490 334 l 1
 468 376 413 420 380 420 c 0
 344 420 310 380 310 300 c 0
 310 212 360 180 390 180 c 0
 407 180 416 185 420 185 c 0
 426 185 430 182 430 170 c 2
 430 40 l 2
 430 25 415 11 400 5 c 0
 386 -0 360 -10 320 -10 c 0
 142 -10 30 129 30 300 c 0x5680
EndSplineSet
Colour: ffff00
EndChar

StartChar: uni0E11
Encoding: 3601 3601 27
Width: 785
VWidth: 0
Flags: W
HStem: 0 21G<99 321 489 711> 370 240<415 639.5> 450 160<159 311>
VStem: 70 280<2.43744 301.68> 460 280<2.43744 369.989>
LayerCount: 2
Fore
SplineSet
20 460 m 2xb8
 20 590 l 2
 20 598 25 607 33 607 c 0
 38 607 41 606 50 600 c 2
 130 550 l 1
 150 570 196 610 270 610 c 0xb8
 352 610 404 559 410 491 c 1
 448 553 504 610 580 610 c 0
 699 610 740 526 740 380 c 2
 740 40 l 2
 740 18 722 0 700 0 c 2
 500 0 l 2
 478 0 460 18 460 40 c 2
 460 330 l 2
 460 355 456 370 435 370 c 0xd8
 395 370 365 291 350 220 c 1
 350 40 l 2
 350 18 332 0 310 0 c 2
 110 0 l 2
 88 0 70 18 70 40 c 2
 70 220 l 2
 70 333 190 369 190 425 c 0
 190 438 185 450 170 450 c 0
 148 450 131 430 120 415 c 0
 116 409 112 400 100 400 c 0
 94 400 80 410 80 410 c 1
 35 435 l 2
 27 440 20 448 20 460 c 2xb8
EndSplineSet
Colour: ffff00
EndChar

StartChar: uni0E24
Encoding: 3620 3620 28
Width: 775
VWidth: 0
Flags: W
HStem: 0 21G<160 388> 440 180<319.463 448.219>
VStem: 90 260<150 396.062> 460 270<-237.563 428.402>
LayerCount: 2
Fore
SplineSet
20 505 m 0
 20 517 27 527 40 535 c 1
 40 535 192 620 380 620 c 0
 594 620 730 536 730 370 c 2
 730 -200 l 2
 730 -222 712 -240 690 -240 c 2
 500 -240 l 2
 478 -240 460 -222 460 -200 c 2
 460 370 l 2
 460 418 438 440 380 440 c 0
 364 440 343 439 318 436 c 1
 336 420 350 394 350 360 c 2
 350 150 l 1
 380 150 l 2
 396 150 410 136 410 120 c 2
 410 30 l 2
 410 14 396 0 380 0 c 2
 200 0 l 2
 120 0 90 42 90 90 c 2
 90 370 l 2
 90 390 86 397 79 397 c 1
 73 396 67 395 65 395 c 0
 54 395 49 403 45 415 c 2
 25 480 l 1
 25 480 20 497 20 505 c 0
EndSplineSet
Colour: ffff00
EndChar

StartChar: uni0E26
Encoding: 3622 3622 29
Width: 775
VWidth: 0
Flags: W
HStem: 0 21G<62 290> 440 180<328.076 448.219>
VStem: 100 260<150 397.839> 460 270<-237.563 428.402>
LayerCount: 2
Fore
SplineSet
20 505 m 0
 20 517 27 527 40 535 c 1
 40 535 192 620 380 620 c 0
 594 620 730 536 730 370 c 2
 730 -200 l 2
 730 -222 712 -240 690 -240 c 2
 500 -240 l 2
 478 -240 460 -222 460 -200 c 2
 460 370 l 2
 460 418 438 440 380 440 c 0
 366 440 348 439 327 437 c 1
 346 420 360 395 360 360 c 2
 360 90 l 2
 360 42 330 0 250 0 c 2
 70 0 l 2
 54 0 40 14 40 30 c 2
 40 120 l 2
 40 136 54 150 70 150 c 2
 100 150 l 1
 100 370 l 2
 100 391 95 399 87 399 c 1
 81 398 69 395 65 395 c 0
 54 395 49 403 45 415 c 2
 25 480 l 1
 25 480 20 497 20 505 c 0
EndSplineSet
Colour: ffff00
EndChar

StartChar: uni0E27
Encoding: 3623 3623 30
Width: 650
VWidth: 0
Flags: W
HStem: -20 200<104.667 293.648> 420 200<104.667 293.648>
VStem: 340 280<225.358 374.642>
LayerCount: 2
Fore
SplineSet
30 60 m 0
 30 72 36 81 40 90 c 2
 80 180 l 2
 85 192 91 205 105 205 c 0
 121 205 132 193 165 185 c 0
 178 182 196 180 220 180 c 0
 289 180 340 227 340 300 c 0
 340 373 289 420 220 420 c 0
 196 420 178 418 165 415 c 0
 132 407 121 395 105 395 c 0
 91 395 85 408 80 420 c 2
 40 510 l 2
 36 519 30 528 30 540 c 0
 30 558 51 572 70 580 c 0
 87 587 147 620 270 620 c 0
 484 620 620 477 620 300 c 0
 620 123 484 -20 270 -20 c 0
 147 -20 87 13 70 20 c 0
 51 28 30 42 30 60 c 0
EndSplineSet
Colour: ffff00
EndChar

StartChar: uni0E28
Encoding: 3624 3624 31
Width: 800
VWidth: 0
Flags: W
HStem: 0 21G<69 281 499 711> 165 175<329.025 404.718> 430 190<328.364 454.87>
VStem: 40 270<2.43744 151.462 290 414.524> 470 270<2.43744 414.151> 598 197<583.449 679.749>
LayerCount: 2
Fore
SplineSet
40 40 m 2xf8
 40 370 l 2
 40 536 176 620 390 620 c 0
 473 620 533 598 569 578 c 1
 589 604 598 634 598 650 c 0
 598 666 612 680 628 680 c 2
 765 680 l 2
 781 680 795 666 795 650 c 0xf4
 795 590 757 530 692 488 c 1
 719 458 740 417 740 370 c 2
 740 40 l 2
 740 18 722 0 700 0 c 2
 510 0 l 2
 488 0 470 18 470 40 c 2
 470 360 l 2
 470 408 434 430 390 430 c 0
 346 430 310 408 310 360 c 2
 310 290 l 1
 328 317 351 340 380 340 c 0
 391 340 399 338 405 335 c 0
 415 330 420 319 420 310 c 2
 420 175 l 2
 420 167 412 162 405 163 c 0
 399 164 393 165 380 165 c 0
 349 165 323 146 310 125 c 1
 310 40 l 2
 310 18 292 0 270 0 c 2
 80 0 l 2
 58 0 40 18 40 40 c 2xf8
EndSplineSet
Substitution2: "TH Tail Swap" uni0E28.swap
Substitution2: "'ss02' TH Tail swap" uni0E28.swap
Colour: ffff00
EndChar

StartChar: uni0E29
Encoding: 3625 3625 32
Width: 830
VWidth: -360
Flags: W
HStem: -20 190<336.671 456.636> 290 140<375.335 475 745 814.665> 580 20G<74 296 504 706>
VStem: 45 280<185.476 597.563> 475 260<430 597.563>
LayerCount: 2
Fore
SplineSet
45 230 m 2
 45 560 l 2
 45 582 63 600 85 600 c 2
 285 600 l 2
 307 600 325 582 325 560 c 2
 325 240 l 2
 325 192 351 170 395 170 c 0
 439 170 475 192 475 240 c 2
 475 290 l 1
 405 290 l 2
 388 290 375 304 375 320 c 2
 375 400 l 2
 375 416 389 429 405 430 c 1
 475 430 l 1
 475 560 l 2
 475 582 493 600 515 600 c 2
 695 600 l 2
 717 600 735 582 735 560 c 2
 735 430 l 1
 785 430 l 1
 801 429 815 416 815 400 c 2
 815 320 l 2
 815 304 802 290 785 290 c 2
 745 290 l 1
 745 230 l 2
 745 64 609 -20 395 -20 c 0
 181 -20 45 64 45 230 c 2
EndSplineSet
Colour: ffff00
EndChar

StartChar: uni0E2B
Encoding: 3627 3627 33
Width: 740
VWidth: -360
Flags: W
HStem: 0 21G<79 291 464.5 699.5> 580 20G<79 291 465.5 662.5>
VStem: 50 270<2.43744 280 430 597.563> 435 290<2.2788 124>
LayerCount: 2
Fore
SplineSet
50 40 m 2
 50 560 l 2
 50 582 68 600 90 600 c 2
 280 600 l 2
 302 600 320 582 320 560 c 2
 320 430 l 1
 375 430 l 1
 425 560 l 2
 436 587 451 600 480 600 c 2
 650 600 l 2
 675 600 690 590 690 575 c 0
 690 571 688 565 685 560 c 2
 607 410 l 1
 656 382 669 327 680 280 c 1
 715 85 l 2
 716 78 725 40 725 30 c 0
 725 15 712 0 687 0 c 2
 479 0 l 2
 450 0 438 12 435 40 c 2
 420 190 l 2
 415 249 404 280 350 280 c 2
 320 280 l 1
 320 40 l 2
 320 18 302 0 280 0 c 2
 90 0 l 2
 68 0 50 18 50 40 c 2
EndSplineSet
Colour: ffff00
EndChar

StartChar: uni0E1E
Encoding: 3614 3614 34
Width: 1050
VWidth: 0
Flags: W
HStem: 0 21G<200 438.5 611.5 850> 580 20G<45 274.5 465.5 584.5 775.5 1005>
VStem: 15 290<505.867 597.23> 745 290<505.867 597.23>
AnchorPoint: "th-vow-below" 840 0 basechar 0
AnchorPoint: "th-vow-above" 900 660 basechar 0
LayerCount: 2
Fore
SplineSet
15 580 m 0
 15 595 30 600 60 600 c 2
 260 600 l 2
 289 600 300 587 305 560 c 2
 350 270 l 1
 355 230 l 1
 365 230 l 1
 370 270 l 1
 440 560 l 2
 445 584 451 600 480 600 c 2
 525 600 l 1
 570 600 l 2
 599 600 605 584 610 560 c 2
 680 270 l 1
 685 230 l 1
 695 230 l 1
 700 270 l 1
 745 560 l 2
 750 587 761 600 790 600 c 2
 990 600 l 2
 1020 600 1035 595 1035 580 c 0
 1035 575 1032 565 1030 560 c 2
 880 40 l 2
 874 19 865 0 835 0 c 2
 625 0 l 2
 598 0 588 16 580 40 c 1
 525 250 l 1
 470 40 l 1
 462 16 452 0 425 0 c 2
 215 0 l 2
 185 0 176 19 170 40 c 2
 20 560 l 2
 18 565 15 575 15 580 c 0
EndSplineSet
Colour: ffff00
EndChar

StartChar: uni0E1F
Encoding: 3615 3615 35
Width: 1040
VWidth: -360
Flags: W
HStem: 0 21G<200 438.5 611.5 860> 580 20G<45 274.5 465.5 584.5> 820 20G<795.5 1005>
VStem: 15 290<505.867 597.23>
AnchorPoint: "th-vow-above" 680 660 basechar 0
LayerCount: 2
Fore
SplineSet
15 580 m 0
 15 595 30 600 60 600 c 2
 260 600 l 2
 289 600 300 587 305 560 c 2
 350 270 l 1
 355 230 l 1
 365 230 l 1
 370 270 l 1
 440 560 l 2
 445 584 451 600 480 600 c 2
 525 600 l 1
 570 600 l 2
 599 600 605 584 610 560 c 2
 680 270 l 1
 685 230 l 1
 695 230 l 1
 700 270 l 1
 765 800 l 1
 770 827 781 840 810 840 c 2
 990 840 l 2
 1020 840 1035 835 1035 820 c 0
 1035 811 1031 795 1030 790 c 2
 890 40 l 2
 885 18 875 0 845 0 c 2
 625 0 l 2
 598 0 588 16 580 40 c 1
 525 250 l 1
 470 40 l 1
 462 16 452 0 425 0 c 2
 215 0 l 2
 185 0 176 19 170 40 c 2
 20 560 l 2
 18 565 15 575 15 580 c 0
EndSplineSet
Colour: ffff00
EndChar

StartChar: uni0E1D
Encoding: 3613 3613 36
Width: 930
VWidth: 0
Flags: W
HStem: 0 21G<189.5 353 587 841> 420 190<321.211 405.804> 820 20G<629 841>
VStem: 30 270<214.093 399.77> 600 270<213 837.563>
AnchorPoint: "th-vow-above" 580 660 basechar 0
LayerCount: 2
Fore
SplineSet
30 300 m 0
 30 471 132 610 310 610 c 0
 364 610 407 598 420 590 c 0
 429 585 435 576 435 562 c 0
 435 556 432 545 432 545 c 1
 406 440 l 2
 402 425 386 420 370 420 c 0
 327 420 300 380 300 300 c 0
 300 255 313 222 334 203 c 1
 400 310 l 2
 418 339 428 350 445 350 c 2
 470 350 l 1
 495 350 l 2
 512 350 522 339 540 310 c 2
 600 213 l 1
 600 800 l 2
 600 822 618 840 640 840 c 2
 830 840 l 2
 852 840 870 822 870 800 c 2
 870 40 l 2
 870 18 852 0 830 0 c 2
 600 0 l 2
 574 0 558 16 543 40 c 2
 470 150 l 1
 397 40 l 2
 382 16 366 0 340 0 c 2
 340 0 259 0 230 0 c 0
 149 0 30 130 30 300 c 0
EndSplineSet
Colour: ffff00
EndChar

StartChar: uni0E1C
Encoding: 3612 3612 37
Width: 920
VWidth: 0
Flags: W
HStem: 0 21G<189.5 353 587 841> 420 190<321.211 405.804> 580 20G<629 841>
VStem: 30 270<214.093 399.77> 600 270<213 597.563>
LayerCount: 2
Fore
SplineSet
30 300 m 0xb8
 30 471 132 610 310 610 c 0
 364 610 407 598 420 590 c 0
 429 585 435 576 435 562 c 0
 435 556 432 545 432 545 c 1
 406 440 l 2
 402 425 386 420 370 420 c 0xd8
 327 420 300 380 300 300 c 0
 300 255 313 222 334 203 c 1
 400 310 l 2
 418 339 428 350 445 350 c 2
 470 350 l 1
 495 350 l 2
 512 350 522 339 540 310 c 2
 600 213 l 1
 600 560 l 2
 600 582 618 600 640 600 c 2
 830 600 l 2
 852 600 870 582 870 560 c 2
 870 40 l 2
 870 18 852 0 830 0 c 2
 600 0 l 2
 574 0 558 16 543 40 c 2
 470 150 l 1
 397 40 l 2
 382 16 366 0 340 0 c 2
 340 0 259 0 230 0 c 0
 149 0 30 130 30 300 c 0xb8
EndSplineSet
Colour: ffff00
EndChar

StartChar: uni0E25
Encoding: 3621 3621 38
Width: 740
VWidth: 0
Flags: W
HStem: -10 140<304.719 372.967> 0 21G<459 671> 230 140<177 379.413> 440 180<157.64 403.596>
VStem: 30 270<135.717 221.004> 430 270<2.43744 222.762 311 414.524>
LayerCount: 2
Fore
SplineSet
30 180 m 0xbc
 30 288 104 370 250 370 c 0
 347 370 403 335 430 311 c 1
 430 360 l 2
 430 421 378 440 300 440 c 0
 251 440 191 427 160 415 c 0
 147 410 124 400 111 400 c 0
 96 400 91 418 86 430 c 2
 55 510 l 1
 55 510 50 522 50 535 c 0
 50 550 55 558 70 565 c 0
 82 570 194 620 370 620 c 0
 584 620 700 536 700 370 c 2
 700 40 l 2
 700 18 682 0 660 0 c 2
 470 0 l 2x7c
 448 0 430 18 430 40 c 2
 430 208 l 1
 412 222 392 230 360 230 c 0
 328 230 300 215 300 180 c 0
 300 142 328 130 350 130 c 0
 366 130 374 135 380 135 c 0
 386 135 390 132 390 120 c 2
 390 40 l 2
 390 25 375 16 360 10 c 0
 331 -1 294 -10 250 -10 c 0
 104 -10 30 72 30 180 c 0xbc
EndSplineSet
Colour: ffff00
EndChar

StartChar: uni0E2A
Encoding: 3626 3626 39
Width: 760
VWidth: 0
Flags: W
HStem: -10 140<304.719 372.967> 0 21G<459 671> 230 140<177 379.413> 440 180<157.64 406.675>
VStem: 30 270<135.717 221.004> 430 270<2.43744 222.762 311 415.586> 558 197<583.174 679.749>
LayerCount: 2
Fore
SplineSet
30 180 m 0xbc
 30 288 104 370 250 370 c 0
 347 370 403 335 430 311 c 1
 430 360 l 2xbc
 430 421 378 440 300 440 c 0
 251 440 191 427 160 415 c 0
 147 410 124 400 111 400 c 0
 96 400 91 418 86 430 c 2
 55 510 l 1
 55 510 50 522 50 535 c 0
 50 550 55 558 70 565 c 0
 82 570 194 620 370 620 c 0
 442 620 497 601 532 582 c 1
 550 607 558 635 558 650 c 0
 558 666 572 680 588 680 c 2
 725 680 l 2
 741 680 755 666 755 650 c 0xba
 755 589 717 529 651 487 c 1
 675 462 700 423 700 370 c 2
 700 40 l 2
 700 18 682 0 660 0 c 2
 470 0 l 2x7c
 448 0 430 18 430 40 c 2
 430 208 l 1
 412 222 392 230 360 230 c 0
 328 230 300 215 300 180 c 0
 300 142 328 130 350 130 c 0
 366 130 374 135 380 135 c 0
 386 135 390 132 390 120 c 2
 390 40 l 2
 390 25 375 16 360 10 c 0
 331 -1 294 -10 250 -10 c 0
 104 -10 30 72 30 180 c 0xbc
EndSplineSet
Substitution2: "TH Tail Swap" uni0E2A.swap
Substitution2: "'ss02' TH Tail swap" uni0E2A.swap
Colour: ffff00
EndChar

StartChar: uni0E2C
Encoding: 3628 3628 40
Width: 1040
VWidth: -360
Flags: W
HStem: 0 21G<200 438.5 611.5 850> 580 20G<45 274.5 465.5 584.5>
VStem: 15 290<505.867 597.23> 725 250<339.844 468.243> 858 197<629.619 709.367>
AnchorPoint: "th-vow-below" 840 0 basechar 0
LayerCount: 2
Fore
SplineSet
15 580 m 0xf0
 15 595 30 600 60 600 c 2
 260 600 l 2
 289 600 300 587 305 560 c 2
 350 270 l 1
 355 230 l 1
 365 230 l 1
 370 270 l 1
 440 560 l 2
 445 584 451 600 480 600 c 2
 525 600 l 1
 570 600 l 2
 599 600 605 584 610 560 c 2
 680 270 l 1
 685 230 l 1
 695 230 l 1
 700 270 l 1
 721 400 l 1
 721 400 725 429 725 445 c 0xf0
 725 469 716 484 708 490 c 1
 708 490 703 493 703 503 c 0
 703 508 710 530 710 530 c 1
 727 590 l 2
 730 598 733 600 744 600 c 0
 792 600 845 610 858 680 c 0
 861 694 871 710 890 710 c 2
 1025 710 l 2
 1041 710 1055 696 1055 680 c 0xe8
 1055 584 958 522 894 499 c 1
 940 487 975 454 975 400 c 0
 975 367 955 300 955 300 c 1
 880 40 l 2
 874 19 865 0 835 0 c 2
 625 0 l 2
 598 0 588 16 580 40 c 1
 525 250 l 1
 470 40 l 1
 462 16 452 0 425 0 c 2
 215 0 l 2
 185 0 176 19 170 40 c 2
 20 560 l 2
 18 565 15 575 15 580 c 0xf0
EndSplineSet
Substitution2: "TH Tail Swap" uni0E2C.swap
Substitution2: "'ss02' TH Tail swap" uni0E2C.swap
Colour: ffff00
EndChar

StartChar: uni0E22
Encoding: 3618 3618 41
Width: 775
VWidth: -360
Flags: W
HStem: -20 170<305.439 441.636> 260 120<299.735 389.749> 465 145<292.104 372.967> 580 20G<489 701>
VStem: 30 260<165.84 247.343 385.603 462.292> 460 270<164.914 597.563>
LayerCount: 2
Fore
SplineSet
30 190 m 0xdc
 30 250 57 289 100 314 c 1
 56 340 30 379 30 430 c 0
 30 524 102 610 250 610 c 0
 294 610 331 601 360 590 c 0
 375 584 390 575 390 560 c 2
 390 480 l 2
 390 468 386 465 380 465 c 0xec
 374 465 366 470 350 470 c 0
 328 470 290 465 290 425 c 0
 290 390 318 380 350 380 c 2
 360 380 l 2
 376 380 390 366 390 350 c 2
 390 290 l 2
 390 274 376 261 360 260 c 0
 319 257 290 238 290 205 c 0
 290 172 332 150 380 150 c 0
 424 150 460 172 460 220 c 2
 460 560 l 2
 460 582 478 600 500 600 c 2
 690 600 l 2
 712 600 730 582 730 560 c 2
 730 230 l 2
 730 64 594 -20 380 -20 c 0
 146 -20 30 86 30 190 c 0xdc
EndSplineSet
Colour: ffff00
EndChar

StartChar: uni0E10
Encoding: 3600 3600 42
Width: 740
VWidth: 0
Flags: W
HStem: -250 140<94.3691 272.055> -240 180<470.251 649.749> -10 350<186.623 298.12> 440 180<132.254 364.774> 510 168<601.336 719.749>
VStem: 410 270<201.162 395.512> 470 180<-146 -60.2506>
AnchorPoint: "th-vow-above" 600 660 basechar 0
LayerCount: 2
Fore
SplineSet
30 535 m 0x2c
 30 550 35 558 50 565 c 0
 62 570 164 620 340 620 c 0x34
 396 620 438 608 467 595 c 1
 525 633 614 678 690 678 c 0
 706 678 720 664 720 648 c 2
 720 540 l 2
 720 524 706 510 690 510 c 0x2c
 653 510 623 506 599 499 c 1
 635 463 680 398 680 320 c 0
 680 149 555 -10 370 -10 c 0
 289 -10 267 -7 218 -3 c 0
 193 -1 178 27 173 40 c 2
 110 190 l 1
 80 190 l 2
 64 190 50 204 50 220 c 2
 50 310 l 2
 50 326 64 340 80 340 c 2
 240 340 l 2
 282 340 299 320 310 290 c 2
 353 168 l 1
 386 186 410 233 410 310 c 0
 410 395 360 440 270 440 c 0x34
 214 440 162 427 140 420 c 0
 127 416 104 405 91 405 c 0
 76 405 71 423 66 435 c 2
 35 510 l 1
 35 510 30 522 30 535 c 0x2c
35 -190 m 0
 35 -181 40 -173 43 -167 c 2
 82 -101 l 2
 88 -90 95 -80 105 -80 c 0
 114 -80 123 -89 125 -90 c 0
 130 -93 156 -110 185 -110 c 0xa2
 249 -110 280 -79 290 -70 c 0
 296 -65 302 -60 310 -60 c 2
 365 -60 l 2
 374 -60 378 -63 385 -70 c 2
 470 -146 l 1
 470 -90 l 2
 470 -74 484 -60 500 -60 c 2
 620 -60 l 2
 636 -60 650 -74 650 -90 c 2
 650 -210 l 2
 650 -226 636 -240 620 -240 c 2
 500 -240 l 1
 470 -240 l 1
 440 -240 l 2x62
 429 -240 425 -239 415 -230 c 2
 359 -181 l 1
 307 -226 244 -250 180 -250 c 0xa2
 108 -250 62 -219 50 -210 c 0
 42 -204 35 -199 35 -190 c 0
EndSplineSet
Substitution2: "TH Descless" uni0E10.descless
Substitution2: "'locl' Localized Thai-Sanskrit" uni0E10.descless
Colour: ffff00
EndChar

StartChar: uni0E23
Encoding: 3619 3619 43
Width: 630
VWidth: 0
Flags: W
HStem: -20 155<153.475 318.755> 417 155<479.943 546.406> 465 155<311.707 472.17>
VStem: 30 280<355.397 460.952> 320 270<138.759 241.071>
AnchorPoint: "th-vow-above" 570 660 basechar 0
LayerCount: 2
Fore
SplineSet
30 409 m 0xb8
 30 555 174 620 320 620 c 0xb8
 442 620 536 580 555 572 c 0
 574 564 585 553 585 535 c 0
 585 523 579 509 575 500 c 2
 545 440 l 2
 540 428 535 417 520 417 c 0xd8
 506 417 487 433 465 442 c 0
 437 454 396 465 365 465 c 0
 332 465 310 457 310 435 c 0
 310 416 330 406 360 395 c 0
 384 386 422 372 450 360 c 0
 508 335 590 288 590 190 c 0
 590 63 477 -20 310 -20 c 0
 177 -20 104 17 85 25 c 0
 65 33 50 45 50 60 c 0
 50 70 55 81 60 90 c 2
 90 155 l 2
 95 167 104 175 115 175 c 0
 126 175 140 167 155 160 c 0
 188 145 223 135 260 135 c 0
 296 135 320 143 320 165 c 0
 320 184 296 194 270 205 c 0
 248 214 207 230 180 240 c 0
 119 263 30 306 30 409 c 0xb8
EndSplineSet
Colour: ffff00
EndChar

StartChar: uni0E18
Encoding: 3608 3608 44
Width: 720
VWidth: -360
Flags: W
HStem: -20 150<302.664 424.766> 425 150<524.297 614.899> 470 150<321.837 528.82>
VStem: 40 280<378.5 468.199>
LayerCount: 2
Fore
SplineSet
40 420 m 0xb0
 40 540 164 620 340 620 c 0xb0
 504 620 601 579 610 575 c 0
 637 564 650 553 650 535 c 0
 650 523 644 509 640 500 c 2
 615 450 l 2
 610 438 600 425 585 425 c 0xd0
 571 425 553 436 525 445 c 0
 487 457 429 470 370 470 c 0
 346 470 320 466 320 450 c 0
 320 428 342 426 360 420 c 0
 386 411 509 379 540 370 c 0
 624 344 690 293 690 180 c 0
 690 55 559 -20 390 -20 c 0
 221 -20 60 30 60 70 c 2
 60 210 l 2
 60 232 78 250 100 250 c 2
 241 250 l 1
 213 257 187 265 170 270 c 0
 87 296 40 337 40 420 c 0xb0
300 133 m 1
 321 131 340 130 355 130 c 0
 401 130 430 141 430 165 c 0
 430 199 394 212 360 220 c 0
 349 223 327 228 300 235 c 1
 300 133 l 1
EndSplineSet
Colour: ffff00
EndChar

StartChar: uni0E0E
Encoding: 3598 3598 45
Width: 775
VWidth: 0
Flags: W
HStem: -190 140<122.199 391.493> 0 21G<62 290> 440 180<328.076 448.219>
VStem: 100 260<150 397.839> 460 270<-104 428.402>
LayerCount: 2
Fore
SplineSet
20 505 m 0
 20 517 27 527 40 535 c 1
 40 535 192 620 380 620 c 0
 594 620 730 536 730 370 c 2
 730 -200 l 2
 730 -222 712 -240 690 -240 c 2
 490 -240 l 1
 490 -240 381 -190 240 -190 c 0
 173 -190 125 -214 113 -220 c 0
 110 -222 96 -230 90 -230 c 0
 80 -230 73 -225 70 -215 c 2
 45 -135 l 2
 43 -129 40 -120 40 -114 c 0
 40 -103 49 -96 60 -90 c 0
 72 -83 123 -50 230 -50 c 0
 332 -50 410 -79 460 -104 c 1
 460 370 l 2
 460 418 438 440 380 440 c 0
 366 440 348 439 327 437 c 1
 346 420 360 395 360 360 c 2
 360 90 l 2
 360 42 330 0 250 0 c 2
 70 0 l 2
 54 0 40 14 40 30 c 2
 40 120 l 2
 40 136 54 150 70 150 c 2
 100 150 l 1
 100 370 l 2
 100 391 95 399 87 399 c 1
 81 398 69 395 65 395 c 0
 54 395 49 403 45 415 c 2
 25 480 l 1
 25 480 20 497 20 505 c 0
EndSplineSet
Colour: ffff00
EndChar

StartChar: uni0E0F
Encoding: 3599 3599 46
Width: 775
VWidth: 0
Flags: W
HStem: -250 140<104.369 282.055> 0 21G<62 290> 440 180<328.076 448.219>
VStem: 100 260<150 397.839> 460 270<-128 428.402>
LayerCount: 2
Fore
SplineSet
20 505 m 0
 20 517 27 527 40 535 c 1
 40 535 192 620 380 620 c 0
 594 620 730 536 730 370 c 2
 730 -200 l 2
 730 -222 712 -240 690 -240 c 2
 510 -240 l 1
 450 -240 l 2
 439 -240 435 -239 425 -230 c 2
 369 -181 l 1
 317 -226 254 -250 190 -250 c 0
 118 -250 72 -219 60 -210 c 0
 52 -204 45 -199 45 -190 c 0
 45 -181 50 -173 53 -167 c 2
 92 -101 l 2
 98 -90 105 -80 115 -80 c 0
 124 -80 133 -89 135 -90 c 0
 140 -93 166 -110 195 -110 c 0
 259 -110 290 -79 300 -70 c 0
 306 -65 312 -60 320 -60 c 2
 375 -60 l 2
 384 -60 388 -63 395 -70 c 2
 460 -128 l 1
 460 370 l 2
 460 418 438 440 380 440 c 0
 366 440 348 439 327 437 c 1
 346 420 360 395 360 360 c 2
 360 90 l 2
 360 42 330 0 250 0 c 2
 70 0 l 2
 54 0 40 14 40 30 c 2
 40 120 l 2
 40 136 54 150 70 150 c 2
 100 150 l 1
 100 370 l 2
 100 391 95 399 87 399 c 1
 81 398 69 395 65 395 c 0
 54 395 49 403 45 415 c 2
 25 480 l 1
 25 480 20 497 20 505 c 0
EndSplineSet
Colour: ffff00
EndChar

StartChar: uni0E31
Encoding: 3633 3633 47
Width: 0
VWidth: 0
Flags: W
HStem: 690 150<-305 -30.2506>
AnchorPoint: "th-mkmk" 0 0 basemark 0
AnchorPoint: "th-vow-above" -70 660 mark 0
LayerCount: 2
Fore
SplineSet
-510 780 m 0
 -510 821 -489 870 -489 870 c 1
 -483 886 -469 900 -449 900 c 2
 -315 900 l 2
 -299 900 -289 887 -295 870 c 2
 -305 840 l 1
 -60 840 l 2
 -44 840 -30 826 -30 810 c 2
 -30 720 l 2
 -30 704 -44 690 -60 690 c 2
 -400 690 l 2
 -461 690 -510 722 -510 780 c 0
EndSplineSet
Substitution2: "TH Vowel to Left" uni0E31.left
Colour: ffff00
EndChar

StartChar: uni0E34
Encoding: 3636 3636 48
Width: 0
VWidth: 0
Flags: W
HStem: 690 150<-589.749 -90.2506>
AnchorPoint: "th-mkmk" 0 0 basemark 0
AnchorPoint: "th-vow-above" -70 660 mark 0
LayerCount: 2
Fore
SplineSet
-590 720 m 2
 -590 810 l 2
 -590 826 -576 840 -560 840 c 2
 -120 840 l 2
 -104 840 -90 826 -90 810 c 2
 -90 720 l 2
 -90 704 -104 690 -120 690 c 2
 -560 690 l 2
 -576 690 -590 704 -590 720 c 2
EndSplineSet
Substitution2: "TH Vowel to Left" uni0E34.left
Colour: ffff00
EndChar

StartChar: uni0E35
Encoding: 3637 3637 49
Width: 0
VWidth: 0
Flags: W
HStem: 690 230<-289.749 -90.2506> 690 150<-599.749 -302.419>
VStem: -290 200<800 919.749>
AnchorPoint: "th-mkmk" 0 0 basemark 0
AnchorPoint: "th-vow-above" -70 660 mark 0
LayerCount: 2
Fore
SplineSet
-600 720 m 2x60
 -600 810 l 2
 -600 826 -586 840 -570 840 c 2
 -370 840 l 2x60
 -314 840 -290 800 -290 800 c 1
 -290 890 l 2
 -290 906 -276 920 -260 920 c 2
 -120 920 l 2
 -104 920 -90 906 -90 890 c 2
 -90 720 l 2
 -90 704 -104 690 -120 690 c 2xa0
 -570 690 l 2
 -586 690 -600 704 -600 720 c 2x60
EndSplineSet
Substitution2: "TH Vowel to Left" uni0E35.left
Colour: ffff00
EndChar

StartChar: uni0E36
Encoding: 3638 3638 50
Width: 0
VWidth: 0
Flags: W
HStem: 690 150<-609.749 -361.6> 690 80<-247.988 -172.115> 850 80<-247.936 -172.064>
VStem: -350 100<798.443 847.911> -170 100<772.089 847.911>
AnchorPoint: "th-mkmk" 0 0 basemark 0
AnchorPoint: "th-vow-above" -70 660 mark 0
LayerCount: 2
Fore
SplineSet
-610 720 m 2xb8
 -610 810 l 2
 -610 826 -596 840 -580 840 c 2
 -410 840 l 2xb8
 -384 840 -363 819 -349 798 c 1
 -350 802 -350 806 -350 810 c 0
 -350 882 -296 930 -210 930 c 0
 -124 930 -70 882 -70 810 c 0
 -70 738 -124 690 -210 690 c 2x78
 -580 690 l 2
 -596 690 -610 704 -610 720 c 2xb8
-250 810 m 0
 -250 784 -233 770 -210 770 c 0x78
 -187 770 -170 784 -170 810 c 0
 -170 836 -187 850 -210 850 c 0
 -233 850 -250 836 -250 810 c 0
EndSplineSet
Substitution2: "TH Vowel to Left" uni0E36.left
Colour: ffff00
EndChar

StartChar: uni0E37
Encoding: 3639 3639 51
Width: 0
VWidth: 0
Flags: W
HStem: 690 230<-429.749 -280.251 -229.749 -80.2506> 690 150<-609.749 -440.279> 690 100<-280 -230>
VStem: -430 150<800 919.749> -230 150<790 919.749>
AnchorPoint: "th-mkmk" 0 0 basemark 0
AnchorPoint: "th-vow-above" -70 660 mark 0
LayerCount: 2
Fore
SplineSet
-610 720 m 2x58
 -610 810 l 2
 -610 826 -596 840 -580 840 c 2
 -500 840 l 2x58
 -449 840 -430 800 -430 800 c 1
 -430 890 l 2
 -430 906 -416 920 -400 920 c 2
 -310 920 l 2x98
 -294 920 -280 906 -280 890 c 2
 -280 790 l 1
 -230 790 l 1x38
 -230 890 l 2
 -230 906 -216 920 -200 920 c 2
 -110 920 l 2
 -94 920 -80 906 -80 890 c 2
 -80 720 l 2
 -80 704 -94 690 -110 690 c 2x98
 -580 690 l 2
 -596 690 -610 704 -610 720 c 2x58
EndSplineSet
Substitution2: "TH Vowel to Left" uni0E37.left
Colour: ffff00
EndChar

StartChar: uni0E4D
Encoding: 3661 3661 52
Width: 0
VWidth: 0
Flags: W
HStem: 670 90<-251.354 -178.646> 850 90<-251.354 -178.646>
VStem: -390 135<762.68 847.32> -175 135<762.68 847.32>
LayerCount: 2
Fore
SplineSet
-390 805 m 0
 -390 884 -329 940 -215 940 c 0
 -101 940 -40 884 -40 805 c 0
 -40 726 -101 670 -215 670 c 0
 -329 670 -390 726 -390 805 c 0
-255 805 m 0
 -255 775 -237 760 -215 760 c 0
 -193 760 -175 775 -175 805 c 0
 -175 835 -193 850 -215 850 c 0
 -237 850 -255 835 -255 805 c 0
EndSplineSet
Substitution2: "TH Nikhahit High-Left" uni0E4D.high.left
Substitution2: "TH Vowel to Left" uni0E4D.low.left
Substitution2: "TH Tone High to High-Left" uni0E4D.high.left
Substitution2: "TH Nikhahit High" uni0E4D.high
Colour: ffff00
EndChar

StartChar: uni0E32
Encoding: 3634 3634 53
Width: 540
VWidth: 0
Flags: W
HStem: 0 21G<239 461> 410 200<85.5606 333>
VStem: 210 280<2.43744 400.887>
LayerCount: 2
Fore
SplineSet
5 530 m 0
 5 542 12 549 30 560 c 1
 30 560 115 610 250 610 c 0
 416 610 490 532 490 380 c 2
 490 40 l 2
 490 18 472 0 450 0 c 2
 250 0 l 2
 228 0 210 18 210 40 c 2
 210 360 l 2
 210 398 196 410 160 410 c 0
 134 410 111 404 90 395 c 0
 81 391 71 385 60 385 c 0
 49 385 44 393 40 405 c 2
 10 505 l 1
 10 505 5 522 5 530 c 0
EndSplineSet
Colour: ffff00
EndChar

StartChar: uni0E38
Encoding: 3640 3640 54
Width: 0
VWidth: 0
Flags: W
HStem: -280 220<-279.749 -89> -180 120<-329.749 -280>
VStem: -330 250<-179.749 -69>
AnchorPoint: "th-vow-below" -70 0 mark 0
LayerCount: 2
Fore
SplineSet
-330 -90 m 2x60
 -330 -74 -316 -60 -300 -60 c 2x60
 -140 -60 l 2
 -104 -60 -80 -84 -80 -120 c 2
 -80 -250 l 2
 -80 -266 -94 -280 -110 -280 c 2
 -250 -280 l 2xa0
 -266 -280 -280 -266 -280 -250 c 2
 -280 -180 l 1
 -300 -180 l 2
 -316 -180 -330 -166 -330 -150 c 2
 -330 -90 l 2x60
EndSplineSet
Substitution2: "TH Vow Lower" uni0E38.low
Colour: ffff00
EndChar

StartChar: uni0E3A
Encoding: 3642 3642 55
Width: 0
VWidth: 0
Flags: W
HStem: -220 160<-279.749 -80.2506>
VStem: -280 200<-219.749 -60.2506>
AnchorPoint: "th-vow-below" -70 0 mark 0
LayerCount: 2
Fore
SplineSet
-280 -90 m 2
 -280 -74 -266 -60 -250 -60 c 2
 -110 -60 l 2
 -94 -60 -80 -74 -80 -90 c 2
 -80 -190 l 2
 -80 -206 -94 -220 -110 -220 c 2
 -250 -220 l 2
 -266 -220 -280 -206 -280 -190 c 2
 -280 -90 l 2
EndSplineSet
Substitution2: "TH Vow Lower" uni0E3A.low
Colour: ffff00
EndChar

StartChar: uni0E39
Encoding: 3641 3641 56
Width: 0
VWidth: 0
Flags: W
HStem: -280 90<-320 -250> -180 120<-549.749 -500>
VStem: -250 180<-190 -60.2506>
AnchorPoint: "th-vow-below" -170 0 mark 0
LayerCount: 2
Fore
SplineSet
-550 -90 m 2
 -550 -74 -536 -60 -520 -60 c 2
 -380 -60 l 2
 -344 -60 -320 -84 -320 -120 c 2
 -320 -190 l 1
 -250 -190 l 1
 -250 -90 l 2
 -250 -74 -236 -60 -220 -60 c 2
 -100 -60 l 2
 -84 -60 -70 -74 -70 -90 c 2
 -70 -220 l 2
 -70 -255 -100 -280 -160 -280 c 2
 -410 -280 l 2
 -470 -280 -500 -255 -500 -220 c 2
 -500 -180 l 1
 -520 -180 l 2
 -536 -180 -550 -166 -550 -150 c 2
 -550 -90 l 2
EndSplineSet
Substitution2: "TH Vow Lower" uni0E39.low
Colour: ffff00
EndChar

StartChar: uni0E49
Encoding: 3657 3657 57
Width: 0
VWidth: 0
Flags: W
HStem: 960 110<-195 -30.2506> 1080 90<-380 -320>
VStem: -390 360<962.209 1044.44>
AnchorPoint: "th-mkmk" 0 0 mark 0
LayerCount: 2
Fore
SplineSet
-390 1000 m 0
 -390 1017 -383 1029 -370 1040 c 2
 -320 1080 l 1
 -360 1080 l 2
 -371 1080 -380 1089 -380 1100 c 2
 -380 1150 l 2
 -380 1161 -371 1170 -360 1170 c 2
 -180 1170 l 2
 -154 1170 -140 1153 -140 1135 c 0
 -140 1121 -145 1113 -155 1105 c 2
 -195 1070 l 1
 -60 1070 l 2
 -44 1070 -30 1056 -30 1040 c 2
 -30 990 l 2
 -30 974 -44 960 -60 960 c 2
 -350 960 l 2
 -375 960 -390 979 -390 1000 c 0
EndSplineSet
Substitution2: "TH Tone High to High-Left" uni0E49.high.left
Substitution2: "TH Tone High to Low-Left" uni0E49.low.left
Substitution2: "TH Tone High to Low" uni0E49.low
Colour: ffff00
EndChar

StartChar: uni0E48
Encoding: 3656 3656 58
Width: 0
VWidth: 0
Flags: W
HStem: 960 210<-279.749 -100.251>
VStem: -280 180<960.251 1169.75>
AnchorPoint: "th-mkmk" 0 0 mark 0
LayerCount: 2
Fore
SplineSet
-280 990 m 2
 -280 1140 l 2
 -280 1156 -266 1170 -250 1170 c 2
 -130 1170 l 2
 -114 1170 -100 1156 -100 1140 c 2
 -100 990 l 2
 -100 974 -114 960 -130 960 c 2
 -250 960 l 2
 -266 960 -280 974 -280 990 c 2
EndSplineSet
Substitution2: "TH Tone High to High-Left" uni0E48.high.left
Substitution2: "TH Tone High to Low-Left" uni0E48.low.left
Substitution2: "TH Tone High to Low" uni0E48.low
Colour: ffff00
EndChar

StartChar: uni0E4B
Encoding: 3659 3659 59
Width: 0
VWidth: 0
Flags: W
HStem: 960 210<-269.749 -110.251> 1020 90<-350 -270 -110 -30>
VStem: -270 160<960.251 1020 1110 1169.75>
AnchorPoint: "th-mkmk" 0 0 mark 0
LayerCount: 2
Fore
SplineSet
-350 1040 m 2x60
 -350 1090 l 2
 -350 1101 -341 1110 -330 1110 c 2
 -270 1110 l 1x60
 -270 1140 l 2
 -270 1156 -256 1170 -240 1170 c 2
 -140 1170 l 2xa0
 -124 1170 -110 1156 -110 1140 c 2
 -110 1110 l 1
 -50 1110 l 2
 -39 1110 -30 1101 -30 1090 c 2
 -30 1040 l 2
 -30 1029 -39 1020 -50 1020 c 2
 -110 1020 l 1x60
 -110 990 l 2
 -110 974 -124 960 -140 960 c 2
 -240 960 l 2xa0
 -256 960 -270 974 -270 990 c 2
 -270 1020 l 1
 -330 1020 l 2
 -341 1020 -350 1029 -350 1040 c 2x60
EndSplineSet
Substitution2: "TH Tone High to High-Left" uni0E4B.high.left
Substitution2: "TH Tone High to Low-Left" uni0E4B.low.left
Substitution2: "TH Tone High to Low" uni0E4B.low
Colour: ffff00
EndChar

StartChar: uni0E40
Encoding: 3648 3648 60
Width: 390
VWidth: 0
Flags: W
HStem: -10 610<94.2812 327.452>
VStem: 60 270<22.8515 597.563>
LayerCount: 2
Fore
SplineSet
60 100 m 2
 60 560 l 2
 60 582 78 600 100 600 c 2
 290 600 l 2
 312 600 330 582 330 560 c 2
 330 20 l 2
 330 7 326 2 315 0 c 1
 315 0 257 -10 200 -10 c 0
 88 -10 60 36 60 100 c 2
EndSplineSet
Colour: ffff00
EndChar

StartChar: uni0E41
Encoding: 3649 3649 61
Width: 750
VWidth: 0
Flags: W
HStem: -10 610<94.2812 327.452 454.281 687.452>
VStem: 60 270<22.8515 597.563> 420 270<22.8515 597.563>
LayerCount: 2
Fore
SplineSet
60 100 m 2
 60 560 l 2
 60 582 78 600 100 600 c 2
 290 600 l 2
 312 600 330 582 330 560 c 2
 330 20 l 2
 330 7 326 2 315 0 c 1
 315 0 257 -10 200 -10 c 0
 88 -10 60 36 60 100 c 2
420 100 m 2
 420 560 l 2
 420 582 438 600 460 600 c 2
 650 600 l 2
 672 600 690 582 690 560 c 2
 690 20 l 2
 690 7 686 2 675 0 c 1
 675 0 617 -10 560 -10 c 0
 448 -10 420 36 420 100 c 2
EndSplineSet
Colour: ffff00
EndChar

StartChar: uni0E2F
Encoding: 3631 3631 62
Width: 700
VWidth: 0
Flags: W
HStem: 0 21G<389 611> 290 170<148.5 316.845> 580 20G<49 201 409 611>
VStem: 20 210<470.615 597.563> 360 280<2.43744 349> 380 260<491.494 597.563>
LayerCount: 2
Fore
SplineSet
20 490 m 1xf8
 20 560 l 2
 20 582 38 600 60 600 c 2
 190 600 l 2
 212 600 230 582 230 560 c 2
 230 540 l 2
 230 479 259 460 290 460 c 0
 329 460 362 490 380 535 c 1
 380 560 l 2
 380 582 398 600 420 600 c 2
 600 600 l 2
 622 600 640 582 640 560 c 2xf4
 640 40 l 2
 640 18 622 0 600 0 c 2
 400 0 l 2
 378 0 360 18 360 40 c 2
 360 349 l 1
 329 317 280 290 210 290 c 0
 87 290 21 386 20 490 c 1xf8
EndSplineSet
Colour: ffff00
EndChar

StartChar: uni0E30
Encoding: 3632 3632 63
Width: 520
VWidth: 0
Flags: W
HStem: 40 170<270 479.749> 350 170<270 479.749>
LayerCount: 2
Fore
SplineSet
40 140 m 0
 40 183 61 230 61 230 c 1
 67 246 81 260 101 260 c 2
 258 260 l 2
 274 260 284 247 278 230 c 2
 270 210 l 1
 450 210 l 2
 466 210 480 196 480 180 c 2
 480 70 l 2
 480 54 466 40 450 40 c 2
 150 40 l 2
 90 40 40 82 40 140 c 0
40 450 m 0
 40 493 61 540 61 540 c 1
 67 556 81 570 101 570 c 2
 258 570 l 2
 274 570 284 557 278 540 c 2
 270 520 l 1
 450 520 l 2
 466 520 480 506 480 490 c 2
 480 380 l 2
 480 364 466 350 450 350 c 2
 150 350 l 2
 90 350 40 392 40 450 c 0
EndSplineSet
Colour: ffff00
EndChar

StartChar: uni0E4A
Encoding: 3658 3658 64
Width: 0
VWidth: 0
Flags: W
HStem: 960 210<-229.749 -80.2506> 960 90<-80 0> 1070 110<-365.5 -268.42>
VStem: -450 155<982.877 1069.76> -230 230<960.314 1049.13> -230 150<1050 1063.24 1108 1169.75>
AnchorPoint: "th-mkmk" 0 0 mark 0
LayerCount: 2
Fore
SplineSet
-450 1030 m 0x78
 -450 1119 -401 1180 -330 1180 c 0x78
 -287 1180 -255 1146 -230 1108 c 1
 -230 1140 l 2
 -230 1156 -216 1170 -200 1170 c 2
 -110 1170 l 2x94
 -94 1170 -80 1156 -80 1140 c 2
 -80 1050 l 1x54
 -20 1050 l 2
 -9 1050 0 1041 0 1030 c 2
 0 980 l 2
 0 969 -9 960 -20 960 c 2x58
 -200 960 l 2x98
 -216 960 -230 974 -230 990 c 2
 -230 1026 l 1
 -244 1051 -257 1070 -270 1070 c 0
 -290 1070 -295 1036 -295 1020 c 0
 -295 1010 -294 998 -291 990 c 0
 -289 985 -287 979 -287 975 c 0
 -287 965 -300 960 -311 960 c 2
 -415 960 l 2
 -431 960 -444 974 -447 990 c 0
 -449 1002 -450 1017 -450 1030 c 0x78
EndSplineSet
Substitution2: "TH Tone High to High-Left" uni0E4A.high.left
Substitution2: "TH Tone High to Low-Left" uni0E4A.low.left
Substitution2: "TH Tone High to Low" uni0E4A.low
Colour: ffff00
EndChar

StartChar: uni0E47
Encoding: 3655 3655 65
Width: 0
VWidth: 0
Flags: W
HStem: 670 115<-391.593 -299.698> 680 140<-250.32 -137.68> 865 115<-390.487 -100.251>
VStem: -560 165<790.176 859.824>
AnchorPoint: "th-vow-above" -70 660 mark 0
LayerCount: 2
Fore
SplineSet
-560 825 m 0xb0
 -560 907 -503 980 -385 980 c 2
 -130 980 l 2
 -114 980 -100 966 -100 950 c 2
 -100 895 l 2
 -100 879 -114 865 -130 865 c 2
 -345 865 l 2
 -372 865 -395 852 -395 825 c 0
 -395 798 -372 785 -345 785 c 0xb0
 -321 785 -308 794 -301 805 c 0
 -296 813 -291 820 -280 820 c 2
 -168 820 l 2
 -152 820 -143 806 -136 790 c 2
 -101 710 l 1
 -101 710 -95 699 -95 695 c 0
 -95 685 -107 680 -118 680 c 2
 -220 680 l 2x70
 -236 680 -245 694 -252 710 c 1
 -263 742 l 1
 -280 706 -315 670 -385 670 c 0
 -503 670 -560 743 -560 825 c 0xb0
EndSplineSet
Substitution2: "TH Vowel to Left" uni0E47.left
Colour: ffff00
EndChar

StartChar: uni0E4C
Encoding: 3660 3660 66
Width: 0
VWidth: 0
Flags: W
HStem: 990 120<-195 -60.2506>
AnchorPoint: "th-mkmk" 0 0 mark 0
LayerCount: 2
Fore
SplineSet
-360 1030 m 0
 -360 1088 -321 1110 -260 1110 c 2
 -90 1110 l 2
 -74 1110 -60 1096 -60 1080 c 2
 -60 1020 l 2
 -60 1004 -74 990 -90 990 c 2
 -195 990 l 1
 -180 960 l 1
 -180 960 -173 949 -173 945 c 0
 -173 935 -186 930 -197 930 c 2
 -301 930 l 2
 -317 930 -329 944 -338 960 c 0
 -344 971 -360 993 -360 1030 c 0
EndSplineSet
Substitution2: "TH Tone High to High-Left" uni0E4C.high.left
Substitution2: "TH Tone High to Low-Left" uni0E4C.low.left
Substitution2: "TH Tone High to Low" uni0E4C.low
Colour: ffff00
EndChar

StartChar: uni0E43
Encoding: 3651 3651 67
Width: 440
VWidth: 0
Flags: W
HStem: 780 150<144.233 238.07>
VStem: 90 270<22.8515 586.538> 240 200<695.844 778.09>
LayerCount: 2
Fore
SplineSet
-10 777 m 0xa0
 -10 785 -8 793 -6 800 c 0
 16 863 95 930 220 930 c 0
 348 930 440 856 440 760 c 0xa0
 440 646 360 628 360 510 c 2
 360 20 l 2
 360 7 356 2 345 0 c 1
 345 0 287 -10 230 -10 c 0
 118 -10 90 36 90 100 c 2
 90 510 l 2xc0
 90 615 240 690 240 740 c 0
 240 765 227 780 200 780 c 0
 165 780 131 748 116 717 c 0
 113 711 108 705 100 705 c 0
 93 705 76 715 70 718 c 2
 5 755 l 2
 -3 759 -10 766 -10 777 c 0xa0
EndSplineSet
Colour: ffff00
EndChar

StartChar: uni0E44
Encoding: 3652 3652 68
Width: 440
VWidth: 0
Flags: W
HStem: 780 150<198.891 351.5>
VStem: 90 270<22.8515 586.614> 260 200<711.819 822>
LayerCount: 2
Fore
SplineSet
0 785 m 2xa0
 0 900 l 2
 0 908 3 914 12 915 c 0
 16 915 23 912 30 907 c 2
 129 842 l 1
 153 876 212 930 300 930 c 0
 403 930 460 864 460 780 c 0xa0
 460 677 360 628 360 510 c 2
 360 20 l 2
 360 7 356 2 345 0 c 1
 345 0 287 -10 230 -10 c 0
 118 -10 90 36 90 100 c 2
 90 510 l 2xc0
 90 629 260 704 260 750 c 0
 260 767 251 780 230 780 c 0
 196 780 164 748 143 720 c 0
 139 714 134 700 122 700 c 0
 116 700 100 710 100 710 c 1
 15 760 l 2
 7 765 0 773 0 785 c 2xa0
EndSplineSet
Colour: ffff00
EndChar

StartChar: uni0E42
Encoding: 3650 3650 69
Width: 440
VWidth: 0
Flags: W
HStem: 780 150<145.5 352.745>
VStem: 90 270<22.8515 606.759>
LayerCount: 2
Fore
SplineSet
0 760 m 0
 0 856 81 930 210 930 c 0
 339 930 427 877 440 870 c 0
 454 862 460 850 460 837 c 0
 460 828 454 820 454 820 c 1
 413 752 l 2
 406 741 403 735 395 735 c 0
 388 735 375 742 366 747 c 0
 356 753 302 780 270 780 c 0
 236 780 220 773 220 750 c 0
 220 704 360 676 360 560 c 2
 360 20 l 2
 360 7 356 2 345 0 c 1
 345 0 287 -10 230 -10 c 0
 118 -10 90 36 90 100 c 2
 90 510 l 2
 90 628 0 657 0 760 c 0
EndSplineSet
Colour: ffff00
EndChar

StartChar: uni0E45
Encoding: 3653 3653 70
Width: 540
VWidth: 0
Flags: W
HStem: 410 200<85.5606 333>
VStem: 210 280<-237.563 400.887>
LayerCount: 2
Fore
SplineSet
5 530 m 0
 5 542 12 549 30 560 c 1
 30 560 115 610 250 610 c 0
 416 610 490 532 490 380 c 2
 490 -200 l 2
 490 -222 472 -240 450 -240 c 2
 250 -240 l 2
 228 -240 210 -222 210 -200 c 2
 210 360 l 2
 210 398 196 410 160 410 c 0
 134 410 111 404 90 395 c 0
 81 391 71 385 60 385 c 0
 49 385 44 393 40 405 c 2
 10 505 l 1
 10 505 5 522 5 530 c 0
EndSplineSet
Colour: ffff00
EndChar

StartChar: uni0E46
Encoding: 3654 3654 71
Width: 600
VWidth: 0
Flags: W
HStem: -250 173<166.575 252.494> 430 180<241.419 411>
VStem: 270 270<-57.495 377.806> 290 250<-37.7493 428.205>
LayerCount: 2
Fore
SplineSet
30 435 m 2xd0
 30 580 l 2
 30 588 33 594 42 595 c 0
 46 595 53 592 60 587 c 2
 159 516 l 1
 178 544 243 610 355 610 c 0
 467 610 540 529 540 440 c 2xd0
 540 -40 l 2
 540 -232 320 -250 195 -250 c 0
 173 -250 168 -241 166 -220 c 2
 155 -105 l 1
 155 -87 166 -81 185 -77 c 0
 205 -73 270 -69 270 -10 c 2
 270 240 l 2xe0
 270 298 290 333 290 380 c 0
 290 409 280 430 250 430 c 0
 218 430 191 394 173 366 c 0
 169 360 164 345 152 345 c 0
 146 345 130 355 130 355 c 1
 45 410 l 2
 37 415 30 423 30 435 c 2xd0
EndSplineSet
Colour: ffff00
EndChar

StartChar: uni0E0D.descless
Encoding: 60941 60941 72
Width: 1150
VWidth: -360
Flags: W
HStem: -20 180<736.847 823.153> 0 21G<160 388> 440 180<319.463 448.219> 580 20G<859 1071>
VStem: 90 260<150 396.062> 460 270<169.293 428.402> 830 270<169.293 597.563>
LayerCount: 2
Fore
SplineSet
20 505 m 0x6e
 20 517 27 527 40 535 c 1
 40 535 192 620 380 620 c 0x6e
 594 620 730 536 730 370 c 2
 730 220 l 2
 730 179 745 160 780 160 c 0
 815 160 830 179 830 220 c 2
 830 560 l 2
 830 582 848 600 870 600 c 2
 1060 600 l 2
 1082 600 1100 582 1100 560 c 2
 1100 210 l 2
 1100 83 1012 -20 780 -20 c 0x9e
 548 -20 460 83 460 210 c 2
 460 370 l 2
 460 418 438 440 380 440 c 0
 364 440 343 439 318 436 c 1
 336 420 350 394 350 360 c 2
 350 150 l 1
 380 150 l 2
 396 150 410 136 410 120 c 2
 410 30 l 2
 410 14 396 0 380 0 c 2
 200 0 l 2
 120 0 90 42 90 90 c 2
 90 370 l 2
 90 390 86 397 78 397 c 1
 73 396 67 395 65 395 c 0
 54 395 49 403 45 415 c 2
 25 480 l 1
 25 480 20 497 20 505 c 0x6e
EndSplineSet
Colour: ffff00
EndChar

StartChar: uni0E10.descless
Encoding: 60944 60944 73
Width: 740
VWidth: 0
Flags: W
HStem: -10 350<186.623 298.12> 440 180<132.254 364.774> 510 168<601.336 719.749>
VStem: 410 270<201.162 395.512>
AnchorPoint: "th-vow-above" 600 660 basechar 0
AnchorPoint: "th-vow-below" 520 0 basechar 0
LayerCount: 2
Fore
SplineSet
30 535 m 0xb0
 30 550 35 558 50 565 c 0
 62 570 164 620 340 620 c 0xd0
 396 620 438 608 467 595 c 1
 525 633 614 678 690 678 c 0
 706 678 720 664 720 648 c 2
 720 540 l 2
 720 524 706 510 690 510 c 0xb0
 653 510 623 506 599 499 c 1
 635 463 680 398 680 320 c 0
 680 149 555 -10 370 -10 c 0
 289 -10 267 -7 218 -3 c 0
 193 -1 178 27 173 40 c 2
 110 190 l 1
 80 190 l 2
 64 190 50 204 50 220 c 2
 50 310 l 2
 50 326 64 340 80 340 c 2
 240 340 l 2
 282 340 299 320 310 290 c 2
 353 168 l 1
 386 186 410 233 410 310 c 0
 410 395 360 440 270 440 c 0xd0
 214 440 162 427 140 420 c 0
 127 416 104 405 91 405 c 0
 76 405 71 423 66 435 c 2
 35 510 l 1
 35 510 30 522 30 535 c 0xb0
EndSplineSet
Colour: ffff00
EndChar

StartChar: uni0E3F
Encoding: 3647 3647 74
Width: 820
VWidth: 0
Flags: W
HStem: 350 150<340 439.793>
VStem: 60 280<180 350 500 660> 280 210<-119.749 0 840 959.749>
LayerCount: 2
Fore
SplineSet
60 40 m 2xc0
 60 800 l 2xc0
 60 822 78 840 100 840 c 2
 280 840 l 1
 280 930 l 2
 280 946 294 960 310 960 c 2
 460 960 l 2
 476 960 490 946 490 930 c 2
 490 837 l 1
 666 818 750 730 750 610 c 0
 750 533 714 472 637 434 c 1
 740 394 790 322 790 220 c 0
 790 60 637 3 490 0 c 1
 490 -90 l 2
 490 -106 476 -120 460 -120 c 2
 310 -120 l 2
 294 -120 280 -106 280 -90 c 2
 280 0 l 1xa0
 100 0 l 2
 78 0 60 18 60 40 c 2xc0
340 180 m 1
 390 180 l 2
 442 180 490 214 490 260 c 0xa0
 490 306 460 350 390 350 c 2
 340 350 l 1
 340 180 l 1
340 500 m 1xc0
 390 500 l 2
 434 500 460 542 460 580 c 0
 460 618 428 660 380 660 c 2
 340 660 l 1
 340 500 l 1xc0
EndSplineSet
Colour: ffff00
EndChar

StartChar: uni0E4E
Encoding: 3662 3662 75
Width: 0
VWidth: 0
Flags: W
HStem: 660 85<-317.304 -210.508> 830 60<-297.733 -239.049> 960 90<-297.794 -190.62>
VStem: -450 130<750.116 821.236> -430 130<895.58 955.279>
AnchorPoint: "th-vow-above" -140 660 mark 0
LayerCount: 2
Fore
SplineSet
-450 775 m 0xf0
 -450 818 -430 847 -393 864 c 1
 -416 880 -430 903 -430 935 c 0
 -430 1005 -373 1050 -280 1050 c 0
 -223 1050 -182 1026 -160 1002 c 0
 -157 998 -155 994 -155 990 c 0
 -155 985 -157 980 -160 977 c 2
 -185 943 l 2
 -188 939 -192 935 -195 935 c 0
 -198 935 -201 938 -207 944 c 0
 -217 952 -230 960 -251 960 c 0
 -284 960 -300 942 -300 925 c 0xe8
 -300 902 -272 890 -242 890 c 0
 -233 890 -231 884 -232 879 c 2
 -239 839 l 2
 -240 833 -244 830 -255 830 c 0
 -279 830 -320 820 -320 785 c 0
 -320 758 -299 745 -270 745 c 0
 -254 745 -246 746 -240 748 c 0
 -235 750 -231 752 -225 752 c 0
 -219 752 -217 745 -216 741 c 2
 -205 698 l 2
 -204 695 -203 691 -203 685 c 0
 -203 680 -209 675 -217 673 c 0
 -238 667 -263 660 -310 660 c 0
 -382 660 -450 699 -450 775 c 0xf0
EndSplineSet
Colour: ffff00
EndChar

StartChar: uni0E4F
Encoding: 3663 3663 76
Width: 760
VWidth: 0
Flags: W
HStem: -20 80<271.76 488.24> 150 300<296.064 463.936> 540 80<271.76 488.24>
VStem: 60 90<187.634 412.366> 230 300<216.064 383.936> 610 90<187.634 412.366>
CounterMasks: 1 fc
LayerCount: 2
Fore
SplineSet
60 300 m 0
 60 477 191 620 380 620 c 0
 569 620 700 477 700 300 c 0
 700 123 569 -20 380 -20 c 0
 191 -20 60 123 60 300 c 0
150 300 m 0
 150 167 243 60 380 60 c 0
 517 60 610 167 610 300 c 0
 610 433 517 540 380 540 c 0
 243 540 150 433 150 300 c 0
230 300 m 0
 230 383 297 450 380 450 c 0
 463 450 530 383 530 300 c 0
 530 217 463 150 380 150 c 0
 297 150 230 217 230 300 c 0
EndSplineSet
Colour: ffff00
EndChar

StartChar: uni0E50
Encoding: 3664 3664 77
Width: 780
VWidth: 0
Flags: W
HStem: -20 210<320.47 459.53> 410 210<320.47 459.53>
VStem: 30 260<224.512 375.488> 490 260<224.512 375.488>
LayerCount: 2
Fore
SplineSet
30 300 m 0
 30 477 170 620 390 620 c 0
 610 620 750 477 750 300 c 0
 750 123 610 -20 390 -20 c 0
 170 -20 30 123 30 300 c 0
290 300 m 0
 290 237 324 190 390 190 c 0
 456 190 490 237 490 300 c 0
 490 363 456 410 390 410 c 0
 324 410 290 363 290 300 c 0
EndSplineSet
Colour: ffff00
EndChar

StartChar: uni0E51
Encoding: 3665 3665 78
Width: 780
VWidth: 0
Flags: W
HStem: 90 180<294.524 373.492> 410 210<318.803 459.53>
VStem: 30 260<277.174 381.344> 490 260<175.582 375.488>
LayerCount: 2
Fore
SplineSet
30 300 m 0
 30 477 170 620 390 620 c 0
 610 620 750 477 750 300 c 0
 750 107 644 2 515 -71 c 0
 508 -75 501 -80 491 -80 c 0
 479 -80 468 -73 460 -63 c 2
 385 37 l 2
 380 44 375 52 375 60 c 0
 375 72 381 83 392 91 c 0
 440 127 490 179 490 300 c 0
 490 363 456 410 390 410 c 0
 324 410 290 367 290 320 c 0
 290 287 310 270 340 270 c 0
 352 270 360 275 368 275 c 0
 378 275 383 268 385 250 c 2
 397 151 l 1
 397 136 388 123 373 116 c 0
 345 102 303 90 250 90 c 0
 135 90 30 153 30 300 c 0
EndSplineSet
Colour: ffff00
EndChar

StartChar: uni0E52
Encoding: 3666 3666 79
Width: 870
VWidth: 0
Flags: W
HStem: 0 180<320 590> 430 180<533.739 708.5>
VStem: 60 260<180 747.563> 590 240<180 424.862>
LayerCount: 2
Fore
SplineSet
60 40 m 2
 60 710 l 2
 60 732 78 750 100 750 c 2
 280 750 l 2
 302 750 320 732 320 710 c 2
 320 180 l 1
 590 180 l 1
 590 370 l 2
 590 403 580 430 550 430 c 0
 516 430 490 398 472 370 c 0
 468 364 464 355 452 355 c 0
 446 355 432 365 432 365 c 1
 373 410 l 2
 365 415 358 423 358 435 c 2
 358 579 l 2
 358 587 362 594 371 595 c 0
 375 595 381 590 388 584 c 2
 458 520 l 1
 483 554 540 610 650 610 c 0
 767 610 830 524 830 420 c 2
 830 40 l 2
 830 18 812 0 790 0 c 2
 100 0 l 2
 78 0 60 18 60 40 c 2
EndSplineSet
Colour: ffff00
EndChar

StartChar: uni0E53
Encoding: 3667 3667 80
Width: 840
VWidth: 0
Flags: W
HStem: -10 190<319.604 405.804> 0 21G<559 761> 590 10G<203.5 308.5 547 761>
VStem: 30 260<212.722 370.843> 530 260<2.43744 380>
LayerCount: 2
Fore
SplineSet
30 300 m 0xb8
 30 470 127 610 280 610 c 0
 337 610 357 570 357 570 c 1
 430 452 l 1
 430 450 l 1
 503 560 l 2
 518 584 534 600 560 600 c 2
 750 600 l 2
 772 600 790 582 790 560 c 2
 790 40 l 2
 790 18 772 0 750 0 c 2
 570 0 l 2x78
 548 0 530 18 530 40 c 2
 530 380 l 1
 495 320 l 2
 477 291 467 280 450 280 c 2
 430 280 l 1
 407 280 l 2
 390 280 380 291 362 320 c 2
 323 380 l 1
 303 361 290 324 290 280 c 0
 290 232 327 180 370 180 c 0
 386 180 402 175 406 160 c 2
 432 55 l 1
 432 55 435 44 435 38 c 0
 435 24 429 15 420 10 c 0
 407 2 364 -10 310 -10 c 0
 132 -10 30 129 30 300 c 0xb8
EndSplineSet
Colour: ffff00
EndChar

StartChar: uni0E54
Encoding: 3668 3668 81
Width: 760
VWidth: 0
Flags: W
HStem: 0 180<320.762 420 600 687.563> 440 180<339.724 470.338>
VStem: 30 260<211.185 396.443> 516 229<659.373 747.214>
LayerCount: 2
Fore
SplineSet
30 300 m 0
 30 477 150 620 370 620 c 0
 458 620 506 652 516 710 c 0
 520 732 534 750 556 750 c 2
 705 750 l 2
 727 750 745 732 745 710 c 0
 745 550 599 440 410 440 c 0
 325 440 290 380 290 300 c 0
 290 216 324 180 390 180 c 2
 420 180 l 1
 420 218 434 250 450 270 c 0
 463 286 480 300 500 300 c 2
 625 300 l 2
 641 300 645 294 645 287 c 0
 645 280 638 274 635 270 c 0
 619 247 600 213 600 180 c 1
 650 180 l 2
 672 180 690 162 690 140 c 2
 690 40 l 2
 690 18 672 0 650 0 c 2
 390 0 l 2
 170 0 30 123 30 300 c 0
EndSplineSet
Colour: ffff00
EndChar

StartChar: uni0E55
Encoding: 3669 3669 82
Width: 760
VWidth: 0
Flags: W
HStem: 0 180<320.762 420 600 687.563> 440 140<332.385 390.588> 670 90<310.102 389.898>
VStem: 30 260<211.185 396.956> 200 105<584.598 664.204> 395 105<613.705 662.821> 548 197<640.226 747.214>
LayerCount: 2
Fore
SplineSet
30 300 m 0xf6
 30 432 100 523 216 561 c 1
 206 579 200 601 200 625 c 0xee
 200 702 262 760 350 760 c 0
 438 760 500 702 500 625 c 0
 500 621 500 617 500 613 c 1
 529 635 543 667 548 710 c 0
 551 732 566 750 588 750 c 2
 705 750 l 2
 727 750 745 732 745 710 c 1
 727 554 612 440 410 440 c 0
 325 440 290 380 290 300 c 0
 290 216 324 180 390 180 c 2
 420 180 l 1
 420 218 434 250 450 270 c 0
 463 286 480 300 500 300 c 2
 625 300 l 2
 641 300 645 294 645 287 c 0
 645 280 638 274 635 270 c 0
 619 247 600 213 600 180 c 1
 650 180 l 2
 672 180 690 162 690 140 c 2
 690 40 l 2
 690 18 672 0 650 0 c 2
 390 0 l 2
 170 0 30 123 30 300 c 0xf6
305 625 m 0
 305 600 325 580 350 580 c 0
 375 580 395 600 395 625 c 0
 395 650 375 670 350 670 c 0
 325 670 305 650 305 625 c 0
EndSplineSet
Colour: ffff00
EndChar

StartChar: uni0E56
Encoding: 3670 3670 83
Width: 760
VWidth: 0
Flags: W
HStem: -20 180<317.129 432.088> 440 180<277.69 420.276>
VStem: 15 228<657.03 747.214> 40 260<175.607 262.164> 470 260<198.069 396.443>
LayerCount: 2
Fore
SplineSet
15 710 m 0xe8
 15 732 33 750 55 750 c 2
 203 750 l 2
 225 750 239 732 243 710 c 0xe8
 253 652 285 620 390 620 c 0
 610 620 730 477 730 300 c 0
 730 123 590 -20 370 -20 c 0
 180 -20 40 64 40 180 c 0
 40 250 77 300 160 300 c 2
 270 300 l 2
 284 300 303 294 303 270 c 0
 303 266 300 249 300 244 c 0xd8
 300 198 323 160 370 160 c 0
 436 160 470 217 470 300 c 0
 470 380 435 440 350 440 c 0
 115 440 15 541 15 710 c 0xe8
EndSplineSet
Colour: ffff00
EndChar

StartChar: uni0E57
Encoding: 3671 3671 84
Width: 1105
VWidth: 0
Flags: W
HStem: -10 190<319.604 405.804> 0 21G<559 840> 590 10G<203.5 308.5 547 731 859 1031>
VStem: 30 260<212.722 370.843> 530 230<183 380> 830 230<213.87 597.563>
LayerCount: 2
Fore
SplineSet
30 300 m 0xbc
 30 470 127 610 280 610 c 0
 337 610 357 570 357 570 c 1
 430 452 l 1
 430 450 l 1
 503 560 l 2
 518 584 534 600 560 600 c 2
 720 600 l 2
 742 600 760 582 760 560 c 2
 760 183 l 1
 806 193 830 230 830 300 c 2
 830 560 l 2
 830 582 848 600 870 600 c 2
 1020 600 l 2
 1042 600 1060 582 1060 560 c 2
 1060 300 l 2
 1060 123 950 0 730 0 c 2
 570 0 l 2x7c
 548 0 530 18 530 40 c 2
 530 380 l 1
 495 320 l 2
 477 291 467 280 450 280 c 2
 430 280 l 1
 407 280 l 2
 390 280 380 291 362 320 c 2
 323 380 l 1
 303 361 290 324 290 280 c 0
 290 232 327 180 370 180 c 0
 386 180 402 175 406 160 c 2
 432 55 l 1
 432 55 435 44 435 38 c 0
 435 24 429 15 420 10 c 0
 407 2 364 -10 310 -10 c 0
 132 -10 30 129 30 300 c 0xbc
EndSplineSet
Colour: ffff00
EndChar

StartChar: uni0E58
Encoding: 3672 3672 85
Width: 820
VWidth: 0
Flags: W
HStem: -20 320<560.188 664.946> 440 180<329.927 504.924>
VStem: 30 240<200.666 382.489> 545 250<653.907 747.214> 560 240<185.753 262.164>
LayerCount: 2
Fore
SplineSet
30 300 m 0xe8
 30 477 150 620 370 620 c 0
 510 620 535 652 545 710 c 0
 549 732 563 750 585 750 c 2
 755 750 l 2
 777 750 795 732 795 710 c 0xf0
 795 529 683 440 410 440 c 0
 325 440 270 380 270 300 c 0
 270 246 284 203 313 180 c 1
 386 280 l 1
 386 280 397 300 415 300 c 2
 430 300 l 1
 445 300 l 2
 463 300 474 280 474 280 c 1
 543 185 l 1
 554 201 560 221 560 244 c 0
 560 249 557 266 557 270 c 0
 557 294 576 300 590 300 c 2
 680 300 l 2
 763 300 800 250 800 180 c 0
 800 58 655 -20 550 -20 c 0
 532 -20 518 0 518 0 c 1
 430 120 l 1
 342 0 l 1
 342 0 328 -20 310 -20 c 0
 202 -20 30 98 30 300 c 0xe8
EndSplineSet
Colour: ffff00
EndChar

StartChar: uni0E59
Encoding: 3673 3673 86
Width: 880
VWidth: 0
Flags: W
HStem: -10 180<309.315 385.804> 0 21G<530.5 692.5> 590 20G<262.5 414>
VStem: 30 260<189.235 387.072> 640 230<514.077 747.563>
LayerCount: 2
Fore
SplineSet
30 280 m 0xb8
 30 464 155 610 370 610 c 0
 458 610 500 600 500 600 c 1
 528 600 542 570 545 557 c 1
 570 482 l 1
 619 501 640 541 640 600 c 2
 640 710 l 2
 640 732 658 750 680 750 c 2
 830 750 l 2
 852 750 870 732 870 710 c 2
 870 600 l 2
 870 452 786 335 630 300 c 1
 715 45 l 2
 717 40 720 29 720 25 c 0
 720 10 705 0 680 0 c 2
 545 0 l 2x78
 516 0 502 13 495 40 c 2
 380 430 l 1
 332 430 290 370 290 290 c 0
 290 210 316 170 350 170 c 0
 366 170 382 165 386 150 c 2
 412 55 l 1
 412 55 415 44 415 38 c 0
 415 24 409 15 400 10 c 0
 387 2 344 -10 290 -10 c 0
 142 -10 30 114 30 280 c 0xb8
EndSplineSet
Colour: ffff00
EndChar

StartChar: uni0E5A
Encoding: 3674 3674 87
Width: 900
VWidth: 0
Flags: W
HStem: 0 21G<382 548 652 818> 290 170<148.5 316.845> 580 20G<49 201 402 548 652 818>
VStem: 20 210<470.615 597.563> 360 210<0.250626 349> 380 190<491.494 599.749> 630 210<0.250626 599.749>
LayerCount: 2
Fore
SplineSet
20 490 m 1xfa
 20 560 l 2
 20 582 38 600 60 600 c 2
 190 600 l 2
 212 600 230 582 230 560 c 2
 230 540 l 2
 230 479 259 460 290 460 c 0
 329 460 362 490 380 535 c 1
 380 570 l 2
 380 586 394 600 410 600 c 2
 540 600 l 2
 556 600 570 586 570 570 c 2xf6
 570 30 l 2
 570 14 556 0 540 0 c 2
 390 0 l 2
 374 0 360 14 360 30 c 2
 360 349 l 1
 329 317 280 290 210 290 c 0
 87 290 21 386 20 490 c 1xfa
630 30 m 2
 630 570 l 2
 630 586 644 600 660 600 c 2
 810 600 l 2
 826 600 840 586 840 570 c 2
 840 30 l 2
 840 14 826 0 810 0 c 2
 660 0 l 2
 644 0 630 14 630 30 c 2
EndSplineSet
Colour: ffff00
EndChar

StartChar: uni0E5B
Encoding: 3675 3675 88
Width: 1110
VWidth: 0
Flags: W
HStem: -20 80<241.76 466.346> 150 300<266.064 433.936> 260 80<978 1080> 540 80<241.76 461.941>
VStem: 30 90<187.634 412.366> 200 300<216.064 383.936> 620 86<490.405 540>
LayerCount: 2
Fore
SplineSet
30 300 m 0xbe
 30 477 161 620 350 620 c 0
 438 620 501 592 555 545 c 0
 559 541 562 536 562 530 c 0
 562 525 561 519 558 515 c 2
 532 485 l 2
 528 480 525 480 520 480 c 0
 515 480 509 482 505 485 c 0
 465 519 413 540 350 540 c 0
 213 540 120 433 120 300 c 0
 120 167 213 60 350 60 c 0
 501 60 575 158 600 300 c 0
 612 366 619 448 620 520 c 0
 620 531 629 540 640 540 c 2
 685 540 l 2
 696 540 702 532 706 520 c 2
 792 217 l 1
 859 430 l 2
 863 442 869 450 880 450 c 2
 922 450 l 2xde
 933 450 939 442 943 430 c 2
 978 340 l 1
 1060 340 l 2
 1071 340 1080 331 1080 320 c 2
 1080 280 l 2
 1080 269 1071 260 1060 260 c 2
 953 260 l 2
 942 260 936 268 932 280 c 2
 905 349 l 1
 836 110 l 2
 832 98 826 90 815 90 c 2
 765 90 l 2
 754 90 748 98 744 110 c 2
 683 322 l 1
 682 314 681 307 680 300 c 0
 652 108 551 -20 350 -20 c 0
 161 -20 30 123 30 300 c 0xbe
200 300 m 0
 200 383 267 450 350 450 c 0
 433 450 500 383 500 300 c 0
 500 217 433 150 350 150 c 0
 267 150 200 217 200 300 c 0
EndSplineSet
Colour: ffff00
EndChar

StartChar: o
Encoding: 111 111 91
Width: 760
VWidth: 0
Flags: W
HStem: -20 210<320.027 439.973> 410 210<320.027 439.973>
VStem: 30 260<219.748 380.252> 470 260<219.748 380.252>
LayerCount: 2
Fore
SplineSet
30 300 m 0
 30 477 166 620 380 620 c 0
 594 620 730 477 730 300 c 0
 730 123 594 -20 380 -20 c 0
 166 -20 30 123 30 300 c 0
290 300 m 0
 290 237 323 190 380 190 c 0
 437 190 470 237 470 300 c 0
 470 363 437 410 380 410 c 0
 323 410 290 363 290 300 c 0
EndSplineSet
Colour: ffff00
EndChar

StartChar: c
Encoding: 99 99 92
Width: 650
VWidth: 0
Flags: W
HStem: -20 200<356.352 545.333> 420 200<356.352 545.333>
VStem: 30 280<225.358 374.642>
LayerCount: 2
Fore
SplineSet
30 300 m 0
 30 477 166 620 380 620 c 0
 503 620 563 587 580 580 c 0
 599 572 620 558 620 540 c 0
 620 528 614 519 610 510 c 2
 570 420 l 2
 565 408 559 395 545 395 c 0
 529 395 518 407 485 415 c 0
 472 418 454 420 430 420 c 0
 361 420 310 373 310 300 c 0
 310 227 361 180 430 180 c 0
 454 180 472 182 485 185 c 0
 518 193 529 205 545 205 c 0
 559 205 565 192 570 180 c 2
 610 90 l 2
 614 81 620 72 620 60 c 0
 620 42 599 28 580 20 c 0
 563 13 503 -20 380 -20 c 0
 166 -20 30 123 30 300 c 0
EndSplineSet
Colour: ffff00
EndChar

StartChar: l
Encoding: 108 108 93
Width: 400
VWidth: 0
Flags: W
HStem: -10 850<94.2812 337.452>
VStem: 60 280<22.8515 837.563>
LayerCount: 2
Fore
SplineSet
60 100 m 2
 60 800 l 2
 60 822 78 840 100 840 c 2
 300 840 l 2
 322 840 340 822 340 800 c 2
 340 20 l 2
 340 7 336 2 325 0 c 1
 325 0 262 -10 200 -10 c 0
 88 -10 60 36 60 100 c 2
EndSplineSet
Colour: ffff00
EndChar

StartChar: u
Encoding: 117 117 94
Width: 775
VWidth: 0
Flags: W
HStem: -10 210<200.5 392.5> 0 21G<494 696> 580 20G<74 296 474 696>
VStem: 45 280<206.495 597.563> 445 280<219.23 597.563>
LayerCount: 2
Fore
SplineSet
45 220 m 2xb8
 45 560 l 2
 45 582 63 600 85 600 c 2
 285 600 l 2
 307 600 325 582 325 560 c 2
 325 280 l 2
 325 219 341 200 375 200 c 0xb8
 410 200 432 226 445 267 c 1
 445 560 l 2
 445 582 463 600 485 600 c 2
 685 600 l 2
 707 600 725 582 725 560 c 2
 725 40 l 2
 725 18 707 0 685 0 c 2
 505 0 l 2x78
 483 0 465 18 465 40 c 2
 465 102 l 1
 437 56 378 -10 265 -10 c 0
 136 -10 45 74 45 220 c 2xb8
EndSplineSet
Colour: ffff00
EndChar

StartChar: a
Encoding: 97 97 95
Width: 740
VWidth: 0
Flags: W
HStem: -10 140<177 378.412> 0 21G<479 671> 230 140<177 379.413> 440 180<157.64 403.596>
VStem: 30 270<138.996 221.004> 430 270<137.238 222.762 311 414.524>
LayerCount: 2
Fore
SplineSet
30 180 m 0xbc
 30 288 104 370 250 370 c 0
 347 370 403 335 430 311 c 1
 430 360 l 2
 430 421 378 440 300 440 c 0
 251 440 191 427 160 415 c 0
 147 410 124 400 111 400 c 0
 96 400 91 418 86 430 c 2
 55 510 l 1
 55 510 50 522 50 535 c 0
 50 550 55 558 70 565 c 0
 82 570 194 620 370 620 c 0
 584 620 700 536 700 370 c 2
 700 40 l 2
 700 18 682 0 660 0 c 2
 490 0 l 2x7c
 468 0 450 18 450 40 c 2
 450 70 l 1
 450 70 396 -10 250 -10 c 0
 104 -10 30 72 30 180 c 0xbc
300 180 m 0
 300 145 328 130 360 130 c 0xbc
 392 130 412 138 430 152 c 1
 430 208 l 1
 412 222 392 230 360 230 c 0
 328 230 300 215 300 180 c 0
EndSplineSet
Substitution2: "'aalt' Latin Access All Alternates" a.alt
Substitution2: "'ss20' Latin a & g alt" a.alt
Substitution2: "'ss19' Latin a alt" a.alt
Colour: ffff00
EndChar

StartChar: d
Encoding: 100 100 96
Width: 800
VWidth: 0
Flags: W
HStem: -10 190<231 422.41> 0 21G<519 711> 420 190<231 420.808> 820 20G<499 711>
VStem: 30 280<213.556 386.444> 470 270<191.988 408.012 544 837.563>
LayerCount: 2
Fore
SplineSet
30 300 m 0xbc
 30 471 142 610 320 610 c 0
 387 610 435 583 470 544 c 1
 470 800 l 2
 470 822 488 840 510 840 c 2
 700 840 l 2
 722 840 740 822 740 800 c 2
 740 40 l 2
 740 18 722 0 700 0 c 2
 530 0 l 2x7c
 508 0 490 18 490 40 c 2
 490 82 l 1
 455 29 401 -10 320 -10 c 0
 142 -10 30 129 30 300 c 0xbc
310 300 m 0
 310 220 352 180 400 180 c 0xbc
 438 180 459 198 470 228 c 1
 470 372 l 1
 459 402 438 420 400 420 c 0
 352 420 310 380 310 300 c 0
EndSplineSet
Colour: ffff00
EndChar

StartChar: b
Encoding: 98 98 97
Width: 800
VWidth: 0
Flags: W
HStem: -10 190<377.59 569> 0 21G<89 281> 420 190<379.192 569> 820 20G<89 301>
VStem: 60 270<191.988 408.012 544 837.563> 490 280<213.556 386.444>
LayerCount: 2
Fore
SplineSet
60 40 m 2x7c
 60 800 l 2
 60 822 78 840 100 840 c 2
 290 840 l 2
 312 840 330 822 330 800 c 2
 330 544 l 1
 365 583 413 610 480 610 c 0
 658 610 770 471 770 300 c 0
 770 129 658 -10 480 -10 c 0xbc
 399 -10 345 29 310 82 c 1
 310 40 l 2
 310 18 292 0 270 0 c 2
 100 0 l 2
 78 0 60 18 60 40 c 2x7c
330 228 m 1
 341 198 362 180 400 180 c 0
 448 180 490 220 490 300 c 0
 490 380 448 420 400 420 c 0
 362 420 341 402 330 372 c 1
 330 228 l 1
EndSplineSet
Colour: ffff00
EndChar

StartChar: e
Encoding: 101 101 98
Width: 730
VWidth: 0
Flags: W
HStem: -20 180<329.843 543.583> 240 110<290 460> 440 180<318.163 437.587>
VStem: 30 605<70 300>
LayerCount: 2
Fore
SplineSet
30 300 m 0
 30 477 166 620 380 620 c 0
 553 620 700 518 700 320 c 0
 700 275 691 240 660 240 c 2
 290 240 l 1
 308 189 352 160 420 160 c 0
 469 160 497 167 510 170 c 0
 543 178 554 190 570 190 c 0
 584 190 590 177 595 165 c 2
 625 100 l 2
 629 91 635 82 635 70 c 0
 635 52 613 41 595 30 c 0
 578 20 510 -20 380 -20 c 0
 166 -20 30 123 30 300 c 0
284 350 m 1
 460 350 l 1
 460 402 432 440 380 440 c 0
 329 440 296 409 284 350 c 1
EndSplineSet
Colour: ffff00
EndChar

StartChar: q
Encoding: 113 113 99
Width: 800
VWidth: 0
Flags: W
HStem: -10 190<231 420.808> 420 190<231 422.41> 580 20G<519 711>
VStem: 30 280<213.556 386.444> 470 270<-237.563 56 191.988 408.012>
LayerCount: 2
Fore
SplineSet
30 300 m 0xb8
 30 471 142 610 320 610 c 0xd8
 401 610 455 571 490 518 c 1
 490 560 l 2
 490 582 508 600 530 600 c 2
 700 600 l 2
 722 600 740 582 740 560 c 2
 740 -200 l 2
 740 -222 722 -240 700 -240 c 2
 510 -240 l 2
 488 -240 470 -222 470 -200 c 2
 470 56 l 1
 435 17 387 -10 320 -10 c 0
 142 -10 30 129 30 300 c 0xb8
310 300 m 0
 310 220 352 180 400 180 c 0
 438 180 459 198 470 228 c 1
 470 372 l 1
 459 402 438 420 400 420 c 0
 352 420 310 380 310 300 c 0
EndSplineSet
Colour: ffff00
EndChar

StartChar: p
Encoding: 112 112 100
Width: 800
VWidth: 0
Flags: W
HStem: -10 190<379.192 569> 420 190<377.59 569> 580 20G<89 281>
VStem: 60 270<-237.563 56 191.988 408.012> 490 280<213.556 386.444>
LayerCount: 2
Fore
SplineSet
60 -200 m 2xd8
 60 560 l 2
 60 582 78 600 100 600 c 2
 270 600 l 2xb8
 292 600 310 582 310 560 c 2
 310 518 l 1
 345 571 399 610 480 610 c 0
 658 610 770 471 770 300 c 0
 770 129 658 -10 480 -10 c 0
 413 -10 365 17 330 56 c 1
 330 -200 l 2
 330 -222 312 -240 290 -240 c 2
 100 -240 l 2
 78 -240 60 -222 60 -200 c 2xd8
330 228 m 1
 341 198 362 180 400 180 c 0
 448 180 490 220 490 300 c 0
 490 380 448 420 400 420 c 0xd8
 362 420 341 402 330 372 c 1
 330 228 l 1
EndSplineSet
Colour: ffff00
EndChar

StartChar: n
Encoding: 110 110 101
Width: 775
VWidth: 0
Flags: W
HStem: 0 21G<79 301 479 701> 400 210<382.5 574.5> 580 20G<79 281>
VStem: 50 280<2.43744 380.77> 450 280<2.43744 393.505>
LayerCount: 2
Fore
SplineSet
50 40 m 2xd8
 50 560 l 2
 50 582 68 600 90 600 c 2
 270 600 l 2xb8
 292 600 310 582 310 560 c 2
 310 498 l 1
 338 544 397 610 510 610 c 0
 639 610 730 526 730 380 c 2
 730 40 l 2
 730 18 712 0 690 0 c 2
 490 0 l 2
 468 0 450 18 450 40 c 2
 450 320 l 2
 450 381 434 400 400 400 c 0
 365 400 343 374 330 333 c 1
 330 40 l 2
 330 18 312 0 290 0 c 2
 90 0 l 2
 68 0 50 18 50 40 c 2xd8
EndSplineSet
Colour: ffff00
EndChar

StartChar: h
Encoding: 104 104 102
Width: 785
VWidth: 0
Flags: W
HStem: 0 21G<89 311 489 711> 400 210<409.184 584.5> 820 20G<89 301>
VStem: 60 280<2.43744 380.77> 60 270<513 837.563> 460 280<2.43744 393.505>
LayerCount: 2
Fore
SplineSet
60 40 m 2xf4
 60 800 l 2
 60 822 78 840 100 840 c 2
 290 840 l 2
 312 840 330 822 330 800 c 2
 330 513 l 1xec
 361 558 419 610 520 610 c 0
 649 610 740 526 740 380 c 2
 740 40 l 2
 740 18 722 0 700 0 c 2
 500 0 l 2
 478 0 460 18 460 40 c 2
 460 320 l 2
 460 381 444 400 410 400 c 0
 375 400 353 374 340 333 c 1
 340 40 l 2
 340 18 322 0 300 0 c 2
 100 0 l 2
 78 0 60 18 60 40 c 2xf4
EndSplineSet
Colour: ffff00
EndChar

StartChar: s
Encoding: 115 115 103
Width: 630
VWidth: 0
Flags: W
HStem: -20 155<157.83 318.293> 28 155<83.5938 150.057> 465 155<311.245 476.525>
VStem: 40 270<358.929 461.241> 320 280<139.048 244.603>
LayerCount: 2
Fore
SplineSet
40 410 m 0xb8
 40 537 153 620 320 620 c 0
 453 620 526 583 545 575 c 0
 565 567 580 555 580 540 c 0
 580 530 575 519 570 510 c 2
 540 445 l 2
 535 433 526 425 515 425 c 0
 504 425 490 433 475 440 c 0
 442 455 407 465 370 465 c 0
 334 465 310 457 310 435 c 0
 310 416 334 406 360 395 c 0
 382 386 423 370 450 360 c 0
 511 337 600 294 600 191 c 0
 600 45 456 -20 310 -20 c 0xb8
 188 -20 94 20 75 28 c 0
 56 36 45 47 45 65 c 0
 45 77 51 91 55 100 c 2
 85 160 l 2
 90 172 95 183 110 183 c 0x78
 124 183 143 167 165 158 c 0
 193 146 234 135 265 135 c 0
 298 135 320 143 320 165 c 0
 320 184 300 194 270 205 c 0
 246 214 208 228 180 240 c 0
 122 265 40 312 40 410 c 0xb8
EndSplineSet
Colour: ffff00
EndChar

StartChar: i
Encoding: 105 105 104
Width: 400
VWidth: 0
Flags: W
HStem: 0 21G<89 311> 580 20G<89 311> 660 180<80.2506 319.749>
VStem: 60 280<2.43744 597.563> 80 240<660.251 839.749>
LayerCount: 2
Fore
SplineSet
60 40 m 2xf0
 60 560 l 2
 60 582 78 600 100 600 c 2
 300 600 l 2
 322 600 340 582 340 560 c 2
 340 40 l 2
 340 18 322 0 300 0 c 2
 100 0 l 2
 78 0 60 18 60 40 c 2xf0
80 690 m 2xe8
 80 810 l 2
 80 826 94 840 110 840 c 2
 290 840 l 2
 306 840 320 826 320 810 c 2
 320 690 l 2
 320 674 306 660 290 660 c 2
 110 660 l 2
 94 660 80 674 80 690 c 2xe8
EndSplineSet
Colour: ffff00
EndChar

StartChar: z
Encoding: 122 122 105
Width: 680
VWidth: 0
Flags: W
HStem: 0 160<370 649.749> 440 160<50.2506 310>
LayerCount: 2
Fore
SplineSet
30 30 m 2
 30 115 l 2
 30 142 51 161 60 170 c 2
 310 440 l 1
 80 440 l 2
 64 440 50 454 50 470 c 2
 50 570 l 2
 50 586 64 600 80 600 c 2
 600 600 l 2
 615 600 630 590 630 570 c 2
 630 480 l 2
 630 453 609 434 600 425 c 2
 370 160 l 1
 620 160 l 2
 636 160 650 146 650 130 c 2
 650 30 l 2
 650 14 636 0 620 0 c 2
 60 0 l 2
 45 0 30 10 30 30 c 2
EndSplineSet
Colour: ffff00
EndChar

StartChar: g
Encoding: 103 103 106
Width: 680
VWidth: 0
Flags: W
HStem: -280 150<99.9286 339.057> -80 200<230.967 339.99> 160 150<279.89 356.441> 450 150<602 689.749> 470 150<283.559 358.478>
VStem: 30 240<317.033 462.938> 60 170<10.5 147.485> 340 290<-123.567 -9.5> 370 240<317.062 449.433>
LayerCount: 2
Fore
SplineSet
30 390 m 0xf4
 30 528 140 620 320 620 c 0xec
 401 620 469 601 518 568 c 1
 540 590 l 2
 545 595 551 600 560 600 c 2
 660 600 l 2
 676 600 690 586 690 570 c 2
 690 480 l 2
 690 464 676 450 660 450 c 2
 602 450 l 1
 607 431 610 411 610 390 c 0xf480
 610 252 500 160 320 160 c 0
 291 160 265 162 240 167 c 1
 234 159 230 152 230 145 c 0
 230 125 249 120 290 120 c 2
 390 120 l 2
 547 120 630 41 630 -60 c 0
 630 -203 516 -280 320 -280 c 0
 171 -280 128 -267 85 -255 c 0
 66 -250 45 -238 45 -220 c 0
 45 -207 50 -195 50 -195 c 1
 78 -120 l 2
 81 -111 86 -100 100 -100 c 0
 120 -100 127 -110 165 -120 c 0
 187 -126 227 -130 250 -130 c 0
 313 -130 340 -122 340 -105 c 0
 340 -89 327 -80 300 -80 c 2
 235 -80 l 2
 149 -80 60 -39 60 60 c 0xf3
 60 120 92 168 140 202 c 1
 69 241 30 307 30 390 c 0xf4
270 390 m 0
 270 348 282 310 320 310 c 0
 358 310 370 348 370 390 c 0xec80
 370 432 358 470 320 470 c 0
 282 470 270 432 270 390 c 0
EndSplineSet
Substitution2: "'aalt' Latin Access All Alternates" g.alt
Substitution2: "'ss20' Latin a & g alt" g.alt
Substitution2: "'ss18' Latin g alt" g.alt
Colour: ffff00
EndChar

StartChar: f
Encoding: 102 102 107
Width: 540
VWidth: 0
Flags: W
HStem: 0 21G<129 341> 440 160<30.2506 100 370 499.749> 690 180<285.5 492.715>
VStem: 100 270<2.43744 440>
LayerCount: 2
Fore
SplineSet
30 470 m 2
 30 570 l 2
 30 586 44 600 60 600 c 2
 110 600 l 1
 110 650 l 2
 110 803 221 870 350 870 c 0
 443 870 504 841 533 825 c 0
 546 818 550 810 550 798 c 0
 550 792 547 784 545 780 c 2
 500 690 l 2
 495 680 486 674 470 680 c 0
 458 685 439 690 420 690 c 0
 390 690 360 677 360 630 c 2
 360 600 l 1
 470 600 l 2
 486 600 500 586 500 570 c 2
 500 470 l 2
 500 454 486 440 470 440 c 2
 370 440 l 1
 370 40 l 2
 370 18 352 0 330 0 c 2
 140 0 l 2
 118 0 100 18 100 40 c 2
 100 440 l 1
 60 440 l 2
 44 440 30 454 30 470 c 2
EndSplineSet
Colour: ffff00
EndChar

StartChar: t
Encoding: 116 116 108
Width: 530
VWidth: 0
Flags: W
HStem: -20 190<235.5 448.485> 440 160<20.2506 90 360 489.749>
VStem: 90 270<179.049 440> 100 250<600 777.563>
LayerCount: 2
Fore
SplineSet
20 470 m 2xe0
 20 570 l 2
 20 586 34 600 50 600 c 2
 100 600 l 1
 100 740 l 2
 100 762 118 780 140 780 c 2
 310 780 l 2
 332 780 350 762 350 740 c 2
 350 600 l 1xd0
 460 600 l 2
 476 600 490 586 490 570 c 2
 490 470 l 2
 490 454 476 440 460 440 c 2
 360 440 l 1
 360 240 l 2
 360 190 385 170 410 170 c 0
 427 170 439 174 450 180 c 0
 459 185 468 195 475 195 c 0
 483 195 486 187 489 179 c 2
 520 87 l 2
 522 79 525 71 525 65 c 0
 525 55 514 45 505 39 c 0
 463 9 410 -20 300 -20 c 0
 171 -20 90 47 90 200 c 2
 90 440 l 1
 50 440 l 2
 34 440 20 454 20 470 c 2xe0
EndSplineSet
Colour: ffff00
EndChar

StartChar: r
Encoding: 114 114 109
Width: 520
VWidth: 0
Flags: W
HStem: 0 21G<89 311> 405 200<389.874 500>
VStem: 60 280<2.43744 372.216>
LayerCount: 2
Fore
SplineSet
60 40 m 2
 60 560 l 2
 60 582 78 600 100 600 c 2
 280 600 l 2
 302 600 320 582 320 560 c 2
 320 503 l 1
 352 556 403 605 475 605 c 0
 492 605 500 598 500 580 c 2
 500 420 l 2
 500 406 498 399 490 399 c 0
 480 399 474 405 450 405 c 0
 396 405 361 379 340 335 c 1
 340 40 l 2
 340 18 322 0 300 0 c 2
 100 0 l 2
 78 0 60 18 60 40 c 2
EndSplineSet
Colour: ffff00
EndChar

StartChar: m
Encoding: 109 109 110
Width: 1105
VWidth: 0
Flags: W
HStem: 0 21G<79 291 449 661 819 1031> 410 200<365 532 735 919> 580 20G<79 281>
VStem: 50 270<2.43744 394.962> 420 270<2.43744 394.962> 790 270<2.43744 403.477>
CounterMasks: 1 1c
LayerCount: 2
Fore
SplineSet
50 40 m 2xdc
 50 560 l 2
 50 582 68 600 90 600 c 2
 270 600 l 2xbc
 292 600 310 582 310 560 c 2
 310 513 l 1
 341 558 397 610 490 610 c 0
 574 610 640 573 671 499 c 1
 699 545 757 610 860 610 c 0
 978 610 1060 536 1060 390 c 2
 1060 40 l 2
 1060 18 1042 0 1020 0 c 2
 830 0 l 2
 808 0 790 18 790 40 c 2
 790 330 l 2
 790 391 776 410 750 410 c 0
 720 410 705 385 690 349 c 1
 690 40 l 2
 690 18 672 0 650 0 c 2
 460 0 l 2
 438 0 420 18 420 40 c 2
 420 330 l 2
 420 391 406 410 380 410 c 0
 350 410 335 385 320 349 c 1
 320 40 l 2
 320 18 302 0 280 0 c 2
 90 0 l 2
 68 0 50 18 50 40 c 2xdc
EndSplineSet
Colour: ffff00
EndChar

StartChar: j
Encoding: 106 106 111
Width: 400
VWidth: 0
Flags: W
HStem: -250 850<62.5481 305.719> 660 180<80.2506 319.749>
VStem: 60 280<-217.149 597.563> 80 240<660.251 839.749>
LayerCount: 2
Fore
SplineSet
60 -220 m 2xe0
 60 560 l 2
 60 582 78 600 100 600 c 2
 300 600 l 2
 322 600 340 582 340 560 c 2
 340 -140 l 2
 340 -204 312 -250 200 -250 c 0
 138 -250 75 -240 75 -240 c 1
 64 -238 60 -233 60 -220 c 2xe0
80 690 m 2xd0
 80 810 l 2
 80 826 94 840 110 840 c 2
 290 840 l 2
 306 840 320 826 320 810 c 2
 320 690 l 2
 320 674 306 660 290 660 c 2
 110 660 l 2
 94 660 80 674 80 690 c 2xd0
EndSplineSet
Colour: ffff00
EndChar

StartChar: k
Encoding: 107 107 112
Width: 770
VWidth: 0
Flags: W
HStem: 0 21G<89 301 490.5 727.5> 580 20G<483.5 705.5> 820 20G<89 301>
VStem: 60 270<2.43744 210 390 837.563>
LayerCount: 2
Fore
SplineSet
60 40 m 2
 60 800 l 2
 60 822 78 840 100 840 c 2
 290 840 l 2
 312 840 330 822 330 800 c 2
 330 390 l 1
 370 390 l 1
 443 560 l 2
 454 587 469 600 498 600 c 2
 693 600 l 2
 718 600 733 590 733 575 c 0
 733 571 731 565 728 560 c 2
 590 310 l 1
 750 40 l 2
 753 35 755 29 755 25 c 0
 755 10 740 0 715 0 c 2
 505 0 l 2
 476 0 462 13 450 40 c 2
 370 210 l 1
 330 210 l 1
 330 40 l 2
 330 18 312 0 290 0 c 2
 100 0 l 2
 78 0 60 18 60 40 c 2
EndSplineSet
Colour: ffff00
EndChar

StartChar: exclam
Encoding: 33 33 113
Width: 400
VWidth: 0
Flags: W
HStem: 0 200<80.2506 319.749> 820 20G<89 311>
VStem: 62 276<641.692 838.194> 80 240<0.250626 199.749 276.324 320.889>
LayerCount: 2
Fore
SplineSet
62 800 m 1xe0
 62 822 78 840 100 840 c 2
 300 840 l 2
 322 840 338 822 338 800 c 1
 312 310 l 1
 312 288 295 270 273 270 c 2
 127 270 l 2
 105 270 88 288 88 310 c 1
 62 800 l 1xe0
80 30 m 2xd0
 80 170 l 2
 80 186 94 200 110 200 c 2
 290 200 l 2
 306 200 320 186 320 170 c 2
 320 30 l 2
 320 14 306 0 290 0 c 2
 110 0 l 2
 94 0 80 14 80 30 c 2xd0
EndSplineSet
Colour: ffff00
EndChar

StartChar: quotedbl
Encoding: 34 34 114
Width: 580
VWidth: 0
Flags: W
HStem: 480 360<86.2506 223.749 356.251 493.749>
LayerCount: 2
Fore
SplineSet
44 810 m 1
 44 826 58 840 74 840 c 2
 236 840 l 2
 252 840 266 826 266 810 c 1
 224 510 l 1
 224 494 210 480 194 480 c 2
 116 480 l 2
 100 480 86 494 86 510 c 1
 44 810 l 1
314 810 m 1
 314 826 328 840 344 840 c 2
 506 840 l 2
 522 840 536 826 536 810 c 1
 494 510 l 1
 494 494 480 480 464 480 c 2
 386 480 l 2
 370 480 356 494 356 510 c 1
 314 810 l 1
EndSplineSet
Colour: ffff00
EndChar

StartChar: numbersign
Encoding: 35 35 115
Width: 960
VWidth: 0
Flags: W
HStem: 0 21G<113 280.5 473 640.5> 180 180<30.2506 135 390 495 750 869.749> 480 180<90.2506 210 465 570 825 929.749> 820 20G<319.5 487 679.5 847>
LayerCount: 2
Fore
SplineSet
30 210 m 2
 30 330 l 2
 30 346 44 360 60 360 c 2
 180 360 l 1
 210 480 l 1
 120 480 l 2
 104 480 90 494 90 510 c 2
 90 630 l 2
 90 646 104 660 120 660 c 2
 255 660 l 1
 292 810 l 2
 296 826 309 840 330 840 c 2
 480 840 l 2
 494 840 503 828 503 817 c 0
 503 815 503 812 502 810 c 2
 465 660 l 1
 615 660 l 1
 652 810 l 2
 656 826 669 840 690 840 c 2
 840 840 l 2
 854 840 863 828 863 817 c 0
 863 815 863 812 862 810 c 2
 825 660 l 1
 900 660 l 2
 916 660 930 646 930 630 c 2
 930 510 l 2
 930 494 916 480 900 480 c 2
 780 480 l 1
 750 360 l 1
 840 360 l 2
 856 360 870 346 870 330 c 2
 870 210 l 2
 870 194 856 180 840 180 c 2
 705 180 l 1
 668 30 l 2
 664 14 651 0 630 0 c 2
 480 0 l 2
 466 0 457 12 457 23 c 0
 457 25 457 28 458 30 c 2
 495 180 l 1
 345 180 l 1
 308 30 l 2
 304 14 291 0 270 0 c 2
 120 0 l 2
 106 0 97 12 97 23 c 0
 97 25 97 28 98 30 c 2
 135 180 l 1
 60 180 l 2
 44 180 30 194 30 210 c 2
390 360 m 1
 540 360 l 1
 570 480 l 1
 420 480 l 1
 390 360 l 1
EndSplineSet
Colour: ffff00
EndChar

StartChar: dollar
Encoding: 36 36 116
Width: 760
VWidth: 0
Flags: W
HStem: -120 310<276.79 417.47> 650 310<362.245 483.369>
VStem: 275 210<-119.749 -12.2492 848.885 959.749>
LayerCount: 2
Fore
SplineSet
40 85 m 0
 40 95 43 101 48 110 c 2
 125 245 l 2
 132 258 144 265 155 265 c 0
 165 265 174 262 185 255 c 0
 237 221 282 190 340 190 c 0
 384 190 420 197 420 230 c 0
 420 259 390 270 370 280 c 0
 332 299 266 328 220 355 c 0
 148 397 50 460 50 590 c 0
 50 738 155 814 275 844 c 1
 275 930 l 2
 275 946 289 960 305 960 c 2
 455 960 l 2
 471 960 485 946 485 930 c 2
 485 854 l 1
 581 838 654 797 675 785 c 0
 689 777 700 767 700 755 c 0
 700 745 697 739 692 730 c 2
 630 615 l 2
 623 602 611 595 600 595 c 0
 593 595 581 597 575 600 c 0
 531 626 484 650 430 650 c 0
 392 650 360 644 360 610 c 0
 360 585 388 572 410 560 c 0
 464 532 482 524 530 500 c 0
 610 460 730 403 730 240 c 0
 730 93 621 19 485 -8 c 1
 485 -90 l 2
 485 -106 471 -120 455 -120 c 2
 305 -120 l 2
 289 -120 275 -106 275 -90 c 2
 275 -16 l 1
 163 -2 91 39 65 55 c 0
 52 63 40 73 40 85 c 0
EndSplineSet
Colour: ffff00
EndChar

StartChar: percent
Encoding: 37 37 117
Width: 1100
VWidth: 0
Flags: W
HStem: -20 150<801.694 888.306> 0 21G<150 288.5> 310 150<801.694 888.306> 380 150<211.694 298.306> 710 150<211.694 298.306> 820 20G<811.5 950>
VStem: 30 165<546.285 693.715> 315 165<546.285 693.715> 620 165<146.285 293.715> 905 165<146.285 293.715>
LayerCount: 2
Fore
SplineSet
30 620 m 0x1bc0
 30 753 121 860 255 860 c 0
 389 860 480 753 480 620 c 0
 480 487 389 380 255 380 c 0
 121 380 30 487 30 620 c 0x1bc0
135 13 m 0
 135 21 145 30 145 30 c 1
 775 810 l 2
 786 824 800 840 823 840 c 2
 943 840 l 2
 957 840 965 835 965 827 c 0
 965 819 955 810 955 810 c 1
 325 30 l 2
 314 16 300 0 277 0 c 2
 157 0 l 2x47c0
 143 0 135 5 135 13 c 0
195 620 m 0
 195 570 217 530 255 530 c 0
 293 530 315 570 315 620 c 0
 315 670 293 710 255 710 c 0x1bc0
 217 710 195 670 195 620 c 0
620 220 m 0
 620 353 711 460 845 460 c 0
 979 460 1070 353 1070 220 c 0
 1070 87 979 -20 845 -20 c 0xa3c0
 711 -20 620 87 620 220 c 0
785 220 m 0
 785 170 807 130 845 130 c 0
 883 130 905 170 905 220 c 0
 905 270 883 310 845 310 c 0
 807 310 785 270 785 220 c 0
EndSplineSet
Colour: ffff00
EndChar

StartChar: ampersand
Encoding: 38 38 118
Width: 870
VWidth: 0
Flags: W
HStem: -20 190<319.032 471.74> 690 170<365.088 454.745>
VStem: 40 260<188.733 296.585> 150 200<539.956 676.845> 470 190<550.118 676.961>
LayerCount: 2
Fore
SplineSet
40 210 m 0xe8
 40 348 133 414 209 452 c 1
 178 490 150 542 150 610 c 0
 150 775 278 860 410 860 c 0
 542 860 660 775 660 610 c 0
 660 521 598 449 529 402 c 1
 619 323 l 1
 650 361 673 396 673 396 c 1
 678 405 689 410 699 410 c 0
 704 410 710 409 714 406 c 2
 813 347 l 2
 822 342 827 331 827 321 c 0
 827 315 826 310 823 305 c 2
 823 305 792 258 753 207 c 1
 818 150 l 2
 825 144 830 136 830 127 c 0
 830 118 824 111 820 105 c 2
 740 4 l 2
 735 -3 728 -5 720 -5 c 0
 713 -5 701 -2 695 3 c 2
 622 69 l 1
 548 17 452 -20 350 -20 c 0xd8
 194 -20 40 57 40 210 c 0xe8
300 240 m 0xe8
 300 199 334 170 390 170 c 0
 419 170 448 181 479 199 c 1
 350 315 l 1xd8
 324 300 300 277 300 240 c 0xe8
350 610 m 1
 351 566 375 536 400 514 c 1
 437 536 470 572 470 610 c 0
 470 657 450 690 410 690 c 0
 370 690 350 656 350 610 c 1
EndSplineSet
Colour: ffff00
EndChar

StartChar: quotesingle
Encoding: 39 39 119
Width: 320
VWidth: 0
Flags: W
HStem: 480 360<86.2506 233.749>
VStem: 44 232<750 839.749>
LayerCount: 2
Fore
SplineSet
44 810 m 1
 44 826 58 840 74 840 c 2
 246 840 l 2
 262 840 276 826 276 810 c 1
 234 510 l 1
 234 494 220 480 204 480 c 2
 116 480 l 2
 100 480 86 494 86 510 c 1
 44 810 l 1
EndSplineSet
Colour: ffff00
EndChar

StartChar: parenleft
Encoding: 40 40 120
Width: 480
VWidth: 0
Flags: W
VStem: 30 250<204.009 515.991>
LayerCount: 2
Fore
SplineSet
30 360 m 0
 30 634 185 800 315 876 c 0
 321 879 327 882 333 882 c 0
 342 882 351 878 357 871 c 2
 442 762 l 2
 446 756 448 750 448 743 c 0
 448 735 444 726 437 720 c 0
 367 664 280 539 280 360 c 0
 280 181 367 56 437 0 c 0
 444 -6 448 -15 448 -23 c 0
 448 -30 446 -36 442 -42 c 2
 357 -151 l 2
 351 -158 342 -162 333 -162 c 0
 327 -162 321 -159 315 -156 c 0
 185 -80 30 86 30 360 c 0
EndSplineSet
Colour: ffff00
EndChar

StartChar: parenright
Encoding: 41 41 121
Width: 480
VWidth: 0
Flags: W
VStem: 200 250<204.009 515.991>
LayerCount: 2
Fore
SplineSet
32 -23 m 0
 32 -15 36 -6 43 0 c 0
 113 56 200 181 200 360 c 0
 200 539 113 664 43 720 c 0
 36 726 32 735 32 743 c 0
 32 750 34 756 38 762 c 2
 123 871 l 2
 129 878 138 882 147 882 c 0
 153 882 159 879 165 876 c 0
 295 800 450 634 450 360 c 0
 450 86 295 -80 165 -156 c 0
 159 -159 153 -162 147 -162 c 0
 138 -162 129 -158 123 -151 c 2
 38 -42 l 2
 34 -36 32 -30 32 -23 c 0
EndSplineSet
Colour: ffff00
EndChar

StartChar: asterisk
Encoding: 42 42 122
Width: 660
VWidth: 0
Flags: W
HStem: 552 191<94.8438 152.325 507.675 565.156> 820 20G<248.5 411.5>
LayerCount: 2
Fore
SplineSet
49 570 m 0
 49 574 50 579 51 583 c 2
 97 725 l 2
 100 735 106 743 116 743 c 0
 124 743 129 740 133 738 c 2
 265 660 l 1
 232 810 l 1
 232 810 231 815 231 820 c 0
 231 833 242 840 255 840 c 2
 405 840 l 2
 418 840 429 833 429 820 c 0
 429 815 428 810 428 810 c 1
 395 660 l 1
 527 738 l 2
 531 740 536 743 544 743 c 0
 554 743 560 735 563 725 c 2
 609 583 l 2
 610 579 611 574 611 570 c 0
 611 559 599 554 588 552 c 2
 435 536 l 1
 550 434 l 2
 556 428 560 423 560 415 c 0
 560 405 555 401 549 396 c 2
 427 308 l 2
 422 304 416 302 410 302 c 0
 402 302 395 311 391 319 c 2
 330 460 l 1
 269 319 l 2
 265 311 258 302 250 302 c 0
 244 302 238 304 233 308 c 2
 111 396 l 2
 105 401 100 405 100 415 c 0
 100 423 104 428 110 434 c 2
 225 536 l 1
 72 552 l 2
 61 554 49 559 49 570 c 0
EndSplineSet
Colour: ffff00
EndChar

StartChar: plus
Encoding: 43 43 123
Width: 640
VWidth: 0
Flags: W
HStem: 270 180<50.2506 200 440 589.749> 580 20G<222 418>
VStem: 200 240<120.251 270 450 599.749>
LayerCount: 2
Fore
SplineSet
50 300 m 2
 50 420 l 2
 50 436 64 450 80 450 c 2
 200 450 l 1
 200 570 l 2
 200 586 214 600 230 600 c 2
 410 600 l 2
 426 600 440 586 440 570 c 2
 440 450 l 1
 560 450 l 2
 576 450 590 436 590 420 c 2
 590 300 l 2
 590 284 576 270 560 270 c 2
 440 270 l 1
 440 150 l 2
 440 134 426 120 410 120 c 2
 230 120 l 2
 214 120 200 134 200 150 c 2
 200 270 l 1
 80 270 l 2
 64 270 50 284 50 300 c 2
EndSplineSet
Colour: ffff00
EndChar

StartChar: comma
Encoding: 44 44 124
Width: 360
VWidth: 0
Flags: W
HStem: -200 92<53.8722 114.388>
VStem: 60 240<2.03857 199.749>
LayerCount: 2
Fore
SplineSet
44 -125 m 0
 44 -114 53 -110 61 -108 c 0
 91 -102 143 -86 150 0 c 1
 90 0 l 2
 74 0 60 14 60 30 c 2
 60 170 l 2
 60 186 74 200 90 200 c 2
 270 200 l 2
 286 200 300 186 300 170 c 2
 300 30 l 2
 300 -124 184 -200 80 -200 c 0
 69 -200 58 -194 55 -180 c 2
 45 -131 l 1
 45 -131 44 -128 44 -125 c 0
EndSplineSet
Colour: ffff00
EndChar

StartChar: hyphen
Encoding: 45 45 125
Width: 640
VWidth: 0
Flags: W
HStem: 270 180<50.2506 589.749>
LayerCount: 2
Fore
SplineSet
50 300 m 2
 50 420 l 2
 50 436 64 450 80 450 c 2
 560 450 l 2
 576 450 590 436 590 420 c 2
 590 300 l 2
 590 284 576 270 560 270 c 2
 80 270 l 2
 64 270 50 284 50 300 c 2
EndSplineSet
Colour: ffff00
EndChar

StartChar: period
Encoding: 46 46 126
Width: 360
VWidth: 0
Flags: W
HStem: 0 200<60.2506 299.749>
VStem: 60 240<0.250626 199.749>
LayerCount: 2
Fore
SplineSet
60 30 m 2
 60 170 l 2
 60 186 74 200 90 200 c 2
 270 200 l 2
 286 200 300 186 300 170 c 2
 300 30 l 2
 300 14 286 0 270 0 c 2
 90 0 l 2
 74 0 60 14 60 30 c 2
EndSplineSet
Colour: ffff00
EndChar

StartChar: slash
Encoding: 47 47 127
Width: 600
VWidth: 0
Flags: W
HStem: 0 21G<52 219.5> 820 20G<380.5 548>
LayerCount: 2
Fore
SplineSet
37 12 m 0
 37 20 42 30 42 30 c 1
 348 810 l 2
 354 826 369 840 392 840 c 2
 541 840 l 2
 555 840 563 836 563 828 c 0
 563 820 558 810 558 810 c 1
 252 30 l 2
 246 14 231 0 208 0 c 2
 59 0 l 2
 45 0 37 4 37 12 c 0
EndSplineSet
Colour: ffff00
EndChar

StartChar: zero
Encoding: 48 48 128
Width: 860
VWidth: 0
Flags: W
HStem: -20 240<370.613 489.387> 620 240<370.613 489.387>
VStem: 30 290<279.184 560.816> 540 290<279.184 560.816>
LayerCount: 2
Fore
SplineSet
30 420 m 0
 30 658 180 860 430 860 c 0
 680 860 830 658 830 420 c 0
 830 182 680 -20 430 -20 c 0
 180 -20 30 182 30 420 c 0
320 420 m 0
 320 298 358 220 430 220 c 0
 502 220 540 298 540 420 c 0
 540 542 502 620 430 620 c 0
 358 620 320 542 320 420 c 0
EndSplineSet
Colour: ffff00
EndChar

StartChar: one
Encoding: 49 49 129
Width: 600
VWidth: 0
Flags: W
HStem: 0 21G<269 491> 820 20G<293.5 491>
VStem: 240 280<2.43744 600>
LayerCount: 2
Fore
SplineSet
20 675 m 0
 20 691 31 703 45 710 c 2
 210 800 l 1
 258 828 277 840 310 840 c 2
 480 840 l 2
 502 840 520 822 520 800 c 2
 520 40 l 2
 520 18 502 0 480 0 c 2
 280 0 l 2
 258 0 240 18 240 40 c 2
 240 600 l 1
 150 538 l 1
 150 538 125 520 110 520 c 0
 100 520 91 529 85 540 c 2
 28 655 l 2
 25 661 20 669 20 675 c 0
EndSplineSet
Colour: ffff00
EndChar

StartChar: two
Encoding: 50 50 130
Width: 800
VWidth: 0
Flags: W
HStem: 0 210<440 757.563> 640 220<254.384 431.589>
VStem: 450 280<515.737 619.628>
LayerCount: 2
Fore
SplineSet
60 40 m 2
 60 160 l 2
 60 197 79 217 100 235 c 2
 350 450 l 2
 388 482 450 521 450 570 c 0
 450 614 415 640 349 640 c 0
 279 640 228 598 205 582 c 0
 198 577 188 575 180 575 c 0
 165 575 153 584 145 595 c 2
 72 690 l 2
 67 697 65 703 65 715 c 0
 65 727 74 742 85 750 c 0
 136 791 232 860 390 860 c 0
 611 860 730 726 730 600 c 0
 730 485 669 434 610 370 c 1
 440 210 l 1
 720 210 l 2
 742 210 760 192 760 170 c 2
 760 40 l 2
 760 18 742 0 720 0 c 2
 100 0 l 2
 78 0 60 18 60 40 c 2
EndSplineSet
Colour: ffff00
EndChar

StartChar: three
Encoding: 51 51 131
Width: 770
VWidth: 0
Flags: W
HStem: -20 210<222.521 432.022> 330 180<222.437 412.141> 660 200<236.496 410.412>
VStem: 430 280<526.538 638.598> 450 290<208.031 309.628>
LayerCount: 2
Fore
SplineSet
30 90 m 0xe8
 30 102 32 108 37 115 c 2
 120 225 l 2
 128 236 140 245 155 245 c 0
 163 245 173 243 180 238 c 0
 203 223 265 190 350 190 c 0
 425 190 450 220 450 260 c 0xe8
 450 300 415 330 350 330 c 2
 260 330 l 2
 238 330 220 348 220 370 c 2
 220 470 l 2
 220 492 238 510 260 510 c 2
 350 510 l 2
 408 510 430 548 430 590 c 0
 430 632 389 660 340 660 c 0
 270 660 213 623 190 607 c 0
 183 602 178 600 170 600 c 0
 155 600 144 610 135 620 c 2
 65 695 l 2
 59 701 55 708 55 720 c 0
 55 732 64 747 75 755 c 0
 126 796 214 860 370 860 c 0
 591 860 710 735 710 600 c 0xf0
 710 531 681 471 623 427 c 1
 699 385 740 317 740 230 c 0
 740 73 587 -20 370 -20 c 0
 191 -20 113 25 55 60 c 0
 39 69 30 78 30 90 c 0xe8
EndSplineSet
Colour: ffff00
EndChar

StartChar: four
Encoding: 52 52 132
Width: 800
VWidth: 0
Flags: W
HStem: 0 21G<439 661> 120 180<240 410 690 777.563> 820 20G<438.5 661>
VStem: 410 280<2.43744 120 300 540>
LayerCount: 2
Fore
SplineSet
30 160 m 2
 30 285 l 2
 30 307 53 333 70 355 c 2
 390 800 l 2
 407 823 422 840 455 840 c 2
 650 840 l 2
 672 840 690 822 690 800 c 2
 690 300 l 1
 740 300 l 2
 762 300 780 282 780 260 c 2
 780 160 l 2
 780 138 762 120 740 120 c 2
 690 120 l 1
 690 40 l 2
 690 18 672 0 650 0 c 2
 450 0 l 2
 428 0 410 18 410 40 c 2
 410 120 l 1
 70 120 l 2
 48 120 30 138 30 160 c 2
240 300 m 1
 410 300 l 1
 410 540 l 1
 240 300 l 1
EndSplineSet
Colour: ffff00
EndChar

StartChar: five
Encoding: 53 53 133
Width: 780
VWidth: 0
Flags: W
HStem: -20 210<232.363 441.831> 300 540<162.766 311.556> 330 210<327.688 544.5> 630 210<325 687.563>
VStem: 460 290<207.498 310.252>
LayerCount: 2
Fore
SplineSet
40 90 m 0xb8
 40 102 42 108 47 115 c 2
 130 225 l 2
 138 236 150 245 165 245 c 0
 173 245 183 243 190 238 c 0
 213 223 274 190 359 190 c 0
 434 190 460 220 460 260 c 0
 460 300 425 330 360 330 c 0xb8
 330 330 308 323 295 317 c 0
 284 312 267 300 250 300 c 0xc8
 233 300 203 312 203 312 c 1
 100 348 l 2
 78 355 65 368 65 392 c 0
 65 406 71 445 71 445 c 1
 107 805 l 2
 109 820 123 840 150 840 c 2
 650 840 l 2
 672 840 690 822 690 800 c 2
 690 670 l 2
 690 648 672 630 650 630 c 2
 325 630 l 1
 312 506 l 1
 348 526 396 540 460 540 c 0
 629 540 750 438 750 290 c 0
 750 78 597 -20 380 -20 c 0
 201 -20 123 25 65 60 c 0
 49 69 40 78 40 90 c 0xb8
EndSplineSet
Colour: ffff00
EndChar

StartChar: six
Encoding: 54 54 134
Width: 810
VWidth: 0
Flags: W
HStem: -20 210<348.681 471.319> 370 180<372.829 577> 615 21G<606 617.5> 660 200<363.582 562.859>
VStem: 40 280<218.014 346.022> 500 280<217.339 340.7>
LayerCount: 2
Fore
SplineSet
40 280 m 2
 40 500 l 2
 40 719 179 860 420 860 c 0
 561 860 640 818 690 785 c 0
 701 778 710 765 710 755 c 0
 710 743 707 737 703 730 c 2
 645 635 l 2
 638 623 625 615 610 615 c 0
 602 615 592 617 585 622 c 0
 562 637 508 660 450 660 c 0
 381 660 310 619 310 540 c 2
 310 486 l 1
 356 523 421 550 510 550 c 0
 644 550 780 471 780 300 c 0
 780 91 627 -20 410 -20 c 0
 193 -20 40 109 40 280 c 2
320 280 m 0
 320 232 357 190 410 190 c 0
 463 190 500 232 500 280 c 0
 500 328 463 370 410 370 c 0
 350 370 320 328 320 280 c 0
EndSplineSet
Colour: ffff00
EndChar

StartChar: seven
Encoding: 55 55 135
Width: 720
VWidth: 0
Flags: W
HStem: 0 21G<151.5 391.5> 630 210<42.4374 390>
LayerCount: 2
Fore
SplineSet
40 670 m 2
 40 800 l 2
 40 822 58 840 80 840 c 2
 650 840 l 2
 672 840 690 822 690 800 c 2
 690 670 l 2
 690 647 667 602 650 565 c 1
 427 40 l 1
 419 14 406 0 377 0 c 2
 164 0 l 2
 139 0 124 10 124 25 c 0
 124 29 126 35 129 40 c 2
 390 630 l 1
 80 630 l 2
 58 630 40 648 40 670 c 2
EndSplineSet
Colour: ffff00
EndChar

StartChar: eight
Encoding: 56 56 136
Width: 800
VWidth: 0
Flags: W
HStem: -20 180<337.927 462.073> 350 160<348.406 451.594> 690 170<350.873 449.127>
VStem: 30 280<188.841 323.805> 60 270<526.834 670.601> 470 270<526.834 670.601> 490 280<188.841 323.805>
LayerCount: 2
Fore
SplineSet
30 220 m 0xf2
 30 319 82 392 180 433 c 1
 100 474 60 540 60 620 c 0
 60 755 195 860 400 860 c 0
 605 860 740 755 740 620 c 0xec
 740 540 700 474 620 433 c 1
 718 392 770 319 770 220 c 0
 770 63 617 -20 400 -20 c 0
 183 -20 30 63 30 220 c 0xf2
310 250 m 0xf2
 310 200 347 160 400 160 c 0
 453 160 490 200 490 250 c 0
 490 300 465 350 400 350 c 0
 335 350 310 300 310 250 c 0xf2
330 600 m 0xec
 330 546 356 510 400 510 c 0
 444 510 470 546 470 600 c 0
 470 654 441 690 400 690 c 0
 359 690 330 654 330 600 c 0xec
EndSplineSet
Colour: ffff00
EndChar

StartChar: nine
Encoding: 57 57 137
Width: 810
VWidth: 0
Flags: W
HStem: -20 200<247.141 446.418> 290 180<233 437.171> 650 210<338.681 461.319>
VStem: 30 280<499.3 622.661> 490 280<493.978 621.986>
LayerCount: 2
Fore
SplineSet
30 540 m 0
 30 749 183 860 400 860 c 0
 617 860 770 731 770 560 c 2
 770 340 l 2
 770 121 631 -20 390 -20 c 0
 249 -20 170 22 120 55 c 0
 109 62 100 75 100 85 c 0
 100 97 103 103 107 110 c 2
 165 205 l 2
 172 217 185 225 200 225 c 0
 208 225 218 223 225 218 c 0
 248 203 302 180 360 180 c 0
 429 180 500 221 500 300 c 2
 500 354 l 1
 454 317 389 290 300 290 c 0
 166 290 30 369 30 540 c 0
310 560 m 0
 310 512 347 470 400 470 c 0
 460 470 490 512 490 560 c 0
 490 608 453 650 400 650 c 0
 347 650 310 608 310 560 c 0
EndSplineSet
Colour: ffff00
EndChar

StartChar: colon
Encoding: 58 58 138
Width: 360
VWidth: 0
Flags: W
HStem: 0 200<60.2506 299.749> 400 200<60.2506 299.749>
VStem: 60 240<0.250626 199.749 400.251 599.749>
LayerCount: 2
Fore
SplineSet
60 30 m 2
 60 170 l 2
 60 186 74 200 90 200 c 2
 270 200 l 2
 286 200 300 186 300 170 c 2
 300 30 l 2
 300 14 286 0 270 0 c 2
 90 0 l 2
 74 0 60 14 60 30 c 2
60 430 m 2
 60 570 l 2
 60 586 74 600 90 600 c 2
 270 600 l 2
 286 600 300 586 300 570 c 2
 300 430 l 2
 300 414 286 400 270 400 c 2
 90 400 l 2
 74 400 60 414 60 430 c 2
EndSplineSet
Colour: ffff00
EndChar

StartChar: semicolon
Encoding: 59 59 139
Width: 360
VWidth: 0
Flags: W
HStem: -200 92<53.8722 114.388> 400 200<60.2506 299.749>
VStem: 60 240<2.03857 199.749 400.251 599.749>
LayerCount: 2
Fore
SplineSet
44 -125 m 0
 44 -114 53 -110 61 -108 c 0
 91 -102 143 -86 150 0 c 1
 90 0 l 2
 74 0 60 14 60 30 c 2
 60 170 l 2
 60 186 74 200 90 200 c 2
 270 200 l 2
 286 200 300 186 300 170 c 2
 300 30 l 2
 300 -124 184 -200 80 -200 c 0
 69 -200 58 -194 55 -180 c 2
 45 -131 l 1
 45 -131 44 -128 44 -125 c 0
60 430 m 2
 60 570 l 2
 60 586 74 600 90 600 c 2
 270 600 l 2
 286 600 300 586 300 570 c 2
 300 430 l 2
 300 414 286 400 270 400 c 2
 90 400 l 2
 74 400 60 414 60 430 c 2
EndSplineSet
Colour: ffff00
EndChar

StartChar: less
Encoding: 60 60 140
Width: 570
VWidth: 0
Flags: W
LayerCount: 2
Fore
SplineSet
20 263 m 2
 20 360 l 1
 20 457 l 2
 20 473 36 481 50 487 c 2
 510 677 l 1
 510 677 520 682 528 682 c 0
 536 682 540 674 540 660 c 2
 540 514 l 2
 540 491 526 476 510 470 c 2
 200 360 l 1
 510 250 l 2
 526 244 540 229 540 206 c 2
 540 60 l 2
 540 46 536 38 528 38 c 0
 520 38 510 43 510 43 c 1
 50 233 l 2
 36 239 20 247 20 263 c 2
EndSplineSet
Colour: ffff00
EndChar

StartChar: equal
Encoding: 61 61 141
Width: 640
VWidth: 0
Flags: W
HStem: 120 180<50.2506 589.749> 420 180<50.2506 589.749>
LayerCount: 2
Fore
SplineSet
50 150 m 2
 50 270 l 2
 50 286 64 300 80 300 c 2
 560 300 l 2
 576 300 590 286 590 270 c 2
 590 150 l 2
 590 134 576 120 560 120 c 2
 80 120 l 2
 64 120 50 134 50 150 c 2
50 450 m 2
 50 570 l 2
 50 586 64 600 80 600 c 2
 560 600 l 2
 576 600 590 586 590 570 c 2
 590 450 l 2
 590 434 576 420 560 420 c 2
 80 420 l 2
 64 420 50 434 50 450 c 2
EndSplineSet
Colour: ffff00
EndChar

StartChar: greater
Encoding: 62 62 142
Width: 570
VWidth: 0
Flags: W
LayerCount: 2
Fore
SplineSet
30 60 m 2
 30 206 l 2
 30 229 44 244 60 250 c 2
 370 360 l 1
 60 470 l 2
 44 476 30 491 30 514 c 2
 30 660 l 2
 30 674 34 682 42 682 c 0
 50 682 60 677 60 677 c 1
 520 487 l 2
 534 481 550 473 550 457 c 2
 550 360 l 1
 550 263 l 2
 550 247 534 239 520 233 c 2
 60 43 l 1
 60 43 50 38 42 38 c 0
 34 38 30 46 30 60 c 2
EndSplineSet
Colour: ffff00
EndChar

StartChar: question
Encoding: 63 63 143
Width: 690
VWidth: 0
Flags: W
HStem: 0 200<230.251 469.749> 620 240<222.546 367.15>
VStem: 230 240<0.250626 199.749 276.855 362> 380 270<510.444 607.86>
LayerCount: 2
Fore
SplineSet
22 725 m 0xd0
 22 738 30 746 40 755 c 0
 90 798 199 860 340 860 c 0
 519 860 650 752 650 600 c 0
 650 448 495 375 465 362 c 1
 462 310 l 1
 462 288 444 270 422 270 c 2
 278 270 l 2
 256 270 238 288 238 310 c 1
 231 435 l 2
 231 447 241 453 255 457 c 0
 322 476 380 516 380 560 c 0
 380 595 354 620 310 620 c 0
 263 620 208 591 173 564 c 0
 166 559 158 555 150 555 c 0
 137 555 126 562 118 573 c 2
 30 700 l 2
 25 707 22 717 22 725 c 0xd0
230 30 m 2xe0
 230 170 l 2
 230 186 244 200 260 200 c 2
 440 200 l 2
 456 200 470 186 470 170 c 2
 470 30 l 2
 470 14 456 0 440 0 c 2
 260 0 l 2
 244 0 230 14 230 30 c 2xe0
EndSplineSet
Colour: ffff00
EndChar

StartChar: at
Encoding: 64 64 144
Width: 1100
VWidth: 0
Flags: W
HStem: -180 80<406.289 729.996> 92 152<411 570.299> 92 108<776.5 943.4> 436 152<417.261 571.446> 780 80<406.289 693.711>
VStem: 30 90<196.3 483.7> 250 224<264.975 415.025> 602 206<251.053 429.551 525 577.262> 980 90<237.44 483.7>
LayerCount: 2
Fore
SplineSet
30 340 m 0xbf80
 30 622 253 860 550 860 c 0
 847 860 1070 622 1070 340 c 0
 1070 218 1007 92 814 92 c 0xbf80
 739 92 668 124 631 187 c 1
 603 135 557 92 482 92 c 0xdf80
 340 92 250 203 250 340 c 0
 250 477 340 588 482 588 c 0
 541 588 582 562 610 525 c 1
 610 550 l 2
 610 566 624 580 640 580 c 2
 778 580 l 2
 794 580 808 566 808 550 c 2
 808 300 l 2
 808 237 838 200 890 200 c 0
 943 200 980 249 980 340 c 0
 980 572 797 780 550 780 c 0
 303 780 120 572 120 340 c 0
 120 108 303 -100 550 -100 c 0
 638 -100 686 -89 730 -75 c 0
 735 -74 739 -72 745 -72 c 0
 755 -72 760 -79 764 -90 c 2
 772 -112 l 2
 773 -115 775 -120 775 -125 c 0
 775 -137 768 -142 757 -145 c 0
 719 -157 665 -180 550 -180 c 0
 253 -180 30 58 30 340 c 0xbf80
474 340 m 0
 474 276 508 244 546 244 c 0xdf80
 577 244 594 259 602 283 c 1
 602 289 602 294 602 300 c 2
 602 398 l 1
 593 421 577 436 546 436 c 0
 508 436 474 404 474 340 c 0
EndSplineSet
Colour: ffff00
EndChar

StartChar: A
Encoding: 65 65 145
Width: 980
VWidth: 0
Flags: W
HStem: 0 21G<47.5 289.5 690.5 932.5> 120 180<406 574> 820 20G<347.5 632.5>
LayerCount: 2
Fore
SplineSet
20 25 m 0
 20 29 22 35 25 40 c 1
 315 800 l 1
 318 813 335 840 360 840 c 2
 490 840 l 1
 620 840 l 2
 645 840 662 813 665 800 c 1
 955 40 l 1
 958 35 960 29 960 25 c 0
 960 10 945 0 920 0 c 2
 705 0 l 2
 676 0 663 14 655 40 c 2
 630 120 l 1
 350 120 l 1
 325 40 l 2
 317 14 304 0 275 0 c 2
 60 0 l 2
 35 0 20 10 20 25 c 0
406 300 m 1
 574 300 l 1
 500 540 l 1
 495 570 l 1
 490 570 l 1
 485 570 l 1
 480 540 l 1
 406 300 l 1
EndSplineSet
Colour: ffff00
EndChar

StartChar: B
Encoding: 66 66 146
Width: 880
VWidth: 0
Flags: W
HStem: 0 180<340 522.891> 350 150<340 499.793> 660 180<340 490.414>
VStem: 60 280<180 350 500 660> 520 290<518.211 636.62> 550 300<209.649 322.896>
LayerCount: 2
Fore
SplineSet
60 40 m 2xf4
 60 800 l 2
 60 822 78 840 100 840 c 2
 480 840 l 2
 704 840 810 745 810 610 c 0xf8
 810 533 774 472 697 434 c 1
 800 394 850 322 850 220 c 0
 850 56 690 0 540 0 c 2
 100 0 l 2
 78 0 60 18 60 40 c 2xf4
340 180 m 1
 450 180 l 2
 502 180 550 214 550 260 c 0xf4
 550 306 520 350 450 350 c 2
 340 350 l 1
 340 180 l 1
340 500 m 1
 450 500 l 2
 494 500 520 542 520 580 c 0xf8
 520 618 488 660 440 660 c 2
 340 660 l 1
 340 500 l 1
EndSplineSet
Colour: ffff00
EndChar

StartChar: C
Encoding: 67 67 147
Width: 840
VWidth: 0
Flags: W
HStem: -20 240<430.032 655.012> 620 240<430.032 655.012>
VStem: 30 305<313.513 526.487>
LayerCount: 2
Fore
SplineSet
30 420 m 0
 30 658 202 860 500 860 c 0
 665 860 773 792 785 785 c 0
 800 776 810 767 810 755 c 0
 810 745 807 739 802 730 c 2
 730 600 l 2
 723 587 711 580 700 580 c 0
 693 580 681 582 675 585 c 0
 664 589 618 620 540 620 c 0
 413 620 335 542 335 420 c 0
 335 298 413 220 540 220 c 0
 618 220 664 251 675 255 c 0
 681 258 693 260 700 260 c 0
 711 260 723 253 730 240 c 2
 802 110 l 2
 807 101 810 95 810 85 c 0
 810 73 800 64 785 55 c 0
 773 48 665 -20 500 -20 c 0
 202 -20 30 182 30 420 c 0
EndSplineSet
Colour: ffff00
EndChar

StartChar: D
Encoding: 68 68 148
Width: 900
VWidth: 0
Flags: W
HStem: 0 210<340 482.762> 630 210<340 482.762>
VStem: 60 280<210 630> 580 290<311.393 528.607>
LayerCount: 2
Fore
SplineSet
60 40 m 2
 60 800 l 2
 60 822 78 840 100 840 c 2
 400 840 l 2
 708 840 870 658 870 420 c 0
 870 182 708 0 400 0 c 2
 100 0 l 2
 78 0 60 18 60 40 c 2
340 210 m 1
 390 210 l 2
 508 210 580 301 580 420 c 0
 580 539 508 630 390 630 c 2
 340 630 l 1
 340 210 l 1
EndSplineSet
Colour: ffff00
EndChar

StartChar: E
Encoding: 69 69 149
Width: 790
VWidth: 0
Flags: W
HStem: 0 210<340 747.563> 310 200<340 697.563> 630 210<340 737.563>
VStem: 60 280<210 310 510 630>
LayerCount: 2
Fore
SplineSet
60 40 m 2
 60 800 l 2
 60 822 78 840 100 840 c 2
 700 840 l 2
 722 840 740 822 740 800 c 2
 740 670 l 2
 740 648 722 630 700 630 c 2
 340 630 l 1
 340 510 l 1
 660 510 l 2
 682 510 700 492 700 470 c 2
 700 350 l 2
 700 328 682 310 660 310 c 2
 340 310 l 1
 340 210 l 1
 710 210 l 2
 732 210 750 192 750 170 c 2
 750 40 l 2
 750 18 732 0 710 0 c 2
 100 0 l 2
 78 0 60 18 60 40 c 2
EndSplineSet
Colour: ffff00
EndChar

StartChar: F
Encoding: 70 70 150
Width: 740
VWidth: 0
Flags: W
HStem: 0 21G<89 321> 270 200<350 677.563> 630 210<350 717.563>
VStem: 60 290<2.43744 270 470 630>
LayerCount: 2
Fore
SplineSet
60 40 m 2
 60 800 l 2
 60 822 78 840 100 840 c 2
 680 840 l 2
 702 840 720 822 720 800 c 2
 720 670 l 2
 720 648 702 630 680 630 c 2
 350 630 l 1
 350 470 l 1
 640 470 l 2
 662 470 680 452 680 430 c 2
 680 310 l 2
 680 288 662 270 640 270 c 2
 350 270 l 1
 350 40 l 2
 350 18 332 0 310 0 c 2
 100 0 l 2
 78 0 60 18 60 40 c 2
EndSplineSet
Colour: ffff00
EndChar

StartChar: G
Encoding: 71 71 151
Width: 920
VWidth: 0
Flags: W
HStem: -20 210<431.53 616.17> 290 180<482.437 620> 620 240<429.349 675.306>
VStem: 30 300<298.977 521.245> 620 260<195.367 290>
LayerCount: 2
Fore
SplineSet
30 420 m 0
 30 658 202 860 500 860 c 0
 685 860 794 792 805 785 c 0
 820 776 830 767 830 755 c 0
 830 745 827 739 822 730 c 2
 750 600 l 2
 743 587 731 580 720 580 c 0
 713 580 701 582 695 585 c 0
 687 589 632 620 540 620 c 0
 413 620 330 542 330 420 c 0
 330 273 413 190 540 190 c 0
 570 190 597 195 620 202 c 1
 620 290 l 1
 520 290 l 2
 498 290 480 308 480 330 c 2
 480 430 l 2
 480 452 498 470 520 470 c 2
 820 470 l 2
 865 470 880 457 880 410 c 2
 880 150 l 2
 880 82 711 -20 500 -20 c 0
 202 -20 30 182 30 420 c 0
EndSplineSet
Colour: ffff00
EndChar

StartChar: H
Encoding: 72 72 152
Width: 920
VWidth: 0
Flags: W
HStem: 0 21G<89 311 609 831> 290 220<340 580> 820 20G<89 311 609 831>
VStem: 60 280<2.43744 290 510 837.563> 580 280<2.43744 290 510 837.563>
LayerCount: 2
Fore
SplineSet
60 40 m 2
 60 800 l 2
 60 822 78 840 100 840 c 2
 300 840 l 2
 322 840 340 822 340 800 c 2
 340 510 l 1
 580 510 l 1
 580 800 l 2
 580 822 598 840 620 840 c 2
 820 840 l 2
 842 840 860 822 860 800 c 2
 860 40 l 2
 860 18 842 0 820 0 c 2
 620 0 l 2
 598 0 580 18 580 40 c 2
 580 290 l 1
 340 290 l 1
 340 40 l 2
 340 18 322 0 300 0 c 2
 100 0 l 2
 78 0 60 18 60 40 c 2
EndSplineSet
Colour: ffff00
EndChar

StartChar: I
Encoding: 73 73 153
Width: 400
VWidth: 0
Flags: W
HStem: 0 21G<89 311> 820 20G<89 311>
VStem: 60 280<2.43744 837.563>
LayerCount: 2
Fore
SplineSet
60 40 m 2
 60 800 l 2
 60 822 78 840 100 840 c 2
 300 840 l 2
 322 840 340 822 340 800 c 2
 340 40 l 2
 340 18 322 0 300 0 c 2
 100 0 l 2
 78 0 60 18 60 40 c 2
EndSplineSet
Colour: ffff00
EndChar

StartChar: J
Encoding: 74 74 154
Width: 580
VWidth: 0
Flags: W
HStem: -10 210<102.44 319.5> 820 20G<269 491>
VStem: 240 280<208.683 837.563>
LayerCount: 2
Fore
SplineSet
0 85 m 0
 0 91 2 97 5 102 c 2
 82 214 l 2
 87 222 97 226 106 226 c 0
 113 226 119 225 125 221 c 0
 144 210 168 200 190 200 c 0
 215 200 240 213 240 260 c 2
 240 800 l 2
 240 822 258 840 280 840 c 2
 480 840 l 2
 502 840 520 822 520 800 c 2
 520 240 l 2
 520 67 389 -10 250 -10 c 0
 140 -10 55 30 13 60 c 0
 4 66 0 75 0 85 c 0
EndSplineSet
Colour: ffff00
EndChar

StartChar: K
Encoding: 75 75 155
Width: 890
VWidth: 0
Flags: W
HStem: 0 21G<89 311 585.5 842.5> 820 20G<89 311 570.5 812.5>
VStem: 60 280<2.43744 320 530 837.563>
LayerCount: 2
Fore
SplineSet
60 40 m 2
 60 800 l 2
 60 822 78 840 100 840 c 2
 300 840 l 2
 322 840 340 822 340 800 c 2
 340 530 l 1
 380 530 l 1
 530 800 l 2
 546 827 556 840 585 840 c 2
 800 840 l 2
 825 840 840 830 840 815 c 0
 840 811 838 805 835 800 c 2
 610 440 l 1
 865 40 l 2
 868 35 870 29 870 25 c 0
 870 10 855 0 830 0 c 2
 600 0 l 2
 571 0 561 13 545 40 c 2
 380 320 l 1
 340 320 l 1
 340 40 l 2
 340 18 322 0 300 0 c 2
 100 0 l 2
 78 0 60 18 60 40 c 2
EndSplineSet
Colour: ffff00
EndChar

StartChar: L
Encoding: 76 76 156
Width: 660
VWidth: 0
Flags: W
HStem: 0 210<340 637.563> 820 20G<89 311>
VStem: 60 280<210 837.563>
LayerCount: 2
Fore
SplineSet
60 40 m 2
 60 800 l 2
 60 822 78 840 100 840 c 2
 300 840 l 2
 322 840 340 822 340 800 c 2
 340 210 l 1
 600 210 l 2
 622 210 640 192 640 170 c 2
 640 40 l 2
 640 18 622 0 600 0 c 2
 100 0 l 2
 78 0 60 18 60 40 c 2
EndSplineSet
Colour: ffff00
EndChar

StartChar: M
Encoding: 77 77 157
Width: 1080
VWidth: 0
Flags: W
HStem: 0 21G<89 311 769 991> 820 20G<89 348 732 991>
VStem: 60 280<2.43744 460> 740 280<2.43744 460>
LayerCount: 2
Fore
SplineSet
60 40 m 2
 60 800 l 2
 60 822 78 840 100 840 c 2
 335 840 l 2
 361 840 375 824 390 800 c 1
 540 510 l 1
 690 800 l 1
 705 824 719 840 745 840 c 2
 980 840 l 2
 1002 840 1020 822 1020 800 c 2
 1020 40 l 2
 1020 18 1002 0 980 0 c 2
 780 0 l 2
 758 0 740 18 740 40 c 2
 740 460 l 1
 610 220 l 1
 599 197 587 180 570 180 c 2
 540 180 l 1
 510 180 l 2
 493 180 481 197 470 220 c 1
 340 460 l 1
 340 40 l 2
 340 18 322 0 300 0 c 2
 100 0 l 2
 78 0 60 18 60 40 c 2
EndSplineSet
Colour: ffff00
EndChar

StartChar: N
Encoding: 78 78 158
Width: 920
VWidth: 0
Flags: W
HStem: 0 21G<89 311 597 831> 820 20G<89 323 609 831>
VStem: 60 280<2.43744 390> 580 280<420 837.563>
LayerCount: 2
Fore
SplineSet
60 40 m 2
 60 800 l 2
 60 822 78 840 100 840 c 2
 310 840 l 2
 336 840 350 824 365 800 c 1
 580 420 l 1
 580 800 l 2
 580 822 598 840 620 840 c 2
 820 840 l 2
 842 840 860 822 860 800 c 2
 860 40 l 2
 860 18 842 0 820 0 c 2
 610 0 l 2
 584 0 570 16 555 40 c 2
 340 390 l 1
 340 40 l 2
 340 18 322 0 300 0 c 2
 100 0 l 2
 78 0 60 18 60 40 c 2
EndSplineSet
Colour: ffff00
EndChar

StartChar: O
Encoding: 79 79 159
Width: 1000
VWidth: 0
Flags: W
HStem: -20 240<413.658 586.342> 620 240<413.658 586.342>
VStem: 30 295<311.437 528.563> 675 295<311.437 528.563>
LayerCount: 2
Fore
SplineSet
30 420 m 0
 30 658 202 860 500 860 c 0
 798 860 970 658 970 420 c 0
 970 182 798 -20 500 -20 c 0
 202 -20 30 182 30 420 c 0
325 420 m 0
 325 298 400 220 500 220 c 0
 600 220 675 298 675 420 c 0
 675 542 600 620 500 620 c 0
 400 620 325 542 325 420 c 0
EndSplineSet
Colour: ffff00
EndChar

StartChar: P
Encoding: 80 80 160
Width: 870
VWidth: 0
Flags: W
HStem: 0 21G<89 311> 240 200<340 531.745> 640 200<340 530.723>
VStem: 60 280<2.43744 240 440 640> 570 280<472.417 603.07>
LayerCount: 2
Fore
SplineSet
60 40 m 2
 60 800 l 2
 60 822 78 840 100 840 c 2
 500 840 l 2
 723 840 850 704 850 540 c 0
 850 376 731 240 500 240 c 2
 340 240 l 1
 340 40 l 2
 340 18 322 0 300 0 c 2
 100 0 l 2
 78 0 60 18 60 40 c 2
340 440 m 1
 450 440 l 2
 531 440 570 483 570 540 c 0
 570 597 527 640 450 640 c 2
 340 640 l 1
 340 440 l 1
EndSplineSet
Colour: ffff00
EndChar

StartChar: Q
Encoding: 81 81 161
Width: 1010
VWidth: 0
Flags: W
HStem: -20 240<413.658 541.824> 620 240<413.658 586.342>
VStem: 30 295<311.437 528.563> 675 295<347.637 528.563>
LayerCount: 2
Fore
SplineSet
30 420 m 0
 30 658 202 860 500 860 c 0
 798 860 970 658 970 420 c 0
 970 316 937 219 875 142 c 1
 929 90 l 2
 935 85 938 77 938 69 c 0
 938 61 935 53 929 48 c 2
 842 -38 l 2
 836 -44 829 -47 821 -47 c 0
 814 -47 806 -44 800 -38 c 2
 733 30 l 1
 668 -2 590 -20 500 -20 c 0
 202 -20 30 182 30 420 c 0
325 420 m 0
 325 298 400 220 500 220 c 0
 515 220 529 222 543 225 c 1
 476 294 l 2
 470 300 467 308 467 315 c 0
 467 323 470 331 476 337 c 2
 553 415 l 2
 558 420 565 423 573 423 c 0
 580 423 588 420 595 414 c 2
 665 346 l 1
 671 369 675 393 675 420 c 0
 675 542 600 620 500 620 c 0
 400 620 325 542 325 420 c 0
EndSplineSet
Colour: ffff00
EndChar

StartChar: R
Encoding: 82 82 162
Width: 900
VWidth: 0
Flags: W
HStem: 0 21G<89 311 595.5 852.5> 640 200<340 530.723>
VStem: 60 280<2.43744 240 440 640> 570 280<471.939 603.07>
LayerCount: 2
Fore
SplineSet
60 40 m 2
 60 800 l 2
 60 822 78 840 100 840 c 2
 500 840 l 2
 723 840 850 704 850 540 c 0
 850 433 800 338 700 285 c 1
 875 40 l 2
 878 35 880 29 880 25 c 0
 880 10 865 0 840 0 c 2
 610 0 l 2
 581 0 571 13 555 40 c 2
 430 240 l 1
 340 240 l 1
 340 40 l 2
 340 18 322 0 300 0 c 2
 100 0 l 2
 78 0 60 18 60 40 c 2
340 440 m 1
 450 440 l 2
 531 440 570 483 570 540 c 0
 570 597 527 640 450 640 c 2
 340 640 l 1
 340 440 l 1
EndSplineSet
Colour: ffff00
EndChar

StartChar: S
Encoding: 83 83 163
Width: 820
VWidth: 0
Flags: W
HStem: -20 210<267.181 475.563> 650 210<363.912 576.049>
LayerCount: 2
Fore
SplineSet
40 90 m 0
 40 100 43 106 48 115 c 2
 120 240 l 2
 127 253 139 260 150 260 c 0
 157 260 169 258 175 255 c 0
 244 218 333 190 400 190 c 0
 444 190 480 197 480 230 c 0
 480 259 452 274 430 280 c 0
 372 297 276 328 220 355 c 0
 145 391 50 455 50 585 c 0
 50 778 224 860 420 860 c 0
 558 860 676 811 735 780 c 0
 749 773 760 762 760 750 c 0
 760 740 757 734 752 725 c 2
 690 615 l 2
 683 602 671 595 660 595 c 0
 653 595 641 597 635 600 c 0
 569 634 487 650 430 650 c 0
 392 650 360 644 360 610 c 0
 360 585 386 567 410 560 c 0
 489 536 532 523 590 500 c 0
 673 468 790 413 790 250 c 0
 790 61 606 -20 410 -20 c 0
 256 -20 128 28 65 60 c 0
 51 67 40 78 40 90 c 0
EndSplineSet
Colour: ffff00
EndChar

StartChar: T
Encoding: 84 84 164
Width: 740
VWidth: 0
Flags: W
HStem: 0 21G<259 481> 630 210<22.4374 230 510 717.563>
VStem: 230 280<2.43744 630>
LayerCount: 2
Fore
SplineSet
20 670 m 2
 20 800 l 2
 20 822 38 840 60 840 c 2
 680 840 l 2
 702 840 720 822 720 800 c 2
 720 670 l 2
 720 648 702 630 680 630 c 2
 510 630 l 1
 510 40 l 2
 510 18 492 0 470 0 c 2
 270 0 l 2
 248 0 230 18 230 40 c 2
 230 630 l 1
 60 630 l 2
 38 630 20 648 20 670 c 2
EndSplineSet
Colour: ffff00
EndChar

StartChar: U
Encoding: 85 85 165
Width: 920
VWidth: 0
Flags: W
HStem: -20 210<382.293 537.707> 820 20G<89 311 609 831>
VStem: 60 280<230.953 837.563> 580 280<230.953 837.563>
LayerCount: 2
Fore
SplineSet
60 280 m 2
 60 800 l 2
 60 822 78 840 100 840 c 2
 300 840 l 2
 322 840 340 822 340 800 c 2
 340 310 l 2
 340 232 391 190 460 190 c 0
 529 190 580 232 580 310 c 2
 580 800 l 2
 580 822 598 840 620 840 c 2
 820 840 l 2
 842 840 860 822 860 800 c 2
 860 280 l 2
 860 92 700 -20 460 -20 c 0
 220 -20 60 92 60 280 c 2
EndSplineSet
Colour: ffff00
EndChar

StartChar: V
Encoding: 86 86 166
Width: 980
VWidth: 0
Flags: W
HStem: 0 21G<347.5 632.5> 820 20G<47.5 289.5 690.5 932.5>
LayerCount: 2
Fore
SplineSet
20 815 m 0
 20 830 35 840 60 840 c 2
 275 840 l 2
 304 840 317 826 325 800 c 2
 480 300 l 1
 485 270 l 1
 490 270 l 1
 495 270 l 1
 500 300 l 1
 655 800 l 2
 663 826 676 840 705 840 c 2
 920 840 l 2
 945 840 960 830 960 815 c 0
 960 811 958 805 955 800 c 1
 665 40 l 1
 662 27 645 0 620 0 c 2
 490 0 l 1
 360 0 l 2
 335 0 318 27 315 40 c 1
 25 800 l 1
 22 805 20 811 20 815 c 0
EndSplineSet
Colour: ffff00
EndChar

StartChar: W
Encoding: 87 87 167
Width: 1370
VWidth: 0
Flags: W
HStem: 0 21G<297.5 564.5 805.5 1072.5> 820 20G<47.5 304.5 605.5 764.5 1065.5 1322.5>
LayerCount: 2
Fore
SplineSet
20 815 m 0
 20 830 35 840 60 840 c 2
 290 840 l 2
 319 840 335 824 340 800 c 2
 440 340 l 1
 445 310 l 1
 455 310 l 1
 460 340 l 1
 580 800 l 1
 585 824 591 840 620 840 c 2
 685 840 l 1
 750 840 l 2
 779 840 785 824 790 800 c 1
 910 340 l 1
 915 310 l 1
 925 310 l 1
 930 340 l 1
 1030 800 l 2
 1035 824 1051 840 1080 840 c 2
 1310 840 l 2
 1335 840 1350 830 1350 815 c 0
 1350 811 1348 804 1347 800 c 2
 1105 40 l 1
 1102 27 1085 0 1060 0 c 2
 820 0 l 2
 791 0 776 13 770 40 c 2
 685 420 l 1
 600 40 l 2
 594 13 579 0 550 0 c 2
 310 0 l 2
 285 0 268 27 265 40 c 1
 23 800 l 2
 22 804 20 811 20 815 c 0
EndSplineSet
Colour: ffff00
EndChar

StartChar: X
Encoding: 88 88 168
Width: 940
VWidth: 0
Flags: W
HStem: 0 21G<47.5 319.5 620.5 892.5> 820 20G<77.5 329.5 610.5 862.5>
LayerCount: 2
Fore
SplineSet
20 25 m 0
 20 29 22 35 25 40 c 2
 270 430 l 1
 55 800 l 2
 52 805 50 811 50 815 c 0
 50 830 65 840 90 840 c 2
 315 840 l 2
 344 840 354 827 370 800 c 1
 470 580 l 1
 570 800 l 1
 586 827 596 840 625 840 c 2
 850 840 l 2
 875 840 890 830 890 815 c 0
 890 811 888 805 885 800 c 2
 670 430 l 1
 915 40 l 2
 918 35 920 29 920 25 c 0
 920 10 905 0 880 0 c 2
 635 0 l 2
 606 0 596 13 580 40 c 1
 470 250 l 1
 360 40 l 1
 344 13 334 0 305 0 c 2
 60 0 l 2
 35 0 20 10 20 25 c 0
EndSplineSet
Colour: ffff00
EndChar

StartChar: Y
Encoding: 89 89 169
Width: 940
VWidth: 0
Flags: W
HStem: 0 21G<359 581> 820 20G<57.5 309.5 630.5 882.5>
VStem: 330 280<2.43744 280>
LayerCount: 2
Fore
SplineSet
30 815 m 0
 30 830 45 840 70 840 c 2
 295 840 l 2
 324 840 334 827 350 800 c 1
 470 540 l 1
 590 800 l 1
 606 827 616 840 645 840 c 2
 870 840 l 2
 895 840 910 830 910 815 c 0
 910 811 908 805 905 800 c 2
 610 280 l 1
 610 40 l 2
 610 18 592 0 570 0 c 2
 370 0 l 2
 348 0 330 18 330 40 c 2
 330 280 l 1
 35 800 l 2
 32 805 30 811 30 815 c 0
EndSplineSet
Colour: ffff00
EndChar

StartChar: Z
Encoding: 90 90 170
Width: 830
VWidth: 0
Flags: W
HStem: 0 210<410 797.563> 630 210<62.4374 420>
LayerCount: 2
Fore
SplineSet
30 40 m 2
 30 155 l 2
 30 183 51 202 70 225 c 2
 420 630 l 1
 100 630 l 2
 78 630 60 648 60 670 c 2
 60 800 l 2
 60 822 78 840 100 840 c 2
 730 840 l 2
 752 840 770 822 770 800 c 2
 770 670 l 2
 770 642 749 623 730 600 c 2
 410 210 l 1
 760 210 l 2
 782 210 800 192 800 170 c 2
 800 40 l 2
 800 18 782 0 760 0 c 2
 70 0 l 2
 48 0 30 18 30 40 c 2
EndSplineSet
Colour: ffff00
EndChar

StartChar: bracketleft
Encoding: 91 91 171
Width: 480
VWidth: 0
Flags: W
HStem: -150 170<290 439.749> 700 170<290 439.749>
LayerCount: 2
Fore
SplineSet
50 -110 m 2
 50 830 l 2
 50 852 68 870 90 870 c 2
 410 870 l 2
 426 870 440 856 440 840 c 2
 440 730 l 2
 440 714 426 700 410 700 c 2
 290 700 l 1
 290 20 l 1
 410 20 l 2
 426 20 440 6 440 -10 c 2
 440 -120 l 2
 440 -136 426 -150 410 -150 c 2
 90 -150 l 2
 68 -150 50 -132 50 -110 c 2
EndSplineSet
Colour: ffff00
EndChar

StartChar: backslash
Encoding: 92 92 172
Width: 600
VWidth: 0
Flags: W
HStem: 0 21G<380.5 548> 820 20G<52 219.5>
LayerCount: 2
Fore
SplineSet
37 828 m 0
 37 836 45 840 59 840 c 2
 208 840 l 2
 231 840 246 826 252 810 c 2
 558 30 l 1
 558 30 563 20 563 12 c 0
 563 4 555 0 541 0 c 2
 392 0 l 2
 369 0 354 14 348 30 c 2
 42 810 l 1
 42 810 37 820 37 828 c 0
EndSplineSet
Colour: ffff00
EndChar

StartChar: bracketright
Encoding: 93 93 173
Width: 480
VWidth: 0
Flags: W
HStem: -150 170<40.2506 190> 700 170<40.2506 190>
LayerCount: 2
Fore
SplineSet
40 -10 m 2
 40 6 54 20 70 20 c 2
 190 20 l 1
 190 700 l 1
 70 700 l 2
 54 700 40 714 40 730 c 2
 40 840 l 2
 40 856 54 870 70 870 c 2
 390 870 l 2
 412 870 430 852 430 830 c 2
 430 -110 l 2
 430 -132 412 -150 390 -150 c 2
 70 -150 l 2
 54 -150 40 -136 40 -120 c 2
 40 -10 l 2
EndSplineSet
Colour: ffff00
EndChar

StartChar: asciicircum
Encoding: 94 94 174
Width: 600
VWidth: 0
Flags: W
HStem: 600 240
LayerCount: 2
Fore
SplineSet
20 620 m 0
 20 633 25 638 30 645 c 1
 185 810 l 2
 202 828 215 840 240 840 c 2
 300 840 l 1
 360 840 l 2
 385 840 398 828 415 810 c 2
 570 645 l 1
 575 638 580 633 580 620 c 0
 580 612 574 600 560 600 c 2
 442 600 l 2
 422 600 408 612 386 628 c 2
 300 690 l 1
 214 628 l 2
 192 612 178 600 158 600 c 2
 40 600 l 2
 26 600 20 612 20 620 c 0
EndSplineSet
Colour: ffff00
EndChar

StartChar: underscore
Encoding: 95 95 175
Width: 700
VWidth: 0
Flags: W
HStem: -180 180<50.2506 649.749>
LayerCount: 2
Fore
SplineSet
50 -30 m 2
 50 -14 64 0 80 0 c 2
 620 0 l 2
 636 0 650 -14 650 -30 c 2
 650 -150 l 2
 650 -166 636 -180 620 -180 c 2
 80 -180 l 2
 64 -180 50 -166 50 -150 c 2
 50 -30 l 2
EndSplineSet
Colour: ffff00
EndChar

StartChar: grave
Encoding: 96 96 176
Width: 450
VWidth: 0
Flags: W
HStem: 600 240<229.016 252.914>
LayerCount: 2
Fore
SplineSet
0 820 m 0
 0 829 6 840 20 840 c 2
 205 840 l 2
 228 840 243 826 256 810 c 2
 400 645 l 2
 405 638 410 633 410 620 c 0
 410 612 404 600 390 600 c 2
 280 600 l 2
 260 600 246 612 224 630 c 2
 25 785 l 1
 25 785 0 801 0 820 c 0
EndSplineSet
Colour: ffff00
EndChar

StartChar: v
Encoding: 118 118 177
Width: 780
VWidth: 0
Flags: W
HStem: 0 21G<247.5 532.5> 580 20G<47.5 274.5 505.5 732.5>
LayerCount: 2
Fore
SplineSet
20 575 m 0
 20 590 35 600 60 600 c 2
 260 600 l 2
 289 600 303 587 310 560 c 2
 380 250 l 1
 385 220 l 1
 390 220 l 1
 395 220 l 1
 400 250 l 1
 470 560 l 2
 477 587 491 600 520 600 c 2
 720 600 l 2
 745 600 760 590 760 575 c 0
 760 571 758 565 755 560 c 1
 565 40 l 1
 562 27 545 0 520 0 c 2
 390 0 l 1
 260 0 l 2
 235 0 218 27 215 40 c 1
 25 560 l 1
 22 565 20 571 20 575 c 0
EndSplineSet
Colour: ffff00
EndChar

StartChar: w
Encoding: 119 119 178
Width: 1050
VWidth: 0
Flags: W
HStem: 0 21G<200 438.5 611.5 850> 580 20G<45 274.5 465.5 584.5 775.5 1005>
VStem: 15 290<505.867 597.23> 745 290<505.867 597.23>
LayerCount: 2
Fore
SplineSet
15 580 m 0
 15 595 30 600 60 600 c 2
 260 600 l 2
 289 600 300 587 305 560 c 2
 350 270 l 1
 355 230 l 1
 365 230 l 1
 370 270 l 1
 440 560 l 2
 445 584 451 600 480 600 c 2
 525 600 l 1
 570 600 l 2
 599 600 605 584 610 560 c 2
 680 270 l 1
 685 230 l 1
 695 230 l 1
 700 270 l 1
 745 560 l 2
 750 587 761 600 790 600 c 2
 990 600 l 2
 1020 600 1035 595 1035 580 c 0
 1035 575 1032 565 1030 560 c 2
 880 40 l 2
 874 19 865 0 835 0 c 2
 625 0 l 2
 598 0 588 16 580 40 c 1
 525 250 l 1
 470 40 l 1
 462 16 452 0 425 0 c 2
 215 0 l 2
 185 0 176 19 170 40 c 2
 20 560 l 2
 18 565 15 575 15 580 c 0
EndSplineSet
Colour: ffff00
EndChar

StartChar: x
Encoding: 120 120 179
Width: 760
VWidth: 0
Flags: W
HStem: 0 21G<47.5 284.5 475.5 712.5> 580 20G<67.5 289.5 470.5 692.5>
LayerCount: 2
Fore
SplineSet
20 25 m 0
 20 29 22 35 25 40 c 2
 200 310 l 1
 45 560 l 2
 42 565 40 571 40 575 c 0
 40 590 55 600 80 600 c 2
 275 600 l 2
 304 600 314 587 325 560 c 2
 380 420 l 1
 435 560 l 2
 446 587 456 600 485 600 c 2
 680 600 l 2
 705 600 720 590 720 575 c 0
 720 571 718 565 715 560 c 2
 560 310 l 1
 735 40 l 2
 738 35 740 29 740 25 c 0
 740 10 725 0 700 0 c 2
 490 0 l 2
 461 0 452 13 440 40 c 2
 380 180 l 1
 320 40 l 2
 308 13 299 0 270 0 c 2
 60 0 l 2
 35 0 20 10 20 25 c 0
EndSplineSet
Colour: ffff00
EndChar

StartChar: y
Encoding: 121 121 180
Width: 780
VWidth: 0
Flags: W
HStem: -260 170<104.845 278.386> 580 20G<47.5 274.5 505.5 732.5>
LayerCount: 2
Fore
SplineSet
20 575 m 0
 20 590 35 600 60 600 c 2
 260 600 l 2
 289 600 303 587 310 560 c 2
 380 250 l 1
 385 220 l 1
 390 220 l 1
 395 220 l 1
 400 250 l 1
 470 560 l 2
 477 587 491 600 520 600 c 2
 720 600 l 2
 745 600 760 590 760 575 c 0
 760 571 758 565 755 560 c 1
 550 0 l 1
 492 -210 369 -260 250 -260 c 0
 184 -260 132 -247 105 -240 c 0
 85 -235 55 -221 55 -205 c 0
 55 -193 61 -184 65 -175 c 2
 98 -90 l 2
 103 -78 109 -65 120 -65 c 0
 140 -65 163 -90 210 -90 c 0
 275 -90 292 -54 309 -3 c 1
 256 9 215 41 185 120 c 1
 25 560 l 1
 22 565 20 571 20 575 c 0
EndSplineSet
Colour: ffff00
EndChar

StartChar: braceleft
Encoding: 123 123 181
Width: 480
VWidth: 0
Flags: W
HStem: -150 170<362.026 449.749> 700 170<362.026 449.749>
VStem: 120 240<21.1559 266.547 453.453 698.844>
LayerCount: 2
Fore
SplineSet
10 345 m 2
 10 360 l 1
 10 375 l 2
 10 391 26 399 40 405 c 0
 53 410 120 445 120 540 c 2
 120 720 l 2
 120 816 186 870 280 870 c 2
 420 870 l 2
 436 870 450 856 450 840 c 2
 450 730 l 2
 450 714 436 700 420 700 c 2
 400 700 l 2
 364 700 360 685 360 640 c 2
 360 510 l 2
 360 395 280 360 280 360 c 1
 280 360 360 325 360 210 c 2
 360 80 l 2
 360 35 364 20 400 20 c 2
 420 20 l 2
 436 20 450 6 450 -10 c 2
 450 -120 l 2
 450 -136 436 -150 420 -150 c 2
 280 -150 l 2
 186 -150 120 -96 120 0 c 2
 120 180 l 2
 120 275 53 310 40 315 c 0
 26 321 10 329 10 345 c 2
EndSplineSet
Colour: ffff00
EndChar

StartChar: bar
Encoding: 124 124 182
Width: 360
VWidth: 0
Flags: W
VStem: 75 210<-149.749 869.749>
LayerCount: 2
Fore
SplineSet
75 -120 m 2
 75 840 l 2
 75 856 89 870 105 870 c 2
 255 870 l 2
 271 870 285 856 285 840 c 2
 285 -120 l 2
 285 -136 271 -150 255 -150 c 2
 105 -150 l 2
 89 -150 75 -136 75 -120 c 2
EndSplineSet
Colour: ffff00
EndChar

StartChar: braceright
Encoding: 125 125 183
Width: 480
VWidth: 0
Flags: W
HStem: -150 170<30.2506 117.974> 700 170<30.2506 117.974>
VStem: 120 240<21.1559 266.547 453.453 698.844>
LayerCount: 2
Fore
SplineSet
30 -10 m 2
 30 6 44 20 60 20 c 2
 80 20 l 2
 116 20 120 35 120 80 c 2
 120 210 l 2
 120 325 200 360 200 360 c 1
 200 360 120 395 120 510 c 2
 120 640 l 2
 120 685 116 700 80 700 c 2
 60 700 l 2
 44 700 30 714 30 730 c 2
 30 840 l 2
 30 856 44 870 60 870 c 2
 200 870 l 2
 294 870 360 816 360 720 c 2
 360 540 l 2
 360 445 427 410 440 405 c 0
 454 399 470 391 470 375 c 2
 470 360 l 1
 470 345 l 2
 470 329 454 321 440 315 c 0
 427 310 360 275 360 180 c 2
 360 0 l 2
 360 -96 294 -150 200 -150 c 2
 60 -150 l 2
 44 -150 30 -136 30 -120 c 2
 30 -10 l 2
EndSplineSet
Colour: ffff00
EndChar

StartChar: asciitilde
Encoding: 126 126 184
Width: 650
VWidth: 0
Flags: W
HStem: 240 180<339.233 471.588> 300 180<178.412 310.767>
LayerCount: 2
Fore
SplineSet
45 316 m 0x40
 45 362 88 480 220 480 c 0x40
 267 480 295 465 330 450 c 0
 371 432 397 420 430 420 c 0
 458 420 472 443 482 460 c 0
 487 468 493 475 502 475 c 0
 513 475 520 470 520 470 c 1
 590 433 l 2
 603 426 605 414 605 404 c 0
 605 358 562 240 430 240 c 0x80
 383 240 355 255 320 270 c 0
 279 288 253 300 220 300 c 0
 192 300 178 277 168 260 c 0
 163 252 157 245 148 245 c 0
 137 245 130 250 130 250 c 1
 60 287 l 2
 47 294 45 306 45 316 c 0x40
EndSplineSet
Colour: ffff00
EndChar

StartChar: Euro
Encoding: 8364 8364 185
Width: 810
VWidth: 0
Flags: W
HStem: -20 240<456.198 656.955> 275 120<20.2506 80 426 599.749> 445 120<20.2506 80 426 599.749> 620 240<456.198 656.955>
LayerCount: 2
Fore
SplineSet
20 305 m 2
 20 365 l 2
 20 381 34 395 50 395 c 2
 80 395 l 1
 80 403 80 412 80 420 c 0
 80 428 80 437 80 445 c 1
 50 445 l 2
 34 445 20 459 20 475 c 2
 20 535 l 2
 20 551 34 565 50 565 c 2
 98 565 l 1
 143 735 275 860 510 860 c 0
 673 860 757 795 768 788 c 0
 780 780 793 770 793 758 c 0
 793 748 790 742 785 733 c 2
 713 603 l 2
 706 590 698 580 687 580 c 0
 680 580 671 587 665 590 c 0
 657 594 623 620 550 620 c 0
 491 620 451 600 426 565 c 1
 570 565 l 2
 586 565 600 551 600 535 c 2
 600 475 l 2
 600 459 586 445 570 445 c 2
 391 445 l 1
 390 437 390 429 390 420 c 0
 390 411 390 403 391 395 c 1
 570 395 l 2
 586 395 600 381 600 365 c 2
 600 305 l 2
 600 289 586 275 570 275 c 2
 426 275 l 1
 451 240 491 220 550 220 c 0
 623 220 657 246 665 250 c 0
 671 253 680 260 687 260 c 0
 698 260 706 250 713 237 c 2
 785 107 l 2
 790 98 793 92 793 82 c 0
 793 70 780 60 768 52 c 0
 757 45 673 -20 510 -20 c 0
 275 -20 143 105 98 275 c 1
 50 275 l 2
 34 275 20 289 20 305 c 2
EndSplineSet
Colour: ffff00
EndChar

StartChar: quoteleft
Encoding: 8216 8216 186
Width: 360
VWidth: 0
Flags: W
HStem: 768 92<245.612 306.128>
VStem: 60 240<460.251 657.961>
LayerCount: 2
Fore
SplineSet
60 490 m 2
 60 630 l 2
 60 784 176 860 280 860 c 0
 291 860 302 854 305 840 c 2
 315 791 l 1
 315 791 316 788 316 785 c 0
 316 774 307 770 299 768 c 0
 269 762 217 746 210 660 c 1
 270 660 l 2
 286 660 300 646 300 630 c 2
 300 490 l 2
 300 474 286 460 270 460 c 2
 90 460 l 2
 74 460 60 474 60 490 c 2
EndSplineSet
Colour: ff00ff
EndChar

StartChar: quoteright
Encoding: 8217 8217 187
Width: 360
VWidth: 0
Flags: W
HStem: 440 92<53.8722 114.388> 820 20G<82 278>
VStem: 60 240<642.039 839.749>
LayerCount: 2
Fore
SplineSet
44 515 m 0
 44 526 53 530 61 532 c 0
 91 538 143 554 150 640 c 1
 90 640 l 2
 74 640 60 654 60 670 c 2
 60 810 l 2
 60 826 74 840 90 840 c 2
 270 840 l 2
 286 840 300 826 300 810 c 2
 300 670 l 2
 300 516 184 440 80 440 c 0
 69 440 58 446 55 460 c 2
 45 509 l 1
 45 509 44 512 44 515 c 0
EndSplineSet
Colour: ff00ff
EndChar

StartChar: quotedblleft
Encoding: 8220 8220 188
Width: 660
VWidth: 0
Flags: W
HStem: 460 200<210 299.749 510 599.749> 768 92<245.612 306.128 545.612 606.128>
VStem: 60 240<460.251 657.961> 360 240<460.251 657.961>
LayerCount: 2
Fore
SplineSet
60 490 m 2
 60 630 l 2
 60 784 176 860 280 860 c 0
 291 860 302 854 305 840 c 2
 315 791 l 1
 315 791 316 788 316 785 c 0
 316 774 307 770 299 768 c 0
 269 762 217 746 210 660 c 1
 270 660 l 2
 286 660 300 646 300 630 c 2
 300 490 l 2
 300 474 286 460 270 460 c 2
 90 460 l 2
 74 460 60 474 60 490 c 2
360 490 m 2
 360 630 l 2
 360 784 476 860 580 860 c 0
 591 860 602 854 605 840 c 2
 615 791 l 1
 615 791 616 788 616 785 c 0
 616 774 607 770 599 768 c 0
 569 762 517 746 510 660 c 1
 570 660 l 2
 586 660 600 646 600 630 c 2
 600 490 l 2
 600 474 586 460 570 460 c 2
 390 460 l 2
 374 460 360 474 360 490 c 2
EndSplineSet
Colour: ff00ff
EndChar

StartChar: quotedblright
Encoding: 8221 8221 189
Width: 660
VWidth: 0
Flags: W
HStem: 440 92<53.8722 114.388 353.872 414.388> 640 200<60.2506 150 360.251 450>
VStem: 60 240<642.039 839.749> 360 240<642.039 839.749>
LayerCount: 2
Fore
SplineSet
44 515 m 0
 44 526 53 530 61 532 c 0
 91 538 143 554 150 640 c 1
 90 640 l 2
 74 640 60 654 60 670 c 2
 60 810 l 2
 60 826 74 840 90 840 c 2
 270 840 l 2
 286 840 300 826 300 810 c 2
 300 670 l 2
 300 516 184 440 80 440 c 0
 69 440 58 446 55 460 c 2
 45 509 l 1
 45 509 44 512 44 515 c 0
344 515 m 0
 344 526 353 530 361 532 c 0
 391 538 443 554 450 640 c 1
 390 640 l 2
 374 640 360 654 360 670 c 2
 360 810 l 2
 360 826 374 840 390 840 c 2
 570 840 l 2
 586 840 600 826 600 810 c 2
 600 670 l 2
 600 516 484 440 380 440 c 0
 369 440 358 446 355 460 c 2
 345 509 l 1
 345 509 344 512 344 515 c 0
EndSplineSet
Colour: ff00ff
EndChar

StartChar: bullet
Encoding: 8226 8226 190
Width: 400
VWidth: 0
Flags: W
HStem: 210 300<116.064 283.936>
VStem: 50 300<276.064 443.936>
LayerCount: 2
Fore
SplineSet
50 360 m 0
 50 443 117 510 200 510 c 0
 283 510 350 443 350 360 c 0
 350 277 283 210 200 210 c 0
 117 210 50 277 50 360 c 0
EndSplineSet
Colour: ffff00
EndChar

StartChar: endash
Encoding: 8211 8211 191
Width: 770
VWidth: 0
Flags: W
HStem: 270 180<50.2506 729.749>
LayerCount: 2
Fore
SplineSet
50 300 m 2
 50 420 l 2
 50 436 64 450 80 450 c 2
 700 450 l 2
 716 450 730 436 730 420 c 2
 730 300 l 2
 730 284 716 270 700 270 c 2
 80 270 l 2
 64 270 50 284 50 300 c 2
EndSplineSet
Colour: ffff00
EndChar

StartChar: emdash
Encoding: 8212 8212 192
Width: 1100
VWidth: 0
Flags: W
HStem: 270 180<50.2506 1059.75>
LayerCount: 2
Fore
SplineSet
50 300 m 2
 50 420 l 2
 50 436 64 450 80 450 c 2
 1030 450 l 2
 1046 450 1060 436 1060 420 c 2
 1060 300 l 2
 1060 284 1046 270 1030 270 c 2
 80 270 l 2
 64 270 50 284 50 300 c 2
EndSplineSet
Colour: ffff00
EndChar

StartChar: ellipsis
Encoding: 8230 8230 193
Width: 1020
VWidth: 0
Flags: W
HStem: 0 200<60.2506 299.749 390.251 629.749 720.251 959.749>
VStem: 60 240<0.250626 199.749> 390 240<0.250626 199.749> 720 240<0.250626 199.749>
CounterMasks: 1 70
LayerCount: 2
Fore
SplineSet
60 30 m 2
 60 170 l 2
 60 186 74 200 90 200 c 2
 270 200 l 2
 286 200 300 186 300 170 c 2
 300 30 l 2
 300 14 286 0 270 0 c 2
 90 0 l 2
 74 0 60 14 60 30 c 2
390 30 m 2
 390 170 l 2
 390 186 404 200 420 200 c 2
 600 200 l 2
 616 200 630 186 630 170 c 2
 630 30 l 2
 630 14 616 0 600 0 c 2
 420 0 l 2
 404 0 390 14 390 30 c 2
720 30 m 2
 720 170 l 2
 720 186 734 200 750 200 c 2
 930 200 l 2
 946 200 960 186 960 170 c 2
 960 30 l 2
 960 14 946 0 930 0 c 2
 750 0 l 2
 734 0 720 14 720 30 c 2
EndSplineSet
Colour: ffff00
EndChar

StartChar: uni0E33.alt
Encoding: 60979 60979 195
Width: 540
VWidth: 0
Flags: W
HStem: 0 21G<239 461> 410 200<85.5606 333> 670 90<-571.354 -498.646> 850 90<-571.354 -498.646>
VStem: -710 135<762.68 847.32> -495 135<762.68 847.32> 210 280<2.43744 400.887>
LayerCount: 2
Fore
SplineSet
-710 805 m 0
 -710 884 -649 940 -535 940 c 0
 -421 940 -360 884 -360 805 c 0
 -360 726 -421 670 -535 670 c 0
 -649 670 -710 726 -710 805 c 0
-575 805 m 0
 -575 775 -557 760 -535 760 c 0
 -513 760 -495 775 -495 805 c 0
 -495 835 -513 850 -535 850 c 0
 -557 850 -575 835 -575 805 c 0
5 530 m 0
 5 542 12 549 30 560 c 1
 30 560 115 610 250 610 c 0
 416 610 490 532 490 380 c 2
 490 40 l 2
 490 18 472 0 450 0 c 2
 250 0 l 2
 228 0 210 18 210 40 c 2
 210 360 l 2
 210 398 196 410 160 410 c 0
 134 410 111 404 90 395 c 0
 81 391 71 385 60 385 c 0
 49 385 44 393 40 405 c 2
 10 505 l 1
 10 505 5 522 5 530 c 0
EndSplineSet
Colour: ffff00
EndChar

StartChar: uni0E31.left
Encoding: 60977 60977 196
Width: 0
VWidth: 0
Flags: W
HStem: 690 150<-595 -380.251>
LayerCount: 2
Fore
SplineSet
-800 780 m 0
 -800 821 -779 870 -779 870 c 1
 -773 886 -759 900 -739 900 c 2
 -605 900 l 2
 -589 900 -579 887 -585 870 c 2
 -595 840 l 1
 -410 840 l 2
 -394 840 -380 826 -380 810 c 2
 -380 720 l 2
 -380 704 -394 690 -410 690 c 2
 -690 690 l 2
 -751 690 -800 722 -800 780 c 0
EndSplineSet
Colour: ffff00
EndChar

StartChar: uni0E34.left
Encoding: 60980 60980 197
Width: 0
VWidth: 0
Flags: W
HStem: 690 150<-809.749 -390.251>
LayerCount: 2
Fore
SplineSet
-810 720 m 2
 -810 810 l 2
 -810 826 -796 840 -780 840 c 2
 -420 840 l 2
 -404 840 -390 826 -390 810 c 2
 -390 720 l 2
 -390 704 -404 690 -420 690 c 2
 -780 690 l 2
 -796 690 -810 704 -810 720 c 2
EndSplineSet
Colour: ffff00
EndChar

StartChar: uni0E35.left
Encoding: 60981 60981 198
Width: 0
VWidth: 0
Flags: W
HStem: 690 230<-559.749 -370.251> 690 150<-819.749 -572.419>
VStem: -560 190<800 919.749>
LayerCount: 2
Fore
SplineSet
-820 720 m 2x60
 -820 810 l 2
 -820 826 -806 840 -790 840 c 2
 -640 840 l 2x60
 -584 840 -560 800 -560 800 c 1
 -560 890 l 2
 -560 906 -546 920 -530 920 c 2
 -400 920 l 2
 -384 920 -370 906 -370 890 c 2
 -370 720 l 2
 -370 704 -384 690 -400 690 c 2xa0
 -790 690 l 2
 -806 690 -820 704 -820 720 c 2x60
EndSplineSet
Colour: ffff00
EndChar

StartChar: uni0E36.left
Encoding: 60982 60982 199
Width: 0
VWidth: 0
Flags: W
HStem: 690 150<-829.749 -631.6> 690 80<-523.326 -459.332> 850 80<-521.997 -458.003>
VStem: -620 95<798.443 848.396> -455 95<771.604 848.396>
LayerCount: 2
Fore
SplineSet
-830 720 m 2xb8
 -830 810 l 2
 -830 826 -816 840 -800 840 c 2
 -680 840 l 2xb8
 -654 840 -633 819 -619 798 c 1
 -620 802 -620 806 -620 810 c 0
 -620 882 -566 930 -490 930 c 0
 -414 930 -360 882 -360 810 c 0
 -360 738 -414 690 -490 690 c 2x78
 -800 690 l 2
 -816 690 -830 704 -830 720 c 2xb8
-525 810 m 0
 -525 784 -511 770 -490 770 c 0x78
 -469 770 -455 784 -455 810 c 0
 -455 836 -469 850 -490 850 c 0
 -511 850 -525 836 -525 810 c 0
EndSplineSet
Colour: ffff00
EndChar

StartChar: uni0E37.left
Encoding: 60983 60983 200
Width: 0
VWidth: 0
Flags: W
HStem: 690 230<-679.993 -550.007 -499.993 -370.314> 690 150<-829.749 -690.279> 690 100<-550 -500>
VStem: -680 130<800 920> -500 130<790 920>
LayerCount: 2
Fore
SplineSet
-830 720 m 2x58
 -830 810 l 2
 -830 826 -816 840 -800 840 c 2
 -750 840 l 2x58
 -699 840 -680 800 -680 800 c 1
 -680 900 l 2
 -680 911 -671 920 -660 920 c 2
 -570 920 l 2x98
 -559 920 -550 911 -550 900 c 2
 -550 790 l 1
 -500 790 l 1x38
 -500 900 l 2
 -500 911 -491 920 -480 920 c 2
 -390 920 l 2
 -379 920 -370 911 -370 900 c 2
 -370 720 l 2
 -370 704 -384 690 -400 690 c 2x98
 -800 690 l 2
 -816 690 -830 704 -830 720 c 2x58
EndSplineSet
Colour: ffff00
EndChar

StartChar: uni0E38.low
Encoding: 60984 60984 201
Width: 0
VWidth: -200
Flags: W
HStem: -490 220<-279.749 -89> -390 120<-329.749 -280>
VStem: -330 250<-389.749 -279>
LayerCount: 2
Fore
SplineSet
-330 -300 m 2x60
 -330 -284 -316 -270 -300 -270 c 2x60
 -140 -270 l 2
 -104 -270 -80 -294 -80 -330 c 2
 -80 -460 l 2
 -80 -476 -94 -490 -110 -490 c 2
 -250 -490 l 2xa0
 -266 -490 -280 -476 -280 -460 c 2
 -280 -390 l 1
 -300 -390 l 2
 -316 -390 -330 -376 -330 -360 c 2
 -330 -300 l 2x60
EndSplineSet
Colour: ffff00
EndChar

StartChar: uni0E39.low
Encoding: 60985 60985 202
Width: 0
VWidth: 0
Flags: W
HStem: -490 90<-320 -250> -390 120<-549.749 -500>
VStem: -250 180<-400 -270.251>
LayerCount: 2
Fore
SplineSet
-550 -300 m 2
 -550 -284 -536 -270 -520 -270 c 2
 -380 -270 l 2
 -344 -270 -320 -294 -320 -330 c 2
 -320 -400 l 1
 -250 -400 l 1
 -250 -300 l 2
 -250 -284 -236 -270 -220 -270 c 2
 -100 -270 l 2
 -84 -270 -70 -284 -70 -300 c 2
 -70 -430 l 2
 -70 -465 -100 -490 -160 -490 c 2
 -410 -490 l 2
 -470 -490 -500 -465 -500 -430 c 2
 -500 -390 l 1
 -520 -390 l 2
 -536 -390 -550 -376 -550 -360 c 2
 -550 -300 l 2
EndSplineSet
Colour: ffff00
EndChar

StartChar: uni0E3A.low
Encoding: 60986 60986 203
Width: 0
VWidth: 0
Flags: W
HStem: -430 160<-299.749 -100.251>
VStem: -300 200<-429.749 -270.251>
LayerCount: 2
Fore
SplineSet
-300 -300 m 2
 -300 -284 -286 -270 -270 -270 c 2
 -130 -270 l 2
 -114 -270 -100 -284 -100 -300 c 2
 -100 -400 l 2
 -100 -416 -114 -430 -130 -430 c 2
 -270 -430 l 2
 -286 -430 -300 -416 -300 -400 c 2
 -300 -300 l 2
EndSplineSet
Colour: ffff00
EndChar

StartChar: uni0E47.left
Encoding: 60999 60999 204
Width: 0
VWidth: 0
Flags: W
HStem: 670 115<-651.593 -559.698> 680 140<-510.32 -397.68> 865 115<-650.487 -360.251>
VStem: -820 165<790.176 859.824>
LayerCount: 2
Fore
SplineSet
-820 825 m 0xb0
 -820 907 -763 980 -645 980 c 2
 -390 980 l 2
 -374 980 -360 966 -360 950 c 2
 -360 895 l 2
 -360 879 -374 865 -390 865 c 2
 -605 865 l 2
 -632 865 -655 852 -655 825 c 0
 -655 798 -632 785 -605 785 c 0xb0
 -581 785 -568 794 -561 805 c 0
 -556 813 -551 820 -540 820 c 2
 -428 820 l 2
 -412 820 -403 806 -396 790 c 2
 -361 710 l 1
 -361 710 -355 699 -355 695 c 0
 -355 685 -367 680 -378 680 c 2
 -480 680 l 2x70
 -496 680 -505 694 -512 710 c 1
 -523 742 l 1
 -540 706 -575 670 -645 670 c 0
 -763 670 -820 743 -820 825 c 0xb0
EndSplineSet
Colour: ffff00
EndChar

StartChar: uni0E4D.high
Encoding: 61005 61005 205
Width: 0
VWidth: 300
Flags: W
HStem: 920 75<-251.446 -188.554> 1075 75<-251.446 -188.554>
VStem: -370 115<996.734 1073.27> -185 115<996.734 1073.27>
AnchorPoint: "th-mkmk" 0 0 mark 0
LayerCount: 2
Fore
SplineSet
-370 1035 m 0
 -370 1100 -315 1150 -220 1150 c 0
 -125 1150 -70 1100 -70 1035 c 0
 -70 970 -125 920 -220 920 c 0
 -315 920 -370 970 -370 1035 c 0
-255 1035 m 0
 -255 1011 -242 995 -220 995 c 0
 -198 995 -185 1011 -185 1035 c 0
 -185 1059 -198 1075 -220 1075 c 0
 -242 1075 -255 1059 -255 1035 c 0
EndSplineSet
Substitution2: "TH Nikhahit High-Left" uni0E4D.high.left
Colour: ffff00
EndChar

StartChar: uni0E48.low
Encoding: 61000 61000 206
Width: 0
VWidth: 0
Flags: W
HStem: 690 230<-289.749 -90.2506>
VStem: -290 200<690.251 919.749>
AnchorPoint: "th-vow-above" -70 660 mark 0
LayerCount: 2
Fore
SplineSet
-290 720 m 2
 -290 890 l 2
 -290 906 -276 920 -260 920 c 2
 -120 920 l 2
 -104 920 -90 906 -90 890 c 2
 -90 720 l 2
 -90 704 -104 690 -120 690 c 2
 -260 690 l 2
 -276 690 -290 704 -290 720 c 2
EndSplineSet
Substitution2: "TH Tone Low to High" uni0E48
Colour: ffff00
EndChar

StartChar: uni0E49.low
Encoding: 61001 61001 207
Width: 0
VWidth: 0
Flags: W
HStem: 690 120<-245 -70.2506> 810 110<-439.749 -380>
VStem: -440 250<834.844 917.495>
AnchorPoint: "th-vow-above" -70 660 mark 0
LayerCount: 2
Fore
SplineSet
-460 730 m 0xa0
 -460 747 -448 759 -435 770 c 1
 -380 810 l 1
 -410 810 l 2
 -426 810 -440 824 -440 840 c 2
 -440 890 l 2
 -440 906 -426 920 -410 920 c 2
 -230 920 l 2x60
 -204 920 -190 898 -190 880 c 0
 -190 861 -200 848 -210 840 c 2
 -245 810 l 1
 -100 810 l 2
 -84 810 -70 796 -70 780 c 2
 -70 720 l 2
 -70 704 -84 690 -100 690 c 2
 -420 690 l 2
 -445 690 -460 709 -460 730 c 0xa0
EndSplineSet
Substitution2: "TH Tone Low to High" uni0E49
Colour: ffff00
EndChar

StartChar: uni0E4A.low
Encoding: 61002 61002 208
Width: 0
VWidth: 0
Flags: W
HStem: 690 230<-319.749 -150.251> 690 100<-150 -70.2506> 810 120<-464 -362.06>
VStem: -560 170<699.399 809.067>
AnchorPoint: "th-vow-above" -70 660 mark 0
LayerCount: 2
Fore
SplineSet
-560 780 m 0x70
 -560 869 -503 930 -425 930 c 0x70
 -378 930 -344 892 -320 851 c 1
 -320 890 l 2
 -320 906 -306 920 -290 920 c 2
 -180 920 l 2x90
 -164 920 -150 906 -150 890 c 2
 -150 790 l 1
 -100 790 l 2
 -84 790 -70 776 -70 760 c 2
 -70 720 l 2
 -70 704 -84 690 -100 690 c 2x50
 -290 690 l 2x90
 -306 690 -320 704 -320 720 c 2
 -320 763 l 1
 -334 789 -352 810 -365 810 c 0
 -385 810 -390 782 -390 760 c 0
 -390 742 -388 728 -385 720 c 0
 -383 715 -381 709 -381 705 c 0
 -381 695 -394 690 -405 690 c 2
 -520 690 l 2
 -539 690 -551 709 -554 725 c 0
 -556 737 -560 757 -560 780 c 0x70
EndSplineSet
Substitution2: "TH Tone Low to High" uni0E4A
Colour: ffff00
EndChar

StartChar: uni0E4B.low
Encoding: 61003 61003 209
Width: 0
VWidth: 0
Flags: W
HStem: 690 230<-284.749 -115.251> 755 100<-369.749 -285 -115 -30.2506>
VStem: -285 170<690.251 755 855 919.749>
AnchorPoint: "th-vow-above" -70 660 mark 0
LayerCount: 2
Fore
SplineSet
-370 785 m 2x60
 -370 825 l 2
 -370 841 -356 855 -340 855 c 2
 -285 855 l 1x60
 -285 890 l 2
 -285 906 -271 920 -255 920 c 2
 -145 920 l 2xa0
 -129 920 -115 906 -115 890 c 2
 -115 855 l 1
 -60 855 l 2
 -44 855 -30 841 -30 825 c 2
 -30 785 l 2
 -30 769 -44 755 -60 755 c 2
 -115 755 l 1x60
 -115 720 l 2
 -115 704 -129 690 -145 690 c 2
 -255 690 l 2xa0
 -271 690 -285 704 -285 720 c 2
 -285 755 l 1
 -340 755 l 2
 -356 755 -370 769 -370 785 c 2x60
EndSplineSet
Substitution2: "TH Tone Low to High" uni0E4B
Colour: ffff00
EndChar

StartChar: uni0E4C.low
Encoding: 61004 61004 210
Width: 0
VWidth: 0
Flags: W
HStem: 770 140<-195 -40.2506>
AnchorPoint: "th-vow-above" -70 660 mark 0
LayerCount: 2
Fore
SplineSet
-380 820 m 0
 -380 878 -331 910 -270 910 c 2
 -70 910 l 2
 -54 910 -40 896 -40 880 c 2
 -40 800 l 2
 -40 784 -54 770 -70 770 c 2
 -195 770 l 1
 -183 740 l 1
 -183 740 -178 729 -178 725 c 0
 -178 715 -191 710 -202 710 c 2
 -325 710 l 2
 -341 710 -352 724 -361 740 c 1
 -361 740 -380 774 -380 820 c 0
EndSplineSet
Substitution2: "TH Tone Low to High" uni0E4C
Colour: ffff00
EndChar

StartChar: uni0E48.low.left
Encoding: 986696 986696 211
Width: 0
VWidth: 0
Flags: W
HStem: 690 230<-609.749 -410.251>
VStem: -610 200<690.251 919.749>
LayerCount: 2
Fore
SplineSet
-610 720 m 2
 -610 890 l 2
 -610 906 -596 920 -580 920 c 2
 -440 920 l 2
 -424 920 -410 906 -410 890 c 2
 -410 720 l 2
 -410 704 -424 690 -440 690 c 2
 -580 690 l 2
 -596 690 -610 704 -610 720 c 2
EndSplineSet
Colour: ffff00
EndChar

StartChar: uni0E49.low.left
Encoding: 986697 986697 212
Width: 0
VWidth: 0
Flags: W
HStem: 690 120<-545 -370.251> 810 110<-739.749 -680>
VStem: -740 250<834.844 917.495>
LayerCount: 2
Fore
SplineSet
-760 730 m 0xa0
 -760 747 -748 759 -735 770 c 1
 -680 810 l 1
 -710 810 l 2
 -726 810 -740 824 -740 840 c 2
 -740 890 l 2
 -740 906 -726 920 -710 920 c 2
 -530 920 l 2x60
 -504 920 -490 898 -490 880 c 0
 -490 861 -500 848 -510 840 c 2
 -545 810 l 1
 -400 810 l 2
 -384 810 -370 796 -370 780 c 2
 -370 720 l 2
 -370 704 -384 690 -400 690 c 2
 -720 690 l 2
 -745 690 -760 709 -760 730 c 0xa0
EndSplineSet
Colour: ffff00
EndChar

StartChar: uni0E4A.low.left
Encoding: 986698 986698 213
Width: 0
VWidth: 0
Flags: W
HStem: 690 230<-579.749 -430.251> 690 100<-430 -360.251> 815 115<-714 -617.187>
VStem: -800 150<699.399 813.49> -580 150<790 800.673 844 919.749>
LayerCount: 2
Fore
SplineSet
-800 780 m 0x78
 -800 869 -753 930 -675 930 c 0x78
 -626 930 -598 887 -580 844 c 1
 -580 890 l 2
 -580 906 -566 920 -550 920 c 2
 -460 920 l 2x98
 -444 920 -430 906 -430 890 c 2
 -430 790 l 1
 -390 790 l 2
 -374 790 -360 776 -360 760 c 2
 -360 720 l 2
 -360 704 -374 690 -390 690 c 2x58
 -550 690 l 2x98
 -566 690 -580 704 -580 720 c 2
 -580 746 l 1
 -592 782 -610 815 -625 815 c 0
 -645 815 -650 791 -650 760 c 0
 -650 742 -648 728 -645 720 c 0
 -643 715 -641 709 -641 705 c 0
 -641 695 -654 690 -665 690 c 2
 -760 690 l 2
 -779 690 -791 709 -794 725 c 0
 -796 737 -800 757 -800 780 c 0x78
EndSplineSet
Colour: ffff00
EndChar

StartChar: uni0E4B.low.left
Encoding: 986699 986699 214
Width: 0
VWidth: 0
Flags: W
HStem: 690 230<-634.749 -465.251> 755 100<-719.749 -635 -465 -380.251>
VStem: -635 170<690.251 755 855 919.749>
LayerCount: 2
Fore
SplineSet
-720 785 m 2x60
 -720 825 l 2
 -720 841 -706 855 -690 855 c 2
 -635 855 l 1x60
 -635 890 l 2
 -635 906 -621 920 -605 920 c 2
 -495 920 l 2xa0
 -479 920 -465 906 -465 890 c 2
 -465 855 l 1
 -410 855 l 2
 -394 855 -380 841 -380 825 c 2
 -380 785 l 2
 -380 769 -394 755 -410 755 c 2
 -465 755 l 1x60
 -465 720 l 2
 -465 704 -479 690 -495 690 c 2
 -605 690 l 2xa0
 -621 690 -635 704 -635 720 c 2
 -635 755 l 1
 -690 755 l 2
 -706 755 -720 769 -720 785 c 2x60
EndSplineSet
Colour: ffff00
EndChar

StartChar: uni0E4C.low.left
Encoding: 986700 986700 215
Width: 0
VWidth: 0
Flags: W
HStem: 770 140<-535 -380.251>
LayerCount: 2
Fore
SplineSet
-720 820 m 0
 -720 878 -671 910 -610 910 c 2
 -410 910 l 2
 -394 910 -380 896 -380 880 c 2
 -380 800 l 2
 -380 784 -394 770 -410 770 c 2
 -535 770 l 1
 -523 740 l 1
 -523 740 -518 729 -518 725 c 0
 -518 715 -531 710 -542 710 c 2
 -665 710 l 2
 -681 710 -692 724 -701 740 c 1
 -701 740 -720 774 -720 820 c 0
EndSplineSet
Colour: ffff00
EndChar

StartChar: uni0E4D.low.left
Encoding: 986701 986701 216
Width: 0
VWidth: 0
Flags: W
HStem: 670 90<-571.354 -498.646> 850 90<-571.354 -498.646>
VStem: -710 135<762.68 847.32> -495 135<762.68 847.32>
LayerCount: 2
Fore
SplineSet
-710 805 m 0
 -710 884 -649 940 -535 940 c 0
 -421 940 -360 884 -360 805 c 0
 -360 726 -421 670 -535 670 c 0
 -649 670 -710 726 -710 805 c 0
-575 805 m 0
 -575 775 -557 760 -535 760 c 0
 -513 760 -495 775 -495 805 c 0
 -495 835 -513 850 -535 850 c 0
 -557 850 -575 835 -575 805 c 0
EndSplineSet
Colour: ffff00
EndChar

StartChar: uni0E48.high.left
Encoding: 1044040 1044040 217
Width: 0
VWidth: 0
Flags: W
HStem: 960 210<-554.749 -375.251>
VStem: -555 180<960.251 1169.75>
LayerCount: 2
Fore
SplineSet
-555 990 m 2
 -555 1140 l 2
 -555 1156 -541 1170 -525 1170 c 2
 -405 1170 l 2
 -389 1170 -375 1156 -375 1140 c 2
 -375 990 l 2
 -375 974 -389 960 -405 960 c 2
 -525 960 l 2
 -541 960 -555 974 -555 990 c 2
EndSplineSet
Colour: ffff00
EndChar

StartChar: uni0E49.high.left
Encoding: 1044041 1044041 218
Width: 0
VWidth: 0
Flags: W
HStem: 960 110<-475 -310.251> 1080 90<-660 -600>
VStem: -670 360<962.209 1044.44>
LayerCount: 2
Fore
SplineSet
-670 1000 m 0
 -670 1017 -663 1029 -650 1040 c 2
 -600 1080 l 1
 -640 1080 l 2
 -651 1080 -660 1089 -660 1100 c 2
 -660 1150 l 2
 -660 1161 -651 1170 -640 1170 c 2
 -460 1170 l 2
 -434 1170 -420 1153 -420 1135 c 0
 -420 1121 -425 1113 -435 1105 c 2
 -475 1070 l 1
 -340 1070 l 2
 -324 1070 -310 1056 -310 1040 c 2
 -310 990 l 2
 -310 974 -324 960 -340 960 c 2
 -630 960 l 2
 -655 960 -670 979 -670 1000 c 0
EndSplineSet
Colour: ffff00
EndChar

StartChar: uni0E4A.high.left
Encoding: 1044042 1044042 219
Width: 0
VWidth: 0
Flags: W
HStem: 960 210<-499.749 -350.251> 960 90<-350 -270> 1070 110<-635.5 -538.42>
VStem: -720 155<982.877 1069.76> -500 230<960.314 1049.13> -500 150<1050 1063.24 1108 1169.75>
LayerCount: 2
Fore
SplineSet
-720 1030 m 0x78
 -720 1119 -671 1180 -600 1180 c 0x78
 -557 1180 -525 1146 -500 1108 c 1
 -500 1140 l 2
 -500 1156 -486 1170 -470 1170 c 2
 -380 1170 l 2x94
 -364 1170 -350 1156 -350 1140 c 2
 -350 1050 l 1x54
 -290 1050 l 2
 -279 1050 -270 1041 -270 1030 c 2
 -270 980 l 2
 -270 969 -279 960 -290 960 c 2x58
 -470 960 l 2x98
 -486 960 -500 974 -500 990 c 2
 -500 1026 l 1
 -514 1051 -527 1070 -540 1070 c 0
 -560 1070 -565 1036 -565 1020 c 0
 -565 1010 -564 998 -561 990 c 0
 -559 985 -557 979 -557 975 c 0
 -557 965 -570 960 -581 960 c 2
 -685 960 l 2
 -701 960 -714 974 -717 990 c 0
 -719 1002 -720 1017 -720 1030 c 0x78
EndSplineSet
Colour: ffff00
EndChar

StartChar: uni0E4B.high.left
Encoding: 1044043 1044043 220
Width: 0
VWidth: 0
Flags: W
HStem: 960 210<-544.749 -385.251> 1020 90<-625 -545 -385 -305>
VStem: -545 160<960.251 1020 1110 1169.75>
LayerCount: 2
Fore
SplineSet
-625 1040 m 2x60
 -625 1090 l 2
 -625 1101 -616 1110 -605 1110 c 2
 -545 1110 l 1x60
 -545 1140 l 2
 -545 1156 -531 1170 -515 1170 c 2
 -415 1170 l 2xa0
 -399 1170 -385 1156 -385 1140 c 2
 -385 1110 l 1
 -325 1110 l 2
 -314 1110 -305 1101 -305 1090 c 2
 -305 1040 l 2
 -305 1029 -314 1020 -325 1020 c 2
 -385 1020 l 1x60
 -385 990 l 2
 -385 974 -399 960 -415 960 c 2
 -515 960 l 2xa0
 -531 960 -545 974 -545 990 c 2
 -545 1020 l 1
 -605 1020 l 2
 -616 1020 -625 1029 -625 1040 c 2x60
EndSplineSet
Colour: ffff00
EndChar

StartChar: uni0E4C.high.left
Encoding: 1044044 1044044 221
Width: 0
VWidth: 0
Flags: W
HStem: 990 120<-415 -280.251>
LayerCount: 2
Fore
SplineSet
-580 1030 m 0
 -580 1088 -541 1110 -480 1110 c 2
 -310 1110 l 2
 -294 1110 -280 1096 -280 1080 c 2
 -280 1020 l 2
 -280 1004 -294 990 -310 990 c 2
 -415 990 l 1
 -400 960 l 1
 -400 960 -393 949 -393 945 c 0
 -393 935 -406 930 -417 930 c 2
 -521 930 l 2
 -537 930 -549 944 -558 960 c 0
 -564 971 -580 993 -580 1030 c 0
EndSplineSet
Colour: ffff00
EndChar

StartChar: uni0E4D.high.left
Encoding: 1044045 1044045 222
Width: 0
VWidth: 300
Flags: W
HStem: 920 75<-511.446 -448.554> 1075 75<-511.446 -448.554>
VStem: -630 115<996.734 1073.27> -445 115<996.734 1073.27>
LayerCount: 2
Fore
SplineSet
-630 1035 m 0
 -630 1100 -575 1150 -480 1150 c 0
 -385 1150 -330 1100 -330 1035 c 0
 -330 970 -385 920 -480 920 c 0
 -575 920 -630 970 -630 1035 c 0
-515 1035 m 0
 -515 1011 -502 995 -480 995 c 0
 -458 995 -445 1011 -445 1035 c 0
 -445 1059 -458 1075 -480 1075 c 0
 -502 1075 -515 1059 -515 1035 c 0
EndSplineSet
Colour: ffff00
EndChar

StartChar: a.alt
Encoding: 983137 983137 223
Width: 790
VWidth: 0
Flags: W
HStem: -10 190<231 422.41> 0 21G<519 711> 420 190<231 422.41> 580 20G<519 711>
VStem: 30 280<213.556 386.444> 470 270<191.988 408.012> 490 250<2.43744 82 518 597.563>
LayerCount: 2
Fore
SplineSet
30 300 m 0x8a
 30 471 142 610 320 610 c 0xaa
 401 610 455 571 490 518 c 1
 490 560 l 2
 490 582 508 600 530 600 c 2
 700 600 l 2
 722 600 740 582 740 560 c 2
 740 40 l 2
 740 18 722 0 700 0 c 2
 530 0 l 2x5a
 508 0 490 18 490 40 c 2
 490 82 l 1
 455 29 401 -10 320 -10 c 0
 142 -10 30 129 30 300 c 0x8a
310 300 m 0
 310 220 352 180 400 180 c 0
 438 180 459 198 470 228 c 1
 470 372 l 1xac
 459 402 438 420 400 420 c 0
 352 420 310 380 310 300 c 0
EndSplineSet
Colour: ffff00
EndChar

StartChar: g.alt
Encoding: 983143 983143 224
Width: 790
VWidth: 0
Flags: W
HStem: -260 180<223.535 454.638> -10 190<231 421.513> 420 190<231 422.41> 580 20G<519 711>
VStem: 30 280<213.556 386.444> 470 270<191.988 408.012>
LayerCount: 2
Fore
SplineSet
30 300 m 0xdc
 30 471 142 610 320 610 c 0xec
 401 610 455 571 490 518 c 1
 490 560 l 2
 490 582 508 600 530 600 c 2
 700 600 l 2
 722 600 740 582 740 560 c 2
 740 20 l 2
 740 -156 642 -260 410 -260 c 0
 278 -260 217 -234 205 -230 c 0
 193 -226 175 -217 175 -205 c 0
 175 -198 180 -185 180 -185 c 1
 211 -75 l 2
 215 -63 220 -55 231 -55 c 0
 240 -55 257 -65 280 -70 c 0
 308 -76 344 -80 370 -80 c 0
 428 -80 480 -59 480 0 c 2
 480 68 l 1
 445 23 394 -10 320 -10 c 0
 142 -10 30 129 30 300 c 0xdc
310 300 m 0
 310 220 352 180 400 180 c 0
 438 180 459 198 470 228 c 1
 470 372 l 1
 459 402 438 420 400 420 c 0
 352 420 310 380 310 300 c 0
EndSplineSet
Colour: ffff00
EndChar

StartChar: uni25CC
Encoding: 9676 9676 228
Width: 720
VWidth: 0
Flags: W
HStem: -20 70<326.122 393.878> 2 70<217.122 284.878 435.122 502.878> 63 70<124.122 191.878 528.122 595.878> 156 70<63.1223 130.878 589.122 656.878> 265 70<41.1223 108.878 611.122 678.878> 374 70<63.1223 130.878 589.122 656.878> 467 70<124.122 191.878 528.122 595.878> 528 70<217.122 284.878 435.122 502.878> 550 70<326.122 393.878>
VStem: 40 70<266.122 333.878> 62 70<157.122 224.878 375.122 442.878> 123 70<64.1223 131.878 468.122 535.878> 216 70<3.12228 70.8777 529.122 596.878> 325 70<-18.8777 48.8777 551.122 618.878> 434 70<3.12228 70.8777 529.122 596.878> 527 70<64.1223 131.878 468.122 535.878> 588 70<157.122 224.878 375.122 442.878> 610 70<266.122 333.878>
LayerCount: 2
Fore
SplineSet
40 300 m 0x1c4e
 40 319 56 335 75 335 c 0
 94 335 110 319 110 300 c 0
 110 281 94 265 75 265 c 0
 56 265 40 281 40 300 c 0x1c4e
62 191 m 0x1c2e
 62 210 78 226 97 226 c 0
 116 226 132 210 132 191 c 0
 132 172 116 156 97 156 c 0
 78 156 62 172 62 191 c 0x1c2e
62 409 m 0
 62 428 78 444 97 444 c 0
 116 444 132 428 132 409 c 0
 132 390 116 374 97 374 c 0
 78 374 62 390 62 409 c 0
123 98 m 0x3c1e
 123 117 139 133 158 133 c 0
 177 133 193 117 193 98 c 0
 193 79 177 63 158 63 c 0
 139 63 123 79 123 98 c 0x3c1e
123 502 m 0
 123 521 139 537 158 537 c 0
 177 537 193 521 193 502 c 0
 193 483 177 467 158 467 c 0x1e1e
 139 467 123 483 123 502 c 0
216 37 m 0
 216 56 232 72 251 72 c 0
 270 72 286 56 286 37 c 0
 286 18 270 2 251 2 c 0x5c0e
 232 2 216 18 216 37 c 0
216 563 m 0
 216 582 232 598 251 598 c 0
 270 598 286 582 286 563 c 0
 286 544 270 528 251 528 c 0x1d0e
 232 528 216 544 216 563 c 0
325 15 m 0
 325 34 341 50 360 50 c 0
 379 50 395 34 395 15 c 0
 395 -4 379 -20 360 -20 c 0x9c0e
 341 -20 325 -4 325 15 c 0
325 585 m 0
 325 604 341 620 360 620 c 0
 379 620 395 604 395 585 c 0
 395 566 379 550 360 550 c 0x1c8e
 341 550 325 566 325 585 c 0
434 37 m 0
 434 56 450 72 469 72 c 0
 488 72 504 56 504 37 c 0
 504 18 488 2 469 2 c 0x5c0e
 450 2 434 18 434 37 c 0
434 563 m 0
 434 582 450 598 469 598 c 0
 488 598 504 582 504 563 c 0
 504 544 488 528 469 528 c 0x1d0e
 450 528 434 544 434 563 c 0
527 98 m 0x3c0f
 527 117 543 133 562 133 c 0
 581 133 597 117 597 98 c 0
 597 79 581 63 562 63 c 0
 543 63 527 79 527 98 c 0x3c0f
527 502 m 0
 527 521 543 537 562 537 c 0
 581 537 597 521 597 502 c 0
 597 483 581 467 562 467 c 0x1e0f
 543 467 527 483 527 502 c 0
588 191 m 0x1c0e80
 588 210 604 226 623 226 c 0
 642 226 658 210 658 191 c 0
 658 172 642 156 623 156 c 0
 604 156 588 172 588 191 c 0x1c0e80
588 409 m 0
 588 428 604 444 623 444 c 0
 642 444 658 428 658 409 c 0
 658 390 642 374 623 374 c 0
 604 374 588 390 588 409 c 0
610 300 m 0x1c0e40
 610 319 626 335 645 335 c 0
 664 335 680 319 680 300 c 0
 680 281 664 265 645 265 c 0
 626 265 610 281 610 300 c 0x1c0e40
EndSplineSet
Colour: ffff00
EndChar

StartChar: uni0E0A.swap
Encoding: 60938 60938 229
Width: 770
VWidth: -360
Flags: W
HStem: -20 180<330.999 429.001> 490 168<588.277 729.749> 580 20G<72 304>
VStem: 50 330<421.878 565.391> 50 270<169.141 335.164> 440 270<168.809 399.457>
AnchorPoint: "th-vow-above" 650 660 basechar 0
LayerCount: 2
Fore
SplineSet
50 220 m 0xcc
 50 338 130 420 130 420 c 1
 80 420 l 2
 64 420 50 434 50 450 c 2xd4
 50 570 l 2xcc
 50 586 64 599 80 600 c 1
 260 600 l 2
 348 600 380 553 380 480 c 0xb4
 380 397 320 317 320 220 c 0xac
 320 178 346 160 380 160 c 0
 414 160 440 177 440 220 c 2
 440 370 l 2
 440 410 434 426 420 430 c 0
 410 433 400 439 400 450 c 2
 400 510 l 2
 400 521 412 528 420 535 c 0
 456 565 590 658 700 658 c 0
 716 658 730 644 730 628 c 2
 730 520 l 2
 730 504 716 490 700 490 c 0
 643 490 604 480 575 467 c 1
 648 453 710 392 710 330 c 2
 710 220 l 2
 710 54 581 -20 380 -20 c 0xd4
 179 -20 50 60 50 220 c 0xcc
EndSplineSet
Colour: ffff00
EndChar

StartChar: uni0E0B.swap
Encoding: 60939 60939 230
Width: 780
VWidth: -360
Flags: W
HStem: -20 180<340.999 439.001> 450 160<159 313.5> 490 168<598.277 739.749>
VStem: 60 270<168.228 298.742> 190 220<386.035 516.5> 450 270<168.809 399.457>
AnchorPoint: "th-vow-above" 670 660 basechar 0
LayerCount: 2
Fore
SplineSet
20 460 m 2xcc
 20 590 l 2
 20 598 25 607 33 607 c 0
 38 607 41 606 50 600 c 2
 130 550 l 1
 150 570 196 610 270 610 c 0
 357 610 410 553 410 480 c 0xcc
 410 397 330 317 330 220 c 0
 330 177 356 160 390 160 c 0
 424 160 450 177 450 220 c 2
 450 370 l 2
 450 410 444 426 430 430 c 0
 420 433 415 439 415 450 c 2xd4
 415 510 l 2
 415 521 422 528 430 535 c 0
 466 565 600 658 710 658 c 0
 726 658 740 644 740 628 c 2
 740 520 l 2
 740 504 726 490 710 490 c 0
 653 490 614 480 585 467 c 1
 658 453 720 392 720 330 c 2
 720 220 l 2
 720 54 591 -20 390 -20 c 0
 189 -20 60 54 60 220 c 0xb4
 60 333 190 369 190 425 c 0
 190 438 185 450 170 450 c 0
 148 450 131 430 120 415 c 0
 116 409 112 400 100 400 c 0
 94 400 80 410 80 410 c 1
 35 435 l 2
 27 440 20 448 20 460 c 2xcc
EndSplineSet
Colour: ffff00
EndChar

StartChar: uni0E28.swap
Encoding: 60968 60968 231
Width: 800
VWidth: 0
Flags: W
HStem: 0 21G<69 281 499 711> 165 175<329.025 404.718> 430 190<328.364 454.606> 510 168<680.424 779.749>
VStem: 40 270<2.43744 151.462 290 414.524> 470 270<2.43744 412.881>
AnchorPoint: "th-vow-above" 660 660 basechar 0
LayerCount: 2
Fore
SplineSet
40 40 m 2xec
 40 370 l 2
 40 536 176 620 390 620 c 0xec
 447 620 493 609 528 596 c 1
 587 634 674 678 750 678 c 0
 766 678 780 664 780 648 c 2
 780 540 l 2
 780 524 766 510 750 510 c 0xdc
 722 510 697 508 677 503 c 1
 710 475 740 426 740 370 c 2
 740 40 l 2
 740 18 722 0 700 0 c 2
 510 0 l 2
 488 0 470 18 470 40 c 2
 470 360 l 2
 470 408 434 430 390 430 c 0
 346 430 310 408 310 360 c 2
 310 290 l 1
 328 317 351 340 380 340 c 0
 391 340 399 338 405 335 c 0
 415 330 420 319 420 310 c 2
 420 175 l 2
 420 167 412 162 405 163 c 0
 399 164 393 165 380 165 c 0
 349 165 323 146 310 125 c 1
 310 40 l 2
 310 18 292 0 270 0 c 2
 80 0 l 2
 58 0 40 18 40 40 c 2xec
EndSplineSet
Colour: ffff00
EndChar

StartChar: uni0E2A.swap
Encoding: 60970 60970 232
Width: 760
VWidth: 0
Flags: W
HStem: -10 140<304.719 372.967> 0 21G<459 671> 230 140<177 379.413> 440 180<157.64 406.779> 510 168<635.163 739.749>
VStem: 30 270<135.717 221.004> 430 270<2.43744 222.762 311 415.391>
AnchorPoint: "th-vow-above" 620 660 basechar 0
LayerCount: 2
Fore
SplineSet
30 180 m 0xa6
 30 288 104 370 250 370 c 0
 347 370 403 335 430 311 c 1
 430 360 l 2
 430 421 378 440 300 440 c 0xb6
 251 440 191 427 160 415 c 0
 147 410 124 400 111 400 c 0
 96 400 91 418 86 430 c 2
 55 510 l 1x2e
 55 510 50 522 50 535 c 0
 50 550 55 558 70 565 c 0
 82 570 194 620 370 620 c 0x36
 420 620 461 611 493 599 c 1
 552 636 636 678 710 678 c 0
 726 678 740 664 740 648 c 2
 740 540 l 2
 740 524 726 510 710 510 c 0
 680 510 655 507 634 503 c 1
 660 480 700 436 700 370 c 2
 700 40 l 2
 700 18 682 0 660 0 c 2
 470 0 l 2x6e
 448 0 430 18 430 40 c 2
 430 208 l 1
 412 222 392 230 360 230 c 0
 328 230 300 215 300 180 c 0
 300 142 328 130 350 130 c 0
 366 130 374 135 380 135 c 0
 386 135 390 132 390 120 c 2
 390 40 l 2
 390 25 375 16 360 10 c 0
 331 -1 294 -10 250 -10 c 0
 104 -10 30 72 30 180 c 0xa6
EndSplineSet
Colour: ffff00
EndChar

StartChar: uni0E2C.swap
Encoding: 60972 60972 233
Width: 1040
VWidth: -360
Flags: W
HStem: 0 21G<200 438.5 611.5 850> 510 168<851.948 1019.75> 580 20G<45 274.5 465.5 584.5>
VStem: 15 290<505.867 597.23> 725 250<339.844 468.093>
AnchorPoint: "th-vow-below" 840 0 basechar 0
AnchorPoint: "th-vow-above" 840 660 basechar 0
LayerCount: 2
Fore
SplineSet
15 580 m 0xb8
 15 595 30 600 60 600 c 2
 260 600 l 2
 289 600 300 587 305 560 c 2
 350 270 l 1
 355 230 l 1
 365 230 l 1
 370 270 l 1
 440 560 l 2
 445 584 451 600 480 600 c 2
 525 600 l 1
 570 600 l 2
 599 600 605 584 610 560 c 2
 680 270 l 1
 685 230 l 1
 695 230 l 1
 700 270 l 1
 721 400 l 1
 721 400 725 429 725 445 c 0
 725 469 716 484 708 490 c 1
 708 490 700 494 700 505 c 2
 700 580 l 2xb8
 700 592 710 605 720 610 c 0
 740 619 894 678 990 678 c 0
 1006 678 1020 664 1020 648 c 2
 1020 540 l 2
 1020 524 1006 510 990 510 c 2
 850 510 l 1xd8
 850 505 l 1
 916 505 975 470 975 400 c 0
 975 367 955 300 955 300 c 1
 880 40 l 2
 874 19 865 0 835 0 c 2
 625 0 l 2
 598 0 588 16 580 40 c 1
 525 250 l 1
 470 40 l 1
 462 16 452 0 425 0 c 2
 215 0 l 2
 185 0 176 19 170 40 c 2
 20 560 l 2
 18 565 15 575 15 580 c 0xb8
EndSplineSet
Colour: ffff00
EndChar

StartChar: uni0E2E.swap
Encoding: 60974 60974 234
Width: 750
VWidth: 0
Flags: W
HStem: -20 180<290.608 401.968> 230 110<275 319.749> 440 180<152.254 378.971> 510 168<624.693 729.749>
VStem: 430 270<186.975 389.499>
AnchorPoint: "th-vow-above" 610 660 basechar 0
LayerCount: 2
Fore
SplineSet
30 260 m 0xd8
 30 305 52 340 90 340 c 2
 290 340 l 2
 306 340 320 326 320 310 c 2
 320 260 l 2
 320 244 306 230 290 230 c 2
 275 230 l 1
 275 182 310 160 350 160 c 0
 408 160 430 210 430 300 c 0
 430 400 370 440 280 440 c 0xe8
 220 440 182 427 160 420 c 0
 147 416 124 405 111 405 c 0
 96 405 91 423 86 435 c 2
 55 510 l 1xd8
 55 510 50 522 50 535 c 0
 50 550 55 558 70 565 c 0
 82 570 184 620 360 620 c 0xe8
 414 620 453 610 482 599 c 1
 540 635 626 678 700 678 c 0
 716 678 730 664 730 648 c 2
 730 540 l 2
 730 524 716 510 700 510 c 0
 669 510 644 507 622 502 c 1
 658 473 700 415 700 300 c 0
 700 123 564 -20 350 -20 c 0
 168 -20 30 70 30 260 c 0xd8
EndSplineSet
Colour: ffff00
EndChar
